<svg width="105" height="106" viewBox="0 0 105 106" fill="none" xmlns="http://www.w3.org/2000/svg">
<rect width="105" height="106.01" rx="52.5" fill="#373873" fill-opacity="0.1"/>
<path fill-rule="evenodd" clip-rule="evenodd" d="M53.0804 37.1667H52.917C50.2567 37.1667 48.1494 37.1667 46.5003 37.3923C44.8031 37.6245 43.4294 38.1136 42.346 39.2159C41.2627 40.3181 40.7819 41.7158 40.5537 43.4426C40.332 45.1205 40.332 47.2645 40.332 49.9712V56.0289C40.332 58.7357 40.332 60.8796 40.5537 62.5576C40.7819 64.2844 41.2627 65.6821 42.346 66.7843C43.4294 67.8865 44.8031 68.3757 46.5003 68.6079C48.1494 68.8335 50.2566 68.8334 52.917 68.8334H53.0804C55.7407 68.8334 57.848 68.8335 59.4971 68.6079C61.1943 68.3757 62.568 67.8865 63.6514 66.7843C64.7347 65.6821 65.2155 64.2844 65.4437 62.5576C65.6654 60.8797 65.6654 58.7357 65.6654 56.029V49.9713C65.6654 47.2645 65.6654 45.1205 65.4437 43.4426C65.2155 41.7158 64.7347 40.3181 63.6514 39.2159C62.568 38.1136 61.1943 37.6245 59.4971 37.3923C57.8479 37.1667 55.7408 37.1667 53.0804 37.1667ZM47.5701 63.3102C47.5701 62.7001 48.0562 62.2055 48.6558 62.2055H57.3416C57.9412 62.2055 58.4273 62.7001 58.4273 63.3102C58.4273 63.9202 57.9412 64.4148 57.3416 64.4148H48.6558C48.0562 64.4148 47.5701 63.9202 47.5701 63.3102Z" fill="#373873"/>
</svg>
