<svg width="105" height="106" viewBox="0 0 105 106" fill="none" xmlns="http://www.w3.org/2000/svg">
<rect width="105" height="106.01" rx="52.5" fill="#373873" fill-opacity="0.1"/>
<path d="M43.8327 66.3334C41.3049 66.3334 39.1455 65.4584 37.3543 63.7084C35.5632 61.9584 34.6671 59.8195 34.666 57.2917C34.666 55.1251 35.3188 53.1945 36.6243 51.5001C37.9299 49.8056 39.6382 48.7223 41.7493 48.2501C42.4438 45.6945 43.8327 43.6251 45.916 42.0417C47.9993 40.4584 50.3605 39.6667 52.9993 39.6667C56.2493 39.6667 59.0066 40.799 61.271 43.0634C63.5355 45.3279 64.6671 48.0845 64.666 51.3334C66.5827 51.5556 68.1732 52.3823 69.4377 53.8134C70.7021 55.2445 71.3338 56.9179 71.3327 58.8334C71.3327 60.9167 70.6038 62.6879 69.146 64.1467C67.6882 65.6056 65.9171 66.3345 63.8327 66.3334H43.8327Z" fill="#373873"/>
</svg>
