<svg width="105" height="106" viewBox="0 0 105 106" fill="none" xmlns="http://www.w3.org/2000/svg">
<rect width="105" height="106.01" rx="52.5" fill="#373873" fill-opacity="0.1"/>
<path fill-rule="evenodd" clip-rule="evenodd" d="M53.0589 35.7749C53.3317 35.53 53.6926 35.4017 54.0619 35.4182C61.8704 35.6519 68.3963 41.3204 69.579 48.8966C69.5865 48.9418 69.5865 48.9879 69.579 49.0332C69.6045 49.3916 69.4833 49.7453 69.2423 50.0159C69.0014 50.2865 68.6604 50.4518 68.2949 50.4751L55.1758 51.3403C54.742 51.3788 54.3117 51.236 53.9907 50.9471C53.6697 50.6581 53.4877 50.2498 53.4895 49.8225L52.6077 36.936V36.7235C52.6237 36.3611 52.7861 36.0198 53.0589 35.7749ZM52.159 54.7099L63.4854 54.0117H63.6073C64.0956 54.0197 64.5607 54.2177 64.9001 54.5621C65.2396 54.9066 65.4257 55.3692 65.4174 55.8483C64.9693 62.3777 60.1823 67.8332 53.6677 69.2387C47.1532 70.6442 40.4749 67.6623 37.2763 61.9196C36.3357 60.2657 35.7414 58.444 35.5281 56.5617C35.4454 56.0039 35.4091 55.4404 35.4198 54.8769C35.4413 47.9338 40.3846 41.941 47.3013 40.4726C48.1386 40.3158 48.9781 40.7339 49.3434 41.4895C49.5239 41.7616 49.5706 42.0948 49.5919 42.4206C49.7116 44.2555 49.8351 46.0751 49.958 47.8877C50.0638 49.4468 50.1692 51.0007 50.2716 52.5546C50.2663 52.9206 50.3239 53.2849 50.4418 53.6322C50.7194 54.3156 51.4103 54.7492 52.159 54.7099Z" fill="#373873"/>
</svg>
