<svg width="381" height="381" viewBox="0 0 381 381" fill="none" xmlns="http://www.w3.org/2000/svg">
<path d="M193.593 369.524C287.806 369.524 364.182 322.786 364.182 265.13C364.182 207.475 287.806 160.736 193.593 160.736C99.3792 160.736 23.0039 207.475 23.0039 265.13C23.0039 322.786 99.3792 369.524 193.593 369.524Z" fill="#F5F5F5"/>
<path d="M279.913 308.45C279.027 308.474 278.15 308.266 277.368 307.848L247.208 290.398C246.69 290.138 246.254 289.739 245.95 289.246C245.646 288.753 245.484 288.185 245.484 287.605C245.484 287.026 245.646 286.458 245.95 285.964C246.254 285.471 246.69 285.072 247.208 284.813L297.18 255.978C297.964 255.558 298.84 255.338 299.729 255.338C300.618 255.338 301.494 255.558 302.278 255.978L332.438 273.39C332.956 273.65 333.392 274.049 333.696 274.542C334 275.035 334.162 275.603 334.162 276.183C334.162 276.762 334 277.331 333.696 277.824C333.392 278.317 332.956 278.716 332.438 278.976L282.466 307.848C281.682 308.266 280.802 308.474 279.913 308.45Z" fill="#E0E0E0"/>
<path d="M216.531 346.626C212.727 346.639 208.934 346.207 205.231 345.338C201.762 344.543 198.41 343.306 195.256 341.658L195.187 341.619C194.578 341.277 193.801 340.812 192.795 340.187C191.789 339.562 190.89 338.975 189.899 338.328C188.909 337.68 187.964 337.047 187.095 336.445C186.226 335.844 185.487 335.325 184.969 334.921C182.546 333.098 180.562 330.754 179.163 328.063C177.78 325.347 177.35 322.245 177.943 319.255C178.668 316.049 180.248 313.099 182.515 310.72C184.862 308.091 188.154 305.676 192.574 303.337C197.038 300.916 201.765 299.016 206.663 297.675C210.835 296.535 215.133 295.918 219.457 295.839H219.838C223.584 295.818 227.316 296.303 230.933 297.279C234.336 298.22 237.625 299.533 240.74 301.195C241.934 301.861 243.221 302.646 244.603 303.55C246.005 304.464 247.179 305.287 248.185 306.065C249.87 307.219 251.224 308.795 252.109 310.637C252.797 312.156 253.032 313.841 252.787 315.49H253.122H253.336C254.703 315.472 256.04 315.897 257.146 316.702C257.854 317.193 258.41 317.874 258.748 318.666C259.087 319.459 259.194 320.331 259.058 321.183C258.846 322.502 258.536 323.804 258.129 325.076C257.514 326.892 256.574 328.581 255.355 330.06C253.866 331.874 252.17 333.508 250.303 334.929C244.004 339.628 236.854 343.061 229.249 345.041C225.176 346.045 221 346.574 216.805 346.618L216.531 346.626ZM213.856 320.802C213.994 320.901 214.146 321.007 214.321 321.114C215.506 321.929 216.866 322.451 218.291 322.638C218.535 322.638 218.771 322.676 218.992 322.676C219.547 322.682 220.099 322.592 220.623 322.409C220.501 322.318 220.364 322.227 220.212 322.128C219.01 321.3 217.637 320.756 216.196 320.535C215.963 320.505 215.729 320.49 215.495 320.489C214.935 320.497 214.38 320.603 213.856 320.802Z" fill="#E0E0E0"/>
<path d="M127.125 332.735L29.0331 276.225C26.9681 275.036 26.9681 273.101 29.0331 271.904L228.106 157.018C229.266 156.428 230.549 156.121 231.851 156.121C233.152 156.121 234.436 156.428 235.596 157.018L333.688 213.52C335.761 214.709 335.761 216.652 333.688 217.84L134.616 332.735C133.454 333.321 132.172 333.626 130.871 333.626C129.57 333.626 128.287 333.321 127.125 332.735Z" fill="#E0E0E0"/>
<path d="M120.549 45.2325L115.558 48.1129C115.584 47.8953 115.6 47.6766 115.604 47.4575V46.0097C115.604 43.4342 113.798 42.3902 111.565 43.678C110.609 44.2603 109.788 45.0396 109.157 45.964C108.791 42.7255 106.254 41.5216 103.168 43.297C101.411 44.4443 99.9489 45.9894 98.9003 47.8071C97.8518 49.6248 97.2463 51.6639 97.1328 53.7593V55.9234C97.1103 56.787 97.2849 57.6443 97.6434 58.4303L93.4981 60.823C92.8371 61.2548 92.2889 61.8383 91.8992 62.5249C91.5095 63.2115 91.2896 63.9813 91.2578 64.7702C91.2578 66.1951 92.2636 66.7742 93.4981 66.058L120.549 50.4446C121.201 50.02 121.744 49.4474 122.134 48.7735C122.523 48.0995 122.747 47.3432 122.789 46.566C122.789 45.0953 121.791 44.5162 120.549 45.2325Z" fill="#EBEBEB"/>
<path d="M87.5477 32.0042L84.7969 33.0634V26.9674C84.7969 22.1515 80.9869 21.0009 76.7959 23.4088C72.6278 25.8091 69.2521 31.6613 69.2521 36.4695V37.3382C68.6662 37.158 68.047 37.1131 67.4412 37.2068C66.8353 37.3006 66.2587 37.5304 65.7545 37.8792C64.1753 38.9104 62.8612 40.2991 61.9186 41.9327C60.9761 43.5663 60.4315 45.399 60.3291 47.2823V47.6785L56.5191 49.8959C55.4791 50.5757 54.6136 51.4907 53.9928 52.5669C53.372 53.6432 53.0131 54.8504 52.9453 56.091C52.9453 58.377 54.5455 59.2914 56.5191 58.1484L87.5782 40.2185C88.6191 39.5397 89.4851 38.6249 90.1061 37.5485C90.7271 36.4721 91.0854 35.2644 91.152 34.0235C91.1215 31.7527 89.5213 30.8307 87.5477 32.0042Z" fill="#EBEBEB"/>
<path d="M46.4303 254.165L51.6195 251.17C51.6195 251.17 54.7057 238.346 53.4788 226.786C51.7491 210.563 41.0658 204.46 37.0044 205.854C32.9429 207.249 31.7694 211.95 38.4903 221.643C42.4527 227.358 47.3219 239.268 46.4303 254.165Z" fill="#373873"/>
<g opacity="0.15">
<path d="M46.4303 254.165L51.6195 251.17C51.6195 251.17 54.7057 238.346 53.4788 226.786C51.7491 210.563 41.0658 204.46 37.0044 205.854C32.9429 207.249 31.7694 211.95 38.4903 221.643C42.4527 227.358 47.3219 239.268 46.4303 254.165Z" fill="black"/>
</g>
<path d="M48.5779 247.863H48.5322C48.4855 247.855 48.441 247.838 48.4011 247.812C48.3612 247.786 48.3268 247.753 48.2999 247.714C48.273 247.675 48.254 247.631 48.2442 247.585C48.2344 247.538 48.2338 247.491 48.2426 247.444C51.0544 232.471 45.8576 215.646 39.3882 208.658C39.3543 208.625 39.3274 208.585 39.3091 208.541C39.2907 208.498 39.2812 208.451 39.2812 208.403C39.2812 208.356 39.2907 208.308 39.3091 208.265C39.3274 208.221 39.3543 208.181 39.3882 208.148C39.4565 208.081 39.5481 208.044 39.6435 208.044C39.7388 208.044 39.8304 208.081 39.8987 208.148C46.4824 215.295 51.8164 232.41 48.9513 247.574C48.9381 247.661 48.8919 247.739 48.8224 247.793C48.7529 247.847 48.6654 247.872 48.5779 247.863Z" fill="white"/>
<path d="M32.1049 264.284C31.2819 264.703 29.1026 262.836 28.5006 262.387C27.4545 261.595 26.6326 260.544 26.1155 259.339C25.5365 257.981 25.3901 256.477 25.6964 255.033C25.8649 254.27 26.0838 253.519 26.3518 252.785C26.6032 252.062 26.8547 251.338 27.1138 250.606C27.4105 249.908 27.5609 249.155 27.5557 248.396C27.4338 246.872 26.146 245.752 24.9725 244.777C23.6771 243.702 22.3436 242.3 22.4427 240.487C22.6127 239.081 23.2422 237.771 24.2334 236.761C25.163 235.701 26.2451 234.779 27.0833 233.659C27.7358 232.88 28.1039 231.902 28.1272 230.886C28.0769 230.259 27.898 229.649 27.6014 229.095C26.9243 227.93 26.3384 226.715 25.8488 225.46C25.4678 224.165 25.6126 222.587 26.6108 221.726C27.0718 221.418 27.5892 221.204 28.1333 221.097C28.6774 220.99 29.2373 220.991 29.7808 221.102C30.8063 221.283 31.7808 221.684 32.6383 222.275C35.4424 224.028 36.9131 227.525 39.9154 228.912C41.1102 229.355 42.3318 229.721 43.573 230.009C44.1956 230.156 44.7805 230.432 45.2898 230.82C45.7991 231.207 46.2214 231.697 46.5295 232.257C47.5354 234.543 45.3103 237.218 45.9809 239.641C46.5752 241.79 48.5869 242.689 49.6385 244.655C50.0701 245.517 50.2092 246.496 50.0347 247.444C49.8534 249.04 49.3808 250.59 48.6403 252.016C47.8056 253.492 46.8792 254.915 45.8666 256.275C45.8666 256.275 32.2268 264.223 32.1049 264.284Z" fill="#373873"/>
<path d="M40.0449 260.147C39.9978 260.143 39.9519 260.13 39.9099 260.108C39.8679 260.086 39.8306 260.057 39.8001 260.021C39.7697 259.984 39.7467 259.943 39.7324 259.898C39.7182 259.852 39.713 259.805 39.7172 259.758C41.0278 245.524 35.0995 229.43 30.4437 224.615C30.3771 224.546 30.3398 224.455 30.3398 224.359C30.3398 224.264 30.3771 224.172 30.4437 224.104C30.477 224.07 30.5167 224.043 30.5605 224.025C30.6044 224.007 30.6514 223.997 30.6989 223.997C30.7464 223.997 30.7935 224.007 30.8373 224.025C30.8811 224.043 30.9209 224.07 30.9542 224.104C35.7015 229.034 41.7517 245.364 40.3878 259.842C40.3768 259.925 40.3361 260.002 40.2731 260.058C40.2101 260.114 40.1291 260.145 40.0449 260.147Z" fill="white"/>
<path d="M38.629 242.598C38.5938 242.605 38.5576 242.605 38.5224 242.598C35.1912 241.496 31.7492 240.762 28.2582 240.411C28.1632 240.399 28.0763 240.352 28.0153 240.278C27.9544 240.204 27.924 240.11 27.9306 240.014C27.9334 239.967 27.9458 239.921 27.9671 239.878C27.9884 239.835 28.0182 239.798 28.0545 239.767C28.0909 239.736 28.1331 239.714 28.1786 239.7C28.2241 239.686 28.2719 239.681 28.3192 239.687C31.8743 240.052 35.3796 240.801 38.7738 241.919C38.8508 241.953 38.9138 242.012 38.9524 242.086C38.991 242.161 39.0028 242.246 38.9859 242.329C38.9689 242.411 38.9242 242.485 38.8592 242.538C38.7942 242.591 38.713 242.62 38.629 242.62V242.598Z" fill="white"/>
<path d="M35.5238 272.621L126.72 325.267C128.162 326.1 129.791 326.553 131.456 326.584C133.121 326.614 134.766 326.222 136.237 325.442L319.841 219.456C322.737 217.787 325.076 214.046 325.084 211.074C325.091 208.102 322.737 204.399 319.841 202.73L228.98 150.289C227.358 149.466 225.564 149.038 223.745 149.038C221.926 149.038 220.133 149.466 218.51 150.289L35.5238 255.933C32.6282 257.609 30.2812 261.343 30.2812 264.277C30.2812 267.21 32.6282 270.952 35.5238 272.621Z" fill="#37474F"/>
<path d="M126.72 325.267L35.5238 272.62C32.6282 270.952 30.2812 267.218 30.2812 264.277C30.2812 261.335 32.6282 257.609 35.5238 255.933L131.681 200.406V326.57C129.94 326.59 128.226 326.14 126.72 325.267Z" fill="#263238"/>
<path d="M128.892 315.887C130.324 316.608 131.905 316.984 133.509 316.984C135.113 316.984 136.695 316.608 138.127 315.887L319.864 210.96C323.773 208.674 323.773 205.008 319.864 202.753L228.988 150.289C227.366 149.466 225.572 149.038 223.753 149.038C221.934 149.038 220.14 149.466 218.518 150.289L35.5314 255.933C32.651 257.602 32.651 260.322 35.5314 261.983L128.892 315.887Z" fill="#455A64"/>
<path d="M137.716 305.318C139.257 306.103 140.963 306.512 142.692 306.512C144.422 306.512 146.127 306.103 147.668 305.318L304.038 215.029C306.789 213.444 306.789 210.868 304.038 209.283L218.564 159.936C217.022 159.155 215.317 158.748 213.589 158.748C211.86 158.748 210.155 159.155 208.613 159.936L52.2275 250.218C49.4919 251.803 49.4919 254.386 52.2275 255.971L137.716 305.318Z" fill="#37474F"/>
<path d="M213.887 158.763C215.518 158.769 217.124 159.172 218.565 159.936L304.039 209.283C306.79 210.868 306.79 213.444 304.039 215.029L287.107 224.79L213.887 178.034V158.763Z" fill="#263238"/>
<path d="M208.549 163.67C210.092 162.889 211.796 162.481 213.525 162.481C215.254 162.481 216.959 162.889 218.501 163.67L303.99 213.017C304.478 213.292 304.918 213.645 305.293 214.061C304.932 214.447 304.513 214.773 304.051 215.029L147.666 305.318C146.124 306.103 144.419 306.512 142.69 306.512C140.96 306.512 139.255 306.103 137.714 305.318L52.2251 255.971C51.7395 255.699 51.3019 255.349 50.9297 254.935C51.287 254.546 51.7037 254.217 52.1641 253.959L208.549 163.67Z" fill="#FAFAFA"/>
<path d="M272.794 186.202L257.645 177.454C256.739 176.929 256.693 176.113 257.539 175.626C258.035 175.384 258.582 175.263 259.134 175.272C259.686 175.282 260.228 175.421 260.716 175.679L275.842 184.404C276.749 184.93 276.794 185.745 275.941 186.24C275.449 186.479 274.909 186.599 274.363 186.593C273.817 186.586 273.28 186.452 272.794 186.202Z" fill="#263238"/>
<path d="M246.789 171.206C246.603 171.143 246.442 171.023 246.328 170.864C246.214 170.705 246.152 170.514 246.152 170.318C246.152 170.122 246.214 169.931 246.328 169.772C246.442 169.613 246.603 169.493 246.789 169.43C247.262 169.194 247.784 169.07 248.313 169.07C248.842 169.07 249.364 169.194 249.837 169.43C250.023 169.493 250.184 169.613 250.298 169.772C250.412 169.931 250.474 170.122 250.474 170.318C250.474 170.514 250.412 170.705 250.298 170.864C250.184 171.023 250.023 171.143 249.837 171.206C249.364 171.442 248.842 171.566 248.313 171.566C247.784 171.566 247.262 171.442 246.789 171.206Z" fill="#263238"/>
<path d="M240.648 167.64C240.463 167.577 240.302 167.458 240.187 167.298C240.073 167.139 240.012 166.948 240.012 166.752C240.012 166.556 240.073 166.365 240.187 166.206C240.302 166.047 240.463 165.927 240.648 165.864C241.121 165.628 241.643 165.504 242.172 165.504C242.701 165.504 243.223 165.628 243.696 165.864C243.882 165.927 244.043 166.047 244.157 166.206C244.272 166.365 244.333 166.556 244.333 166.752C244.333 166.948 244.272 167.139 244.157 167.298C244.043 167.458 243.882 167.577 243.696 167.64C243.223 167.877 242.701 168 242.172 168C241.643 168 241.121 167.877 240.648 167.64Z" fill="#263238"/>
<path d="M289.781 196.024C289.596 195.961 289.434 195.842 289.32 195.683C289.206 195.523 289.145 195.332 289.145 195.136C289.145 194.94 289.206 194.749 289.32 194.59C289.434 194.431 289.596 194.311 289.781 194.249C290.254 194.012 290.776 193.889 291.305 193.889C291.834 193.889 292.356 194.012 292.829 194.249C293.015 194.311 293.176 194.431 293.29 194.59C293.404 194.749 293.466 194.94 293.466 195.136C293.466 195.332 293.404 195.523 293.29 195.683C293.176 195.842 293.015 195.961 292.829 196.024C292.356 196.261 291.834 196.384 291.305 196.384C290.776 196.384 290.254 196.261 289.781 196.024Z" fill="#263238"/>
<path d="M283.641 192.473C283.455 192.41 283.294 192.291 283.18 192.132C283.065 191.973 283.004 191.782 283.004 191.586C283.004 191.39 283.065 191.199 283.18 191.039C283.294 190.88 283.455 190.761 283.641 190.698C284.114 190.461 284.635 190.338 285.165 190.338C285.694 190.338 286.215 190.461 286.689 190.698C286.874 190.761 287.035 190.88 287.15 191.039C287.264 191.199 287.325 191.39 287.325 191.586C287.325 191.782 287.264 191.973 287.15 192.132C287.035 192.291 286.874 192.41 286.689 192.473C286.215 192.71 285.694 192.833 285.165 192.833C284.635 192.833 284.114 192.71 283.641 192.473Z" fill="#263238"/>
<path d="M133.898 280.103V280.415C133.912 280.703 133.994 280.984 134.137 281.234C134.28 281.484 134.48 281.697 134.721 281.856L152.514 292.127C152.772 292.255 153.057 292.321 153.345 292.321C153.633 292.321 153.917 292.255 154.175 292.127L183.642 275.135C183.882 274.976 184.081 274.763 184.224 274.512C184.367 274.262 184.45 273.982 184.465 273.695V273.367C184.451 273.079 184.369 272.798 184.226 272.548C184.083 272.298 183.883 272.085 183.642 271.927L165.849 261.655C165.591 261.527 165.307 261.461 165.019 261.461C164.73 261.461 164.446 261.527 164.188 261.655L134.721 278.663C134.48 278.821 134.28 279.034 134.137 279.284C133.994 279.535 133.912 279.815 133.898 280.103Z" fill="#373873"/>
<path d="M133.898 280.103V280.415C133.912 280.703 133.994 280.984 134.137 281.234C134.28 281.484 134.48 281.697 134.721 281.856L152.514 292.127C152.772 292.255 153.057 292.321 153.345 292.321C153.633 292.321 153.917 292.255 154.175 292.127L183.642 275.135C183.882 274.976 184.081 274.763 184.224 274.512C184.367 274.262 184.45 273.982 184.465 273.695V273.367C184.451 273.079 184.369 272.798 184.226 272.548C184.083 272.298 183.883 272.085 183.642 271.927L165.849 261.655C165.591 261.527 165.307 261.461 165.019 261.461C164.73 261.461 164.446 261.527 164.188 261.655L134.721 278.663C134.48 278.821 134.28 279.034 134.137 279.284C133.994 279.535 133.912 279.815 133.898 280.103Z" fill="#373873"/>
<path opacity="0.3" d="M183.641 271.927L165.848 261.655C165.59 261.527 165.306 261.461 165.018 261.461C164.73 261.461 164.445 261.527 164.187 261.655L153.352 267.919V292.303C153.641 292.307 153.926 292.239 154.182 292.105L183.641 275.135C183.881 274.976 184.081 274.763 184.224 274.512C184.367 274.262 184.449 273.982 184.464 273.695V273.367C184.45 273.079 184.368 272.798 184.225 272.548C184.082 272.298 183.882 272.085 183.641 271.927Z" fill="white"/>
<path opacity="0.15" d="M183.641 271.927L165.848 261.655C165.59 261.527 165.306 261.461 165.018 261.461C164.73 261.461 164.445 261.527 164.187 261.655L153.352 267.919V292.303C153.641 292.307 153.926 292.239 154.182 292.105L183.641 275.135C183.881 274.976 184.081 274.763 184.224 274.512C184.367 274.262 184.449 273.982 184.464 273.695V273.367C184.45 273.079 184.368 272.798 184.225 272.548C184.082 272.298 183.882 272.085 183.641 271.927Z" fill="black"/>
<path opacity="0.3" d="M153.345 267.919L134.721 278.663C134.48 278.821 134.28 279.034 134.137 279.285C133.994 279.535 133.912 279.815 133.898 280.103V280.416C133.912 280.704 133.994 280.984 134.137 281.235C134.28 281.485 134.48 281.698 134.721 281.856L152.514 292.128C152.77 292.263 153.056 292.331 153.345 292.326V267.919Z" fill="white"/>
<path opacity="0.2" d="M153.345 267.919L134.721 278.663C134.48 278.821 134.28 279.034 134.137 279.285C133.994 279.535 133.912 279.815 133.898 280.103V280.416C133.912 280.704 133.994 280.984 134.137 281.235C134.28 281.485 134.48 281.698 134.721 281.856L152.514 292.128C152.77 292.263 153.056 292.331 153.345 292.326V267.919Z" fill="black"/>
<path d="M149.662 288.249L134.72 279.654C134.621 279.618 134.536 279.553 134.475 279.467C134.415 279.381 134.383 279.279 134.383 279.174C134.383 279.069 134.415 278.966 134.475 278.88C134.536 278.795 134.621 278.729 134.72 278.694L164.179 261.686C164.437 261.558 164.721 261.492 165.009 261.492C165.297 261.492 165.581 261.558 165.84 261.686L183.64 271.927C183.739 271.963 183.824 272.028 183.884 272.114C183.944 272.2 183.977 272.302 183.977 272.407C183.977 272.512 183.944 272.614 183.884 272.7C183.824 272.786 183.739 272.851 183.64 272.887L178.748 275.707L177.041 276.697L154.181 289.895C153.924 290.027 153.639 290.095 153.35 290.095C153.062 290.095 152.777 290.027 152.52 289.895L151.072 289.057L149.662 288.249Z" fill="#373873"/>
<path opacity="0.3" d="M149.662 288.249L134.72 279.654C134.621 279.618 134.536 279.553 134.475 279.467C134.415 279.381 134.383 279.279 134.383 279.174C134.383 279.069 134.415 278.966 134.475 278.88C134.536 278.795 134.621 278.729 134.72 278.694L164.179 261.686C164.437 261.558 164.721 261.492 165.009 261.492C165.297 261.492 165.581 261.558 165.84 261.686L183.64 271.927C183.739 271.963 183.824 272.028 183.884 272.114C183.944 272.2 183.977 272.302 183.977 272.407C183.977 272.512 183.944 272.614 183.884 272.7C183.824 272.786 183.739 272.851 183.64 272.887L178.748 275.707L177.041 276.697L154.181 289.895C153.924 290.027 153.639 290.095 153.35 290.095C153.062 290.095 152.777 290.027 152.52 289.895L151.072 289.057L149.662 288.249Z" fill="white"/>
<path opacity="0.15" d="M163.229 273.916L183.643 271.927L163.419 273.07L165.85 261.64C165.569 261.5 165.257 261.435 164.943 261.449L161.133 276.88L134.395 279.09C134.395 279.199 134.427 279.306 134.486 279.398C134.546 279.49 134.63 279.563 134.73 279.608L156.325 278.358L153.353 290.078L157.163 278.305L160.851 278.091C161.302 278.066 161.73 277.886 162.063 277.581C162.375 277.298 162.59 276.925 162.68 276.514L163.229 273.916Z" fill="black"/>
<path opacity="0.3" d="M140.765 278.579L161.125 276.895L161.887 273.984L162.291 272.361L164.981 261.465C164.716 261.47 164.455 261.535 164.219 261.655L149.49 270.159L134.722 278.663C134.635 278.705 134.559 278.767 134.501 278.844C134.443 278.921 134.404 279.01 134.387 279.105L138.471 278.77L140.765 278.579Z" fill="white"/>
<path d="M161.644 259.224C162.688 258.695 163.842 258.419 165.012 258.419C166.183 258.419 167.337 258.695 168.381 259.224C170.24 260.299 170.24 262.036 168.381 263.111C167.337 263.64 166.183 263.916 165.012 263.916C163.842 263.916 162.688 263.64 161.644 263.111C159.785 262.036 159.785 260.299 161.644 259.224Z" fill="#F28F8F"/>
<path d="M162.657 261.807C162.608 261.803 162.561 261.787 162.52 261.762C162.505 261.75 162.494 261.735 162.488 261.717C162.481 261.7 162.479 261.681 162.482 261.663L162.764 260.443C162.764 260.443 162.764 260.375 162.764 260.329C162.781 260.282 162.817 260.244 162.863 260.223L163.549 259.826C163.593 259.801 163.643 259.788 163.693 259.788C163.747 259.787 163.799 259.8 163.846 259.826L167.458 261.907C167.476 261.912 167.493 261.924 167.505 261.94C167.517 261.955 167.523 261.974 167.523 261.994C167.523 262.014 167.517 262.033 167.505 262.049C167.493 262.065 167.476 262.076 167.458 262.082L166.696 262.509C166.646 262.521 166.593 262.521 166.543 262.509C166.493 262.521 166.441 262.521 166.391 262.509L163.952 261.099L163.792 261.769C163.792 261.807 163.754 261.83 163.709 261.853C163.656 261.869 163.601 261.869 163.549 261.853L162.657 261.807Z" fill="#FAFAFA"/>
<path d="M195.833 267.119L175.823 255.567C175.366 255.3 175.366 254.874 175.823 254.614L248.457 212.704C248.713 212.576 248.994 212.51 249.28 212.51C249.566 212.51 249.848 212.576 250.103 212.704L270.121 224.264C270.578 224.523 270.578 224.95 270.121 225.217L197.487 267.127C197.231 267.257 196.947 267.324 196.659 267.323C196.372 267.322 196.089 267.252 195.833 267.119Z" fill="#373873"/>
<path d="M192.023 254.066C191.961 254.102 191.89 254.12 191.818 254.119H191.658L187.497 253.647L189.958 255.072C189.976 255.079 189.992 255.092 190.003 255.108C190.014 255.124 190.019 255.144 190.019 255.163C190.019 255.183 190.014 255.202 190.003 255.218C189.992 255.234 189.976 255.247 189.958 255.255L189.471 255.536C189.419 255.553 189.363 255.553 189.311 255.536C189.259 255.552 189.203 255.552 189.151 255.536L185.287 253.311C185.242 253.311 185.219 253.25 185.219 253.212C185.221 253.192 185.229 253.174 185.241 253.157C185.253 253.141 185.269 253.129 185.287 253.121L185.706 252.877C185.769 252.842 185.84 252.823 185.912 252.824H186.08L190.24 253.296L187.771 251.871C187.753 251.864 187.738 251.851 187.727 251.835C187.716 251.818 187.71 251.799 187.71 251.78C187.71 251.76 187.716 251.741 187.727 251.725C187.738 251.709 187.753 251.696 187.771 251.688L188.259 251.406C188.309 251.381 188.364 251.368 188.419 251.368C188.475 251.367 188.53 251.38 188.579 251.406L192.443 253.639C192.467 253.639 192.49 253.649 192.507 253.666C192.524 253.683 192.534 253.706 192.534 253.731C192.534 253.755 192.524 253.778 192.507 253.795C192.49 253.812 192.467 253.822 192.443 253.822L192.023 254.066Z" fill="#FAFAFA"/>
<path d="M191.757 252.413C191.559 252.303 191.381 252.162 191.231 251.993C191.112 251.864 191.035 251.702 191.01 251.529C190.998 251.362 191.04 251.196 191.132 251.056C191.253 250.878 191.419 250.733 191.612 250.637C191.838 250.507 192.082 250.412 192.336 250.355C192.599 250.3 192.867 250.274 193.136 250.279C193.393 250.289 193.648 250.324 193.898 250.386C194.138 250.448 194.369 250.543 194.584 250.668L194.85 250.82C194.868 250.827 194.884 250.84 194.895 250.856C194.906 250.873 194.911 250.892 194.911 250.911C194.911 250.931 194.906 250.95 194.895 250.966C194.884 250.983 194.868 250.995 194.85 251.003L192.854 252.161C192.949 252.214 193.052 252.25 193.159 252.268C193.268 252.279 193.377 252.279 193.486 252.268C193.597 252.252 193.706 252.229 193.814 252.199C193.915 252.167 194.012 252.123 194.104 252.07C194.204 252.017 194.297 251.951 194.378 251.871C194.426 251.823 194.46 251.762 194.477 251.696C194.485 251.66 194.5 251.626 194.523 251.597C194.548 251.567 194.579 251.541 194.614 251.521L195.094 251.247C195.144 251.221 195.199 251.208 195.254 251.209C195.31 251.203 195.367 251.216 195.414 251.247C195.476 251.287 195.52 251.35 195.536 251.422C195.567 251.519 195.567 251.622 195.536 251.719C195.494 251.858 195.421 251.986 195.323 252.092C195.181 252.252 195.014 252.386 194.827 252.489C194.6 252.614 194.356 252.709 194.104 252.771C193.841 252.827 193.572 252.852 193.303 252.847C193.046 252.831 192.79 252.788 192.541 252.717C192.269 252.648 192.005 252.545 191.757 252.413ZM192.328 251.049C192.235 251.099 192.153 251.166 192.084 251.247C192.041 251.304 192.014 251.373 192.008 251.445C192.007 251.507 192.026 251.569 192.061 251.62C192.092 251.678 192.136 251.728 192.191 251.765L193.54 251.003C193.466 250.969 193.389 250.941 193.311 250.919C193.217 250.891 193.12 250.876 193.022 250.873C192.911 250.875 192.802 250.888 192.694 250.911C192.567 250.944 192.445 250.99 192.328 251.049Z" fill="#FAFAFA"/>
<path d="M198.591 248.816L197.425 247.513C197.402 247.489 197.387 247.46 197.379 247.429C197.379 247.429 197.379 247.368 197.448 247.338L197.897 247.071C197.949 247.045 198.007 247.032 198.065 247.033C198.121 247.033 198.175 247.046 198.225 247.071L200.084 249.182C200.105 249.209 200.121 249.24 200.13 249.273C200.13 249.273 200.13 249.334 200.061 249.372L199.604 249.631C199.554 249.662 199.495 249.675 199.437 249.669H199.277L197.105 249.083L198.118 250.34C198.139 250.367 198.155 250.398 198.164 250.431C198.164 250.431 198.164 250.492 198.095 250.523L197.646 250.789C197.595 250.819 197.537 250.833 197.478 250.828C197.425 250.835 197.371 250.835 197.318 250.828L193.661 249.761C193.661 249.761 193.661 249.761 193.615 249.761C193.591 249.761 193.567 249.751 193.55 249.734C193.533 249.717 193.523 249.694 193.523 249.669C193.523 249.645 193.533 249.622 193.55 249.605C193.567 249.587 193.591 249.578 193.615 249.578L194.064 249.311C194.115 249.281 194.174 249.268 194.232 249.273H194.377L196.625 249.944L195.489 248.625C195.484 248.612 195.481 248.598 195.481 248.583C195.481 248.569 195.484 248.555 195.489 248.542C195.488 248.522 195.494 248.502 195.505 248.486C195.516 248.469 195.532 248.457 195.55 248.45L196.008 248.183C196.06 248.17 196.115 248.17 196.168 248.183C196.218 248.175 196.27 248.175 196.32 248.183L198.591 248.816Z" fill="#FAFAFA"/>
<path d="M201.296 246.888C201.098 246.776 200.92 246.632 200.77 246.461C200.65 246.333 200.572 246.17 200.549 245.996C200.527 245.832 200.568 245.666 200.663 245.531C200.788 245.354 200.952 245.208 201.143 245.105C201.382 244.974 201.639 244.879 201.905 244.823C202.156 244.773 202.411 244.748 202.667 244.747C202.925 244.756 203.18 244.794 203.429 244.861C203.67 244.918 203.901 245.01 204.115 245.135L204.382 245.288C204.427 245.318 204.45 245.349 204.45 245.379C204.45 245.417 204.45 245.448 204.382 245.478L202.385 246.629C202.476 246.683 202.577 246.72 202.682 246.735C202.791 246.747 202.901 246.747 203.01 246.735C203.124 246.727 203.237 246.704 203.345 246.667C203.447 246.638 203.545 246.594 203.635 246.537C203.737 246.488 203.83 246.421 203.909 246.339C203.954 246.291 203.988 246.234 204.008 246.172C204.014 246.134 204.027 246.098 204.046 246.065C204.072 246.033 204.107 246.009 204.145 245.996L204.625 245.714C204.675 245.689 204.73 245.677 204.785 245.677C204.841 245.677 204.896 245.689 204.945 245.714C205.004 245.761 205.046 245.825 205.067 245.897C205.098 245.994 205.098 246.098 205.067 246.194C205.018 246.33 204.946 246.456 204.854 246.568C204.709 246.724 204.539 246.856 204.351 246.956C204.125 247.086 203.881 247.181 203.627 247.238C203.377 247.296 203.121 247.321 202.865 247.315C202.592 247.306 202.32 247.262 202.058 247.185C201.791 247.12 201.535 247.02 201.296 246.888ZM201.867 245.524C201.771 245.57 201.688 245.638 201.623 245.722C201.575 245.777 201.548 245.847 201.547 245.92C201.543 245.982 201.559 246.043 201.593 246.095C201.63 246.146 201.674 246.192 201.722 246.232L203.079 245.47C203.002 245.436 202.923 245.408 202.842 245.387C202.75 245.362 202.656 245.349 202.56 245.349C202.45 245.343 202.339 245.356 202.233 245.387C202.102 245.417 201.978 245.471 201.867 245.547V245.524Z" fill="#FAFAFA"/>
<path d="M204.405 243.665C204.388 243.539 204.418 243.411 204.489 243.306C204.572 243.181 204.684 243.079 204.817 243.009C205.051 242.87 205.31 242.777 205.579 242.735C205.832 242.699 206.088 242.699 206.341 242.735C206.326 242.659 206.326 242.582 206.341 242.506C206.354 242.423 206.382 242.343 206.425 242.27C206.469 242.191 206.526 242.119 206.592 242.057C206.665 241.99 206.744 241.932 206.829 241.881C207.039 241.758 207.268 241.67 207.507 241.622C207.728 241.58 207.953 241.567 208.177 241.584C208.398 241.605 208.616 241.654 208.825 241.729C209.028 241.803 209.224 241.895 209.412 242.003L211.027 242.933C211.045 242.942 211.06 242.956 211.07 242.972C211.08 242.989 211.086 243.008 211.086 243.028C211.086 243.048 211.08 243.067 211.07 243.084C211.06 243.101 211.045 243.115 211.027 243.123L210.57 243.383C210.52 243.408 210.466 243.421 210.41 243.421C210.352 243.421 210.294 243.408 210.242 243.383L208.665 242.468C208.446 242.333 208.198 242.252 207.941 242.232C207.732 242.232 207.527 242.287 207.347 242.392C207.28 242.42 207.222 242.465 207.178 242.523C207.134 242.58 207.105 242.648 207.095 242.72C207.095 242.842 207.202 242.986 207.453 243.139L209.061 244.068C209.085 244.068 209.109 244.078 209.126 244.095C209.143 244.112 209.153 244.136 209.153 244.16C209.153 244.184 209.143 244.207 209.126 244.224C209.109 244.242 209.085 244.251 209.061 244.251L208.604 244.518C208.555 244.545 208.5 244.558 208.444 244.556C208.388 244.556 208.334 244.543 208.284 244.518L206.707 243.604C206.49 243.462 206.241 243.381 205.983 243.367C205.773 243.359 205.566 243.415 205.388 243.527C205.319 243.555 205.259 243.601 205.213 243.66C205.168 243.719 205.139 243.789 205.129 243.863C205.129 243.992 205.251 244.137 205.526 244.289L207.103 245.196C207.12 245.207 207.135 245.221 207.145 245.238C207.156 245.256 207.162 245.275 207.164 245.295C207.162 245.314 207.156 245.333 207.145 245.349C207.134 245.365 207.12 245.378 207.103 245.387L206.646 245.646C206.596 245.671 206.541 245.683 206.486 245.683C206.43 245.683 206.375 245.671 206.326 245.646L203.537 244.038C203.512 244.038 203.489 244.028 203.472 244.011C203.455 243.994 203.445 243.971 203.445 243.946C203.445 243.922 203.455 243.899 203.472 243.882C203.489 243.865 203.512 243.855 203.537 243.855L203.994 243.588C204.043 243.562 204.098 243.548 204.154 243.55C204.21 243.55 204.264 243.563 204.314 243.588L204.405 243.665Z" fill="#FAFAFA"/>
<path d="M209.593 241.211C209.525 241.149 209.471 241.074 209.433 240.99C209.402 240.893 209.402 240.789 209.433 240.693C209.461 240.565 209.522 240.447 209.609 240.35C209.737 240.203 209.892 240.081 210.066 239.991C210.266 239.878 210.478 239.786 210.698 239.717C210.912 239.659 211.132 239.623 211.354 239.61C211.577 239.602 211.801 239.628 212.017 239.687C212.24 239.741 212.456 239.826 212.657 239.938L214.417 240.952C214.434 240.962 214.448 240.977 214.459 240.994C214.47 241.011 214.476 241.031 214.478 241.051C214.477 241.07 214.471 241.089 214.46 241.105C214.449 241.121 214.434 241.134 214.417 241.142L213.96 241.401C213.911 241.43 213.856 241.443 213.8 241.439C213.743 241.445 213.687 241.431 213.64 241.401L213.441 241.287C213.469 241.418 213.445 241.555 213.373 241.668C213.253 241.848 213.087 241.992 212.893 242.087C212.728 242.185 212.551 242.262 212.367 242.316C212.193 242.365 212.014 242.393 211.834 242.399C211.662 242.4 211.491 242.385 211.323 242.354C211.166 242.317 211.014 242.258 210.874 242.178C210.599 242.018 210.485 241.836 210.523 241.637C210.598 241.376 210.763 241.15 210.988 240.997L211.796 240.342C211.643 240.247 211.462 240.21 211.285 240.235C211.108 240.258 210.937 240.315 210.782 240.403C210.708 240.443 210.644 240.497 210.592 240.563C210.566 240.613 210.55 240.667 210.546 240.723C210.55 240.756 210.55 240.789 210.546 240.822C210.523 240.848 210.494 240.869 210.462 240.883L209.906 241.211C209.861 241.223 209.814 241.223 209.769 241.211C209.743 241.229 209.712 241.238 209.681 241.238C209.65 241.238 209.619 241.229 209.593 241.211ZM212.276 241.607C212.39 241.543 212.493 241.461 212.58 241.363C212.643 241.295 212.682 241.21 212.695 241.119C212.701 241.044 212.682 240.969 212.641 240.906C212.593 240.833 212.528 240.773 212.451 240.731L212.39 240.693L211.719 241.249C211.617 241.315 211.537 241.41 211.491 241.523C211.491 241.592 211.491 241.66 211.597 241.714C211.698 241.75 211.809 241.75 211.91 241.714C212.037 241.697 212.16 241.661 212.276 241.607Z" fill="#FAFAFA"/>
<path d="M211.751 237.744C211.801 237.719 211.855 237.706 211.911 237.706C211.967 237.706 212.021 237.719 212.071 237.744L212.536 238.011C212.554 238.018 212.57 238.031 212.582 238.047C212.594 238.063 212.602 238.082 212.604 238.102C212.604 238.14 212.604 238.171 212.536 238.201L212.025 238.498C211.976 238.523 211.921 238.536 211.865 238.536C211.807 238.537 211.75 238.524 211.698 238.498L211.233 238.224C211.215 238.216 211.199 238.204 211.189 238.187C211.178 238.171 211.172 238.152 211.172 238.132C211.172 238.113 211.178 238.094 211.189 238.077C211.199 238.061 211.215 238.049 211.233 238.041L211.751 237.744ZM215.965 240.03C216.011 240.03 216.033 240.091 216.033 240.129C216.033 240.167 216.033 240.19 215.965 240.22L215.508 240.479C215.458 240.505 215.403 240.519 215.348 240.517C215.292 240.521 215.236 240.508 215.188 240.479L212.399 238.872C212.381 238.863 212.366 238.85 212.356 238.834C212.345 238.818 212.339 238.799 212.338 238.78C212.337 238.76 212.342 238.741 212.353 238.724C212.364 238.708 212.38 238.695 212.399 238.689L212.856 238.422C212.905 238.397 212.96 238.384 213.016 238.384C213.072 238.382 213.127 238.395 213.176 238.422L215.965 240.03Z" fill="#FAFAFA"/>
<path d="M217.567 239.123C217.585 239.131 217.601 239.143 217.612 239.16C217.622 239.176 217.628 239.195 217.628 239.215C217.628 239.234 217.622 239.253 217.612 239.269C217.601 239.286 217.585 239.298 217.567 239.306L217.118 239.573C217.068 239.598 217.013 239.611 216.958 239.611C216.899 239.612 216.842 239.599 216.79 239.573L212.866 237.287C212.848 237.276 212.834 237.262 212.823 237.244C212.813 237.227 212.806 237.208 212.805 237.188C212.806 237.168 212.813 237.15 212.823 237.134C212.834 237.118 212.849 237.105 212.866 237.096L213.323 236.837C213.375 236.821 213.431 236.821 213.483 236.837C213.538 236.821 213.596 236.821 213.651 236.837L217.567 239.123Z" fill="#FAFAFA"/>
<path d="M193.846 257.281L253.115 223.068C253.472 222.859 253.873 222.738 254.286 222.712C254.699 222.687 255.112 222.759 255.492 222.923C256.079 223.258 255.964 223.875 255.241 224.294L195.972 258.516C195.613 258.724 195.211 258.845 194.797 258.87C194.383 258.895 193.969 258.824 193.587 258.661C193 258.318 193.122 257.708 193.846 257.281Z" fill="#FAFAFA"/>
<path d="M198.007 259.689L257.275 225.475C257.632 225.266 258.033 225.144 258.446 225.117C258.859 225.091 259.272 225.161 259.653 225.323C260.247 225.666 260.125 226.276 259.401 226.702L200.133 260.916C199.775 261.125 199.373 261.248 198.959 261.274C198.545 261.301 198.13 261.23 197.748 261.068C197.169 260.726 197.283 260.108 198.007 259.689Z" fill="#FAFAFA"/>
<path d="M110.019 281.894L79.0664 264.025L217.72 183.97L249.305 201.48L110.019 281.894Z" fill="#E0E0E0"/>
<path d="M101.645 170.482L233.516 94.3433L238.789 97.3913C239.51 97.8637 240.111 98.4986 240.542 99.2449C240.973 99.9913 241.224 100.828 241.273 101.689V198.966C241.225 199.827 240.975 200.664 240.544 201.411C240.112 202.157 239.511 202.792 238.789 203.264L111.886 276.537C111.116 276.925 110.267 277.126 109.405 277.126C108.544 277.126 107.695 276.925 106.925 276.537L104.129 274.922C103.408 274.45 102.807 273.815 102.376 273.068C101.945 272.322 101.694 271.485 101.645 270.624V170.482Z" fill="#373873"/>
<path opacity="0.2" d="M101.645 170.482L233.516 94.3433L238.789 97.3913C239.51 97.8637 240.111 98.4986 240.542 99.2449C240.973 99.9913 241.224 100.828 241.273 101.689V198.966C241.225 199.827 240.975 200.664 240.544 201.411C240.112 202.157 239.511 202.792 238.789 203.264L111.886 276.537C111.116 276.925 110.267 277.126 109.405 277.126C108.544 277.126 107.695 276.925 106.925 276.537L104.129 274.922C103.408 274.45 102.807 273.815 102.376 273.068C101.945 272.322 101.694 271.485 101.645 270.624V170.482Z" fill="black"/>
<path d="M232.785 85.7937L233.326 85.5042L231.276 84.3078C231.103 84.2053 230.922 84.1161 230.735 84.0411L172.701 62.5451C171.903 62.285 171.044 62.2818 170.244 62.5361C169.444 62.7904 168.744 63.2893 168.243 63.9625L103.321 158.77C102.31 160.401 101.733 162.264 101.645 164.181V170.482L103.656 171.648L233.516 94.3434V88.0493C233.492 87.2431 233.238 86.4606 232.785 85.7937Z" fill="#373873"/>
<path opacity="0.1" d="M170.926 64.4193C170.67 64.6256 170.444 64.8667 170.255 65.1355L105.333 159.936C104.797 160.775 104.391 161.689 104.129 162.649L102.109 161.483C102.254 160.994 102.429 160.516 102.635 160.05C102.634 160.035 102.634 160.02 102.635 160.005C102.727 159.806 102.818 159.624 102.917 159.433C102.929 159.401 102.945 159.37 102.963 159.342C103.066 159.145 103.18 158.954 103.306 158.77L168.243 64.0078C168.34 63.8677 168.447 63.7352 168.563 63.6115C168.678 63.5049 168.792 63.3906 168.914 63.2915L170.926 64.4193Z" fill="black"/>
<path opacity="0.35" d="M233.303 85.4889C233.127 85.3817 232.941 85.2924 232.747 85.2222L174.705 63.7109C174.062 63.4951 173.375 63.4469 172.708 63.5709C172.042 63.6949 171.418 63.987 170.895 64.4196L168.914 63.2461C169.438 62.8167 170.062 62.5267 170.728 62.4028C171.394 62.2789 172.081 62.3252 172.724 62.5374L230.735 84.0487C230.923 84.1206 231.105 84.2098 231.276 84.3154L233.303 85.4889Z" fill="white"/>
<path d="M102.648 160.02C102.732 159.822 102.831 159.632 102.923 159.449C102.869 159.616 102.732 159.807 102.648 160.02Z" fill="#373873"/>
<path d="M170.254 65.1359L105.332 159.936C104.314 161.568 103.729 163.433 103.633 165.354V171.648L235.505 95.5092V89.2151C235.464 88.3552 235.181 87.5243 234.689 86.8179C234.197 86.1115 233.516 85.5584 232.723 85.2222L174.712 63.7186C173.915 63.4548 173.054 63.4499 172.254 63.7044C171.453 63.959 170.753 64.46 170.254 65.1359Z" fill="#373873"/>
<path opacity="0.05" d="M235.527 89.215C235.502 88.4244 235.256 87.6566 234.819 86.9976L104.128 162.649C103.837 163.523 103.67 164.434 103.633 165.354V171.648L235.505 95.5091L235.527 89.215Z" fill="black"/>
<path d="M229.896 62.4841C229.922 62.2204 229.879 61.9544 229.77 61.7126C229.662 61.4707 229.493 61.2612 229.279 61.1048L225.248 58.8188C225.003 58.7075 224.733 58.6629 224.465 58.6897C224.198 58.7165 223.942 58.8136 223.724 58.9712L115.52 121.455C114.897 121.862 114.378 122.41 114.006 123.055C113.634 123.7 113.419 124.423 113.379 125.166V254.706C113.352 254.972 113.396 255.24 113.506 255.483C113.615 255.727 113.787 255.937 114.003 256.093L118.019 258.379C118.263 258.491 118.533 258.537 118.801 258.512C119.068 258.486 119.324 258.391 119.543 258.234L227.747 195.788C228.378 195.377 228.903 194.82 229.276 194.166C229.65 193.511 229.862 192.777 229.896 192.024V62.4841Z" fill="#373873"/>
<path opacity="0.95" d="M229.896 62.4841C229.922 62.2204 229.879 61.9544 229.77 61.7126C229.662 61.4707 229.493 61.2612 229.279 61.1048L225.248 58.8188C225.003 58.7075 224.733 58.6629 224.465 58.6897C224.198 58.7165 223.942 58.8136 223.724 58.9712L115.52 121.455C114.897 121.862 114.378 122.41 114.006 123.055C113.634 123.7 113.419 124.423 113.379 125.166V254.706C113.352 254.972 113.396 255.24 113.506 255.483C113.615 255.727 113.787 255.937 114.003 256.093L118.019 258.379C118.263 258.491 118.533 258.537 118.801 258.512C119.068 258.486 119.324 258.391 119.543 258.234L227.747 195.788C228.378 195.377 228.903 194.82 229.276 194.166C229.65 193.511 229.862 192.777 229.896 192.024V62.4841Z" fill="white"/>
<path d="M119.59 258.188L227.794 195.743C228.411 195.33 228.923 194.779 229.288 194.133C229.653 193.487 229.862 192.765 229.898 192.024V62.484C229.898 61.12 228.937 60.5713 227.756 61.2495L119.59 123.734C118.968 124.141 118.449 124.689 118.077 125.334C117.705 125.978 117.49 126.701 117.449 127.444V256.984C117.449 258.318 118.409 258.867 119.59 258.188Z" fill="#373873"/>
<path opacity="0.8" d="M119.59 258.188L227.794 195.743C228.411 195.33 228.923 194.779 229.288 194.133C229.653 193.487 229.862 192.765 229.898 192.024V62.484C229.898 61.12 228.937 60.5713 227.756 61.2495L119.59 123.734C118.968 124.141 118.449 124.689 118.077 125.334C117.705 125.978 117.49 126.701 117.449 127.444V256.984C117.449 258.318 118.409 258.867 119.59 258.188Z" fill="white"/>
<path d="M117.446 256.947C117.426 257.189 117.46 257.433 117.547 257.66C117.634 257.887 117.772 258.091 117.949 258.257C117.225 257.846 114.421 256.215 114.063 256.017C113.843 255.866 113.668 255.658 113.556 255.415C113.445 255.172 113.402 254.903 113.431 254.638V125.098C113.455 124.354 113.673 123.629 114.063 122.995L118.079 125.281C117.689 125.921 117.472 126.65 117.446 127.399V256.947Z" fill="#373873"/>
<path opacity="0.7" d="M117.446 256.947C117.426 257.189 117.46 257.433 117.547 257.66C117.634 257.887 117.772 258.091 117.949 258.257C117.225 257.846 114.421 256.215 114.063 256.017C113.843 255.866 113.668 255.658 113.556 255.415C113.445 255.172 113.402 254.903 113.431 254.638V125.098C113.455 124.354 113.673 123.629 114.063 122.995L118.079 125.281C117.689 125.921 117.472 126.65 117.446 127.399V256.947Z" fill="white"/>
<path opacity="0.05" d="M117.446 256.947C117.426 257.189 117.46 257.433 117.547 257.66C117.634 257.887 117.772 258.091 117.949 258.257C117.225 257.846 114.421 256.215 114.063 256.017C113.843 255.866 113.668 255.658 113.556 255.415C113.445 255.172 113.402 254.903 113.431 254.638V125.098C113.455 124.354 113.673 123.629 114.063 122.995L118.079 125.281C117.689 125.921 117.472 126.65 117.446 127.399V256.947Z" fill="black"/>
<path d="M237.926 200.262C237.888 200.333 237.842 200.399 237.789 200.46L182.834 183.033C180.746 182.11 178.395 181.971 176.214 182.643C174.033 183.316 172.168 184.753 170.962 186.69L112.211 274.008L110.04 275.265C109.798 275.434 109.518 275.54 109.225 275.572C108.932 275.604 108.636 275.561 108.363 275.448L168.782 185.448C169.991 183.511 171.857 182.074 174.039 181.401C176.221 180.728 178.572 180.864 180.662 181.783L237.926 200.262Z" fill="#373873"/>
<path opacity="0.4" d="M165.551 195.263L165.688 195.141L112.211 274.008L110.032 275.265C109.788 275.433 109.507 275.538 109.214 275.571C108.92 275.604 108.622 275.565 108.348 275.456L163.448 193.99L165.551 195.263Z" fill="white"/>
<path opacity="0.4" d="M237.929 200.269C237.889 200.339 237.843 200.405 237.792 200.467L182.836 183.033C180.748 182.106 178.395 181.965 176.212 182.638C174.029 183.31 172.162 184.749 170.957 186.69L168.785 185.425C169.996 183.494 171.861 182.064 174.039 181.395C176.218 180.726 178.564 180.864 180.65 181.783L237.929 200.269Z" fill="white"/>
<path d="M241.227 101.064C241.105 100.356 240.731 100.157 240.244 100.493C240 100.677 239.786 100.898 239.611 101.148L239.337 101.529L185.105 183.977L177.013 195.255C176.491 195.913 175.799 196.416 175.012 196.71C174.225 197.004 173.373 197.078 172.548 196.924L165.56 195.263L112.22 175.626C111.863 175.54 111.493 175.524 111.13 175.58C110.992 175.612 110.857 175.655 110.727 175.71L112.738 174.552L163.891 193.297L170.627 195.705C171.453 195.862 172.305 195.788 173.092 195.493C173.878 195.197 174.568 194.69 175.085 194.028L183.185 182.758L237.676 99.9289C237.845 99.7046 238.054 99.5134 238.293 99.365L233.576 96.6447L235.557 95.5093L238.819 97.3914C239.444 97.8133 239.978 98.3554 240.392 98.9859C240.805 99.6165 241.089 100.323 241.227 101.064Z" fill="#373873"/>
<path opacity="0.4" d="M185.096 183.97L176.996 195.255C176.475 195.912 175.784 196.414 174.999 196.708C174.213 197.002 173.363 197.077 172.538 196.924L165.551 195.263L165.688 195.141L166.023 194.608L170.595 195.697C171.42 195.855 172.272 195.783 173.058 195.489C173.845 195.194 174.535 194.689 175.053 194.028L183.077 182.88L185.096 183.97Z" fill="white"/>
<path opacity="0.1" d="M238.788 97.3838L235.526 95.5093L233.553 96.6447L238.262 99.365C238.023 99.5134 237.814 99.7046 237.645 99.9289L183.147 182.758L183.07 182.865L185.09 183.962L239.314 101.521L239.595 101.133C239.766 100.881 239.98 100.662 240.228 100.485C240.708 100.15 241.089 100.34 241.203 101.057C241.067 100.314 240.783 99.6064 240.368 98.9755C239.953 98.3446 239.416 97.8034 238.788 97.3838Z" fill="black"/>
<path d="M113.28 177.203L101.645 170.482V270.624C101.694 271.485 101.945 272.322 102.376 273.068C102.807 273.815 103.408 274.45 104.129 274.922L106.925 276.538C107.695 276.925 108.544 277.127 109.405 277.127C110.267 277.127 111.116 276.925 111.886 276.538L113.28 275.73V177.203Z" fill="#373873"/>
<path opacity="0.15" d="M113.28 177.203L101.645 170.482V270.624C101.694 271.485 101.945 272.322 102.376 273.068C102.807 273.815 103.408 274.45 104.129 274.922L106.925 276.538C107.695 276.925 108.544 277.127 109.405 277.127C110.267 277.127 111.116 276.925 111.886 276.538L113.28 275.73V177.203Z" fill="black"/>
<path d="M241.272 101.689V198.966C241.244 199.854 240.981 200.719 240.51 201.473C240.141 202.112 239.646 202.67 239.055 203.111L238.956 203.157L238.803 203.263L111.884 276.53C111.642 276.702 111.36 276.81 111.064 276.845C110.768 276.88 110.469 276.839 110.193 276.728C109.979 276.606 109.799 276.434 109.666 276.227C109.533 276.02 109.452 275.784 109.431 275.539C109.419 275.392 109.419 275.244 109.431 275.097V177.82C109.409 177.472 109.472 177.124 109.615 176.805C109.757 176.486 109.975 176.207 110.25 175.991C110.524 175.776 110.846 175.63 111.19 175.566C111.533 175.502 111.886 175.523 112.22 175.626L165.56 195.262L172.547 196.924C173.373 197.078 174.225 197.004 175.012 196.71C175.799 196.416 176.49 195.913 177.013 195.255L185.105 183.977L239.337 101.529L239.611 101.148C240.525 99.8677 241.272 100.112 241.272 101.689Z" fill="#373873"/>
<path d="M238.796 203.264C238.851 203.235 238.905 203.201 238.956 203.165L239.047 203.104C239.639 202.669 240.134 202.116 240.503 201.481C240.964 200.737 241.227 199.886 241.265 199.012L185.098 183.978L222.71 212.545L238.796 203.264Z" fill="#373873"/>
<path opacity="0.2" d="M238.796 203.264C238.851 203.235 238.905 203.201 238.956 203.165L239.047 203.104C239.639 202.669 240.134 202.116 240.503 201.481C240.964 200.737 241.227 199.886 241.265 199.012L185.098 183.978L222.71 212.545L238.796 203.264Z" fill="black"/>
<path d="M109.399 275.082C109.361 275.398 109.412 275.718 109.546 276.007C109.681 276.295 109.894 276.539 110.161 276.713C110.436 276.826 110.736 276.868 111.031 276.834C111.327 276.801 111.61 276.694 111.853 276.522L155.546 251.3L165.528 195.255L109.407 273.482L109.399 275.082Z" fill="#373873"/>
<path opacity="0.15" d="M170.939 186.69L110.177 276.728C109.91 276.555 109.697 276.31 109.562 276.022C109.427 275.733 109.376 275.413 109.415 275.097V273.482L168.767 185.456L170.939 186.69Z" fill="black"/>
<path d="M240.505 201.481C240.137 202.116 239.641 202.669 239.05 203.104L238.958 203.165L111.887 276.53C111.644 276.702 111.361 276.809 111.066 276.842C110.77 276.876 110.471 276.834 110.195 276.721L170.95 186.69C172.163 184.744 174.037 183.3 176.229 182.622C178.42 181.945 180.782 182.08 182.882 183.002L240.505 201.481Z" fill="#373873"/>
<path opacity="0.15" d="M102.109 161.483L104.128 162.649C103.835 163.523 103.668 164.434 103.633 165.354V171.641L101.613 170.475V164.181C101.65 163.263 101.816 162.355 102.109 161.483Z" fill="black"/>
<path d="M112.716 174.552L110.705 175.71L108.663 174.536L103.656 171.648L105.599 170.49L112.716 174.552Z" fill="#373873"/>
<path opacity="0.1" d="M112.777 174.59L105.576 170.49L103.633 171.648L108.639 174.536L110.681 175.71C110.803 175.653 110.931 175.612 111.062 175.588C111.422 175.525 111.79 175.538 112.144 175.626L116.198 177.15L162.779 194.303L163.541 193.221L112.777 174.59Z" fill="black"/>
<path d="M313.336 147.439L340.295 130.172L352.167 133.982L313.336 147.439Z" fill="#373873"/>
<path d="M313.336 147.439L336.638 128.008L331.456 122.026L313.336 147.439Z" fill="#373873"/>
<path d="M336.638 128.008V132.512L313.336 147.439L336.638 128.008Z" fill="#373873"/>
<path opacity="0.25" d="M336.638 128.008V132.512L313.336 147.439L336.638 128.008Z" fill="black"/>
<path d="M342.137 125.394C342.027 125.395 341.919 125.373 341.819 125.328C341.719 125.283 341.63 125.218 341.558 125.135C341.492 125.059 341.441 124.971 341.41 124.875C341.378 124.779 341.366 124.677 341.373 124.577C341.381 124.476 341.409 124.378 341.455 124.288C341.501 124.198 341.564 124.118 341.642 124.053C342.106 123.649 342.571 123.23 343.021 122.804C343.169 122.681 343.358 122.619 343.55 122.631C343.742 122.642 343.923 122.725 344.056 122.864C344.189 123.003 344.265 123.187 344.268 123.379C344.271 123.572 344.201 123.758 344.072 123.901C343.6 124.351 343.128 124.785 342.632 125.212C342.494 125.33 342.319 125.394 342.137 125.394Z" fill="#E0E0E0"/>
<path d="M346.17 121.402C345.985 121.401 345.806 121.334 345.667 121.211C345.516 121.078 345.423 120.89 345.411 120.688C345.398 120.487 345.465 120.288 345.599 120.137C346.361 119.222 347.176 118.255 347.885 117.256C347.944 117.176 348.019 117.108 348.105 117.056C348.191 117.005 348.286 116.97 348.385 116.955C348.484 116.941 348.585 116.945 348.682 116.97C348.779 116.994 348.871 117.037 348.951 117.096C349.032 117.156 349.1 117.231 349.152 117.317C349.203 117.402 349.237 117.498 349.252 117.597C349.267 117.696 349.262 117.797 349.238 117.894C349.214 117.991 349.171 118.083 349.111 118.163C348.349 119.2 347.542 120.198 346.719 121.143C346.65 121.221 346.566 121.285 346.471 121.329C346.377 121.374 346.274 121.398 346.17 121.402ZM350.635 115.367C350.495 115.366 350.358 115.326 350.239 115.252C350.154 115.199 350.08 115.13 350.022 115.049C349.963 114.967 349.922 114.875 349.899 114.777C349.876 114.68 349.873 114.578 349.89 114.479C349.906 114.381 349.942 114.286 349.995 114.201C350.635 113.172 351.26 112.09 351.839 110.993C351.936 110.819 352.097 110.69 352.288 110.633C352.478 110.576 352.684 110.596 352.86 110.688C353.036 110.781 353.169 110.939 353.23 111.128C353.292 111.317 353.276 111.523 353.188 111.701C352.586 112.837 351.946 113.949 351.283 115.009C351.214 115.118 351.119 115.209 351.006 115.272C350.892 115.334 350.765 115.367 350.635 115.367ZM354.148 108.73C354.043 108.73 353.939 108.706 353.843 108.661C353.752 108.621 353.669 108.562 353.6 108.49C353.531 108.418 353.477 108.332 353.441 108.239C353.404 108.145 353.387 108.046 353.39 107.946C353.392 107.845 353.414 107.747 353.455 107.655C353.942 106.535 354.415 105.369 354.834 104.219C354.907 104.034 355.049 103.885 355.229 103.804C355.41 103.722 355.616 103.714 355.802 103.781C355.989 103.849 356.142 103.986 356.228 104.165C356.315 104.343 356.329 104.548 356.267 104.737C355.832 105.933 355.352 107.122 354.842 108.272C354.783 108.408 354.686 108.523 354.563 108.604C354.44 108.685 354.296 108.729 354.148 108.73ZM356.724 101.666C356.653 101.677 356.581 101.677 356.51 101.666C356.316 101.609 356.153 101.478 356.056 101.301C355.958 101.124 355.936 100.915 355.992 100.721C356.335 99.5476 356.648 98.336 356.922 97.132C356.944 97.032 356.985 96.9372 357.044 96.8532C357.103 96.7692 357.177 96.6975 357.264 96.6423C357.35 96.5871 357.446 96.5495 357.547 96.5315C357.648 96.5136 357.751 96.5157 357.851 96.5377C357.952 96.5597 358.046 96.6012 358.13 96.6598C358.214 96.7185 358.286 96.7931 358.341 96.8794C358.396 96.9657 358.434 97.0621 358.452 97.1629C358.47 97.2638 358.468 97.3672 358.446 97.4673C358.164 98.7018 357.844 99.9438 357.493 101.148C357.44 101.307 357.336 101.444 357.196 101.537C357.057 101.631 356.891 101.676 356.724 101.666ZM358.377 94.3355H358.255C358.156 94.3197 358.061 94.2846 357.976 94.2319C357.89 94.1793 357.816 94.1103 357.757 94.0289C357.698 93.9474 357.656 93.8552 357.633 93.7574C357.61 93.6596 357.607 93.5583 357.623 93.4592C357.813 92.2476 357.973 91.0132 358.088 89.7787C358.107 89.5766 358.206 89.3904 358.362 89.2611C358.519 89.1318 358.72 89.0699 358.922 89.0891C359.124 89.1083 359.31 89.207 359.44 89.3635C359.569 89.52 359.631 89.7214 359.612 89.9235C359.49 91.1884 359.322 92.461 359.124 93.7335C359.087 93.9042 358.993 94.0572 358.857 94.1667C358.721 94.2763 358.552 94.3359 358.377 94.3355ZM359.086 86.8526C358.884 86.8526 358.69 86.7724 358.547 86.6295C358.404 86.4866 358.324 86.2927 358.324 86.0907C358.324 85.5039 358.324 84.9172 358.324 84.3304C358.324 83.7437 358.324 83.035 358.324 82.3797C358.324 82.1776 358.404 81.9838 358.547 81.8409C358.69 81.698 358.884 81.6177 359.086 81.6177C359.288 81.6177 359.482 81.698 359.625 81.8409C359.768 81.9838 359.848 82.1776 359.848 82.3797C359.848 83.0503 359.848 83.7132 359.848 84.3838C359.848 85.0543 359.848 85.5877 359.848 86.1897C359.827 86.3769 359.738 86.5499 359.597 86.6751C359.456 86.8004 359.274 86.869 359.086 86.8679V86.8526ZM358.819 79.3469C358.63 79.3479 358.447 79.2782 358.306 79.1513C358.165 79.0245 358.076 78.8498 358.057 78.6612C357.928 77.4267 357.76 76.1923 357.547 74.9883C357.512 74.7862 357.56 74.5787 357.678 74.4115C357.797 74.2444 357.977 74.1311 358.179 74.0968C358.381 74.0624 358.589 74.1097 358.756 74.2284C358.923 74.347 359.036 74.5271 359.071 74.7292C359.292 75.9637 359.467 77.2362 359.596 78.5392C359.607 78.6388 359.598 78.7395 359.569 78.8355C359.541 78.9315 359.494 79.021 359.431 79.0989C359.368 79.1767 359.29 79.2414 359.202 79.2892C359.114 79.337 359.018 79.367 358.918 79.3774L358.819 79.3469ZM357.516 71.9403C357.343 71.9458 357.173 71.8922 357.035 71.7883C356.896 71.6844 356.797 71.5365 356.754 71.3688C356.449 70.1649 356.099 68.9761 355.71 67.8179C355.67 67.7215 355.65 67.6179 355.652 67.5135C355.654 67.4091 355.677 67.3061 355.72 67.211C355.763 67.1159 355.825 67.0306 355.902 66.9605C355.98 66.8904 356.071 66.837 356.169 66.8035C356.268 66.77 356.373 66.7572 356.477 66.7659C356.581 66.7745 356.682 66.8045 356.774 66.8539C356.866 66.9033 356.947 66.971 357.012 67.053C357.077 67.1349 357.124 67.2293 357.15 67.3302C357.554 68.5266 357.912 69.7534 358.232 70.9954C358.261 71.1095 358.262 71.2286 358.237 71.3434C358.211 71.4581 358.16 71.5655 358.086 71.657C358.012 71.7485 357.918 71.8217 357.811 71.8708C357.705 71.92 357.588 71.9438 357.47 71.9403H357.516ZM355.093 64.8232C354.944 64.8237 354.799 64.7807 354.674 64.6995C354.55 64.6183 354.451 64.5023 354.392 64.366C353.904 63.2306 353.363 62.08 352.784 61.0437C352.683 60.8659 352.657 60.6552 352.711 60.458C352.765 60.2608 352.896 60.0932 353.074 59.9922C353.252 59.8911 353.462 59.8648 353.66 59.9191C353.857 59.9734 354.024 60.1039 354.125 60.2817C354.727 61.3942 355.284 62.5677 355.794 63.7259C355.873 63.9119 355.874 64.1215 355.799 64.3086C355.723 64.4958 355.576 64.6452 355.39 64.7242C355.3 64.7794 355.198 64.8133 355.093 64.8232ZM351.534 58.2167C351.408 58.2173 351.283 58.1863 351.171 58.1264C351.059 58.0665 350.964 57.9797 350.894 57.8738C350.229 56.8351 349.512 55.8305 348.746 54.8639C348.683 54.7855 348.636 54.6954 348.608 54.5988C348.58 54.5023 348.572 54.4012 348.583 54.3013C348.594 54.2014 348.625 54.1048 348.674 54.017C348.723 53.9291 348.789 53.8518 348.867 53.7895C349.025 53.6649 349.226 53.6078 349.426 53.6306C349.626 53.6534 349.809 53.7544 349.934 53.9114C350.696 54.8944 351.458 55.9383 352.22 57.0051C352.296 57.1197 352.339 57.2526 352.345 57.3897C352.351 57.5267 352.32 57.663 352.256 57.7839C352.191 57.9049 352.095 58.0061 351.977 58.0769C351.86 58.1477 351.725 58.1855 351.588 58.1862L351.534 58.2167ZM346.841 52.3493C346.738 52.3489 346.636 52.3278 346.542 52.2872C346.448 52.2466 346.363 52.1874 346.292 52.1131C345.454 51.2368 344.562 50.3681 343.633 49.5375C343.482 49.4011 343.392 49.2105 343.382 49.0075C343.372 48.8046 343.443 48.606 343.579 48.4555C343.716 48.3049 343.906 48.2147 344.109 48.2047C344.312 48.1947 344.511 48.2657 344.661 48.4021C345.614 49.2632 346.536 50.1623 347.397 51.0615C347.5 51.1698 347.569 51.306 347.595 51.4532C347.622 51.6004 347.604 51.7522 347.545 51.8895C347.486 52.0268 347.387 52.1436 347.262 52.2253C347.137 52.3071 346.99 52.3502 346.841 52.3493ZM341.27 47.3048C341.1 47.3032 340.934 47.2471 340.798 47.1448C339.845 46.3828 338.84 45.6208 337.818 44.935C337.726 44.8832 337.646 44.8126 337.582 44.7278C337.518 44.6431 337.473 44.546 337.449 44.4428C337.425 44.3396 337.423 44.2325 337.443 44.1284C337.463 44.0243 337.504 43.9255 337.564 43.8383C337.624 43.751 337.702 43.6773 337.792 43.6217C337.882 43.5662 337.983 43.5301 338.088 43.5157C338.193 43.5013 338.3 43.5089 338.402 43.5382C338.504 43.5674 338.598 43.6175 338.68 43.6853C339.739 44.4473 340.767 45.2093 341.728 45.9713C341.886 46.096 341.988 46.2781 342.012 46.478C342.037 46.6779 341.981 46.8793 341.857 47.0381C341.787 47.1199 341.701 47.1859 341.604 47.2318C341.507 47.2778 341.401 47.3027 341.293 47.3048H341.27ZM335.098 43.0224C334.958 43.0215 334.821 42.9819 334.702 42.9081C333.658 42.2756 332.576 41.6508 331.479 41.0564C331.315 40.954 331.196 40.7933 331.147 40.6068C331.097 40.4203 331.12 40.2218 331.211 40.0515C331.302 39.8812 331.454 39.7518 331.637 39.6894C331.819 39.627 332.019 39.6363 332.195 39.7153C333.323 40.3249 334.435 40.9574 335.494 41.6127C335.635 41.6998 335.743 41.8301 335.803 41.9842C335.863 42.1382 335.871 42.3075 335.827 42.4666C335.782 42.6257 335.687 42.766 335.555 42.8662C335.424 42.9665 335.263 43.0213 335.098 43.0224ZM328.484 39.4486C328.37 39.448 328.259 39.4219 328.156 39.3724C327.044 38.8466 325.87 38.3361 324.758 37.8484C324.665 37.8099 324.581 37.7535 324.51 37.6825C324.44 37.6115 324.384 37.5272 324.345 37.4345C324.307 37.3418 324.288 37.2425 324.288 37.1423C324.288 37.042 324.308 36.9428 324.346 36.8502C324.385 36.7576 324.441 36.6736 324.512 36.6028C324.583 36.532 324.668 36.4759 324.76 36.4377C324.853 36.3995 324.952 36.3799 325.053 36.3801C325.153 36.3803 325.252 36.4002 325.345 36.4387C326.51 36.9264 327.676 37.4522 328.812 37.9627C328.967 38.0377 329.091 38.163 329.166 38.318C329.241 38.4731 329.261 38.6489 329.223 38.8167C329.185 38.9846 329.091 39.1346 328.957 39.2425C328.823 39.3503 328.656 39.4095 328.484 39.4105V39.4486ZM251.522 37.5589C251.34 37.5622 251.162 37.5 251.022 37.3835C250.881 37.267 250.787 37.104 250.757 36.9241C250.726 36.7443 250.761 36.5594 250.856 36.4032C250.95 36.247 251.097 36.1298 251.271 36.073C252.459 35.6462 253.663 35.2424 254.852 34.8614C254.949 34.8229 255.053 34.8048 255.157 34.8081C255.261 34.8114 255.364 34.8361 255.458 34.8807C255.553 34.9253 255.637 34.9887 255.706 35.0672C255.775 35.1457 255.826 35.2374 255.858 35.3368C255.89 35.4361 255.901 35.541 255.891 35.6449C255.881 35.7487 255.849 35.8493 255.799 35.9405C255.748 36.0317 255.679 36.1114 255.596 36.1749C255.513 36.2383 255.418 36.284 255.317 36.3092C254.151 36.6826 252.962 37.0712 251.781 37.5131C251.71 37.5393 251.636 37.5547 251.56 37.5589H251.522ZM321.565 36.5759C321.476 36.5766 321.388 36.5584 321.306 36.5225C320.163 36.1034 318.974 35.6996 317.778 35.3186C317.675 35.2956 317.578 35.2515 317.492 35.1889C317.407 35.1264 317.336 35.0469 317.283 34.9553C317.231 34.8638 317.197 34.7623 317.186 34.6573C317.175 34.5523 317.185 34.4461 317.217 34.3454C317.249 34.2446 317.301 34.1516 317.371 34.0722C317.441 33.9928 317.526 33.9288 317.622 33.8842C317.717 33.8395 317.821 33.8153 317.927 33.813C318.033 33.8107 318.138 33.8304 318.235 33.8708C319.454 34.2594 320.666 34.6709 321.832 35.0976C322.022 35.1589 322.18 35.2922 322.272 35.4689C322.365 35.6456 322.385 35.8515 322.327 36.0425C322.277 36.203 322.175 36.3424 322.037 36.4389C321.899 36.5354 321.733 36.5836 321.565 36.5759ZM258.715 35.2805C258.615 35.2945 258.513 35.2887 258.416 35.2633C258.318 35.238 258.226 35.1936 258.145 35.1327C258.065 35.0719 257.997 34.9957 257.945 34.9087C257.894 34.8216 257.861 34.7252 257.847 34.6252C257.833 34.5251 257.838 34.4233 257.864 34.3254C257.889 34.2276 257.933 34.1358 257.994 34.0551C258.055 33.9744 258.131 33.9066 258.218 33.8553C258.306 33.8041 258.402 33.7705 258.502 33.7565C259.698 33.4136 260.933 33.0859 262.16 32.7735C262.352 32.7336 262.553 32.77 262.72 32.875C262.887 32.98 263.006 33.1455 263.053 33.3367C263.101 33.5279 263.072 33.73 262.974 33.9007C262.875 34.0713 262.715 34.1971 262.525 34.2518C261.314 34.5566 260.102 34.8842 258.921 35.2195C258.857 35.24 258.79 35.2503 258.723 35.25L258.715 35.2805ZM314.41 34.2899C314.344 34.2978 314.278 34.2978 314.212 34.2899C313.031 33.9698 311.819 33.665 310.592 33.3831C310.39 33.3386 310.214 33.2157 310.103 33.0414C309.991 32.867 309.953 32.6556 309.998 32.4535C310.042 32.2514 310.165 32.0752 310.34 31.9638C310.514 31.8523 310.725 31.8146 310.928 31.8591C312.177 32.1487 313.412 32.4535 314.608 32.7811C314.81 32.8074 314.993 32.9129 315.118 33.0744C315.242 33.2358 315.297 33.4401 315.271 33.6422C315.245 33.8443 315.139 34.0277 314.978 34.152C314.816 34.2763 314.612 34.3314 314.41 34.3051V34.2899ZM266.015 33.4212C265.813 33.4424 265.611 33.3825 265.453 33.2546C265.295 33.1267 265.194 32.9413 265.173 32.7392C265.152 32.5371 265.212 32.3349 265.34 32.177C265.468 32.0191 265.653 31.9184 265.855 31.8972C267.082 31.6305 268.332 31.3867 269.559 31.1352C269.659 31.1172 269.761 31.1191 269.861 31.1407C269.96 31.1624 270.054 31.2034 270.138 31.2614C270.221 31.3194 270.292 31.3933 270.347 31.4789C270.402 31.5644 270.44 31.66 270.458 31.76C270.476 31.8601 270.474 31.9627 270.452 32.0621C270.431 32.1614 270.39 32.2555 270.331 32.339C270.273 32.4225 270.2 32.4938 270.114 32.5487C270.028 32.6036 269.933 32.6412 269.833 32.6592C268.621 32.8802 267.387 33.124 266.175 33.4212H266.015ZM307.087 32.5982H306.942C305.746 32.3696 304.504 32.1639 303.262 31.9886C303.163 31.9738 303.067 31.9395 302.982 31.8877C302.896 31.836 302.821 31.7678 302.762 31.6871C302.702 31.6064 302.659 31.5148 302.635 31.4175C302.611 31.3201 302.607 31.2191 302.622 31.12C302.652 30.9213 302.759 30.7426 302.921 30.6227C303.082 30.5028 303.284 30.4515 303.483 30.4799C304.748 30.6628 306.005 30.8685 307.224 31.0971C307.426 31.1153 307.613 31.213 307.743 31.3688C307.873 31.5246 307.936 31.7256 307.918 31.9277C307.899 32.1298 307.802 32.3164 307.646 32.4464C307.49 32.5765 307.289 32.6393 307.087 32.6211V32.5982ZM273.407 32.0801C273.205 32.0952 273.005 32.0295 272.851 31.8973C272.697 31.7651 272.603 31.5773 272.587 31.3752C272.572 31.1731 272.638 30.9733 272.77 30.8197C272.902 30.6661 273.09 30.5712 273.292 30.5561C274.542 30.3732 275.807 30.2132 277.049 30.076C277.149 30.065 277.25 30.0738 277.347 30.102C277.444 30.1301 277.534 30.177 277.612 30.2399C277.691 30.3029 277.756 30.3807 277.805 30.469C277.853 30.5572 277.884 30.6541 277.895 30.7542C277.906 30.8543 277.897 30.9555 277.869 31.0522C277.841 31.1489 277.794 31.239 277.731 31.3176C277.668 31.3961 277.59 31.4615 277.502 31.5099C277.414 31.5584 277.317 31.589 277.217 31.6C275.99 31.7372 274.748 31.8972 273.513 32.0801H273.407ZM299.635 31.5162H299.558C298.339 31.3867 297.09 31.28 295.84 31.1962C295.74 31.1894 295.642 31.1629 295.552 31.1182C295.462 31.0735 295.382 31.0115 295.316 30.9358C295.25 30.86 295.2 30.772 295.168 30.6767C295.137 30.5815 295.124 30.4809 295.131 30.3808C295.138 30.2807 295.165 30.1828 295.209 30.093C295.254 30.0031 295.316 29.9229 295.392 29.8571C295.467 29.7912 295.555 29.741 295.651 29.7092C295.746 29.6775 295.846 29.6649 295.947 29.6722C297.219 29.7636 298.484 29.8703 299.718 30.0074C299.818 30.0179 299.915 30.0479 300.003 30.0957C300.091 30.1435 300.168 30.2081 300.231 30.286C300.294 30.3638 300.341 30.4533 300.37 30.5494C300.398 30.6454 300.407 30.7461 300.397 30.8456C300.374 31.0315 300.284 31.2026 300.144 31.3263C300.003 31.4499 299.822 31.5176 299.635 31.5162ZM280.867 31.2419C280.675 31.2425 280.49 31.1706 280.348 31.0407C280.207 30.9107 280.12 30.7322 280.105 30.5408C280.096 30.4407 280.108 30.3399 280.139 30.2443C280.169 30.1486 280.219 30.06 280.284 29.9835C280.349 29.907 280.429 29.8442 280.518 29.7986C280.608 29.753 280.705 29.7256 280.806 29.7179C282.071 29.6264 283.336 29.5502 284.616 29.4969C284.818 29.4969 285.012 29.5772 285.154 29.7201C285.297 29.863 285.378 30.0568 285.378 30.2589C285.378 30.461 285.297 30.6548 285.154 30.7977C285.012 30.9406 284.818 31.0209 284.616 31.0209C283.389 31.0742 282.132 31.1504 280.889 31.2419H280.867ZM292.137 30.9904C291.047 30.9904 289.95 30.9371 288.875 30.9371H288.403C288.201 30.9371 288.007 30.8568 287.864 30.7139C287.721 30.571 287.641 30.3772 287.641 30.1751C287.641 29.973 287.721 29.7792 287.864 29.6363C288.007 29.4934 288.201 29.4131 288.403 29.4131H288.883C289.973 29.4131 291.085 29.4131 292.19 29.4664C292.392 29.4664 292.586 29.5467 292.729 29.6896C292.872 29.8325 292.952 30.0263 292.952 30.2284C292.952 30.4305 292.872 30.6243 292.729 30.7672C292.586 30.9101 292.392 30.9904 292.19 30.9904H292.137Z" fill="#E0E0E0"/>
<path d="M246.21 39.6239C246.035 39.6219 245.866 39.5598 245.732 39.448C245.597 39.3362 245.505 39.1815 245.472 39.0099C245.438 38.8384 245.464 38.6604 245.545 38.5058C245.627 38.3512 245.76 38.2294 245.921 38.1609L247.696 37.3989C247.789 37.362 247.889 37.344 247.99 37.3458C248.09 37.3477 248.19 37.3695 248.282 37.4098C248.374 37.4502 248.457 37.5084 248.526 37.5811C248.596 37.6537 248.65 37.7395 248.687 37.8333C248.723 37.9268 248.742 38.0267 248.74 38.1272C248.738 38.2277 248.716 38.3269 248.676 38.419C248.635 38.5111 248.577 38.5942 248.504 38.6637C248.432 38.7332 248.346 38.7876 248.252 38.8239L246.5 39.5325C246.41 39.581 246.311 39.612 246.21 39.6239Z" fill="#E0E0E0"/>
<path d="M76.5352 109.088L111.58 91.9121L86.3116 115.946L76.5352 109.088Z" fill="#373873"/>
<path d="M111.578 91.9121L72.937 104.622L63.1758 97.7643L111.578 91.9121Z" fill="#373873"/>
<path d="M72.9375 104.622L74.4691 114.437L76.5341 109.088L111.579 91.9121L72.9375 104.622Z" fill="#373873"/>
<path opacity="0.25" d="M72.9375 104.622L74.4691 114.437L76.5341 109.088L111.579 91.9121L72.9375 104.622Z" fill="black"/>
<path d="M74.4688 114.437L79.7951 111.373L76.5338 109.087L74.4688 114.437Z" fill="#373873"/>
<path opacity="0.25" d="M76.5352 109.087L79.7965 111.373L78.9431 111.861L76.5352 109.087Z" fill="black"/>
<path d="M79.1713 211.935C79.083 211.935 78.9953 211.919 78.9122 211.889C77.6778 211.447 76.4738 210.99 75.3232 210.54C75.1353 210.465 74.9847 210.319 74.9047 210.133C74.8247 209.948 74.8217 209.738 74.8965 209.55C74.9713 209.362 75.1177 209.211 75.3034 209.131C75.4892 209.051 75.6992 209.048 75.8871 209.123C77.0149 209.565 78.1731 210.014 79.4304 210.456C79.5988 210.518 79.7403 210.636 79.83 210.791C79.9197 210.946 79.9519 211.128 79.921 211.304C79.8901 211.481 79.798 211.641 79.6609 211.756C79.5238 211.871 79.3505 211.934 79.1713 211.935ZM72.0923 209.123C71.9876 209.124 71.8839 209.103 71.7875 209.062C70.5988 208.536 69.433 207.995 68.3052 207.446C68.1233 207.358 67.9842 207.2 67.9185 207.009C67.8527 206.817 67.8658 206.607 67.9547 206.425C68.0436 206.244 68.2011 206.104 68.3926 206.039C68.5841 205.973 68.7939 205.986 68.9758 206.075C70.0807 206.616 71.2618 207.149 72.4048 207.667C72.5628 207.739 72.6916 207.863 72.7696 208.019C72.8477 208.174 72.8703 208.351 72.8339 208.521C72.7974 208.691 72.704 208.843 72.5692 208.952C72.4343 209.062 72.2661 209.122 72.0923 209.123ZM65.2343 205.77C65.1067 205.771 64.9809 205.739 64.8686 205.679C63.7332 205.054 62.5826 204.406 61.5386 203.743C61.4006 203.627 61.3081 203.466 61.2776 203.289C61.247 203.111 61.2804 202.928 61.3718 202.773C61.4631 202.618 61.6066 202.5 61.7766 202.44C61.9467 202.381 62.1323 202.383 62.3006 202.448C63.3522 203.095 64.4495 203.728 65.562 204.338C65.7116 204.418 65.8298 204.547 65.898 204.702C65.9662 204.858 65.9804 205.032 65.9384 205.197C65.8964 205.361 65.8005 205.507 65.666 205.611C65.5315 205.715 65.3662 205.771 65.1962 205.77H65.2343ZM58.7573 201.77C58.602 201.769 58.4504 201.721 58.323 201.632C57.2562 200.87 56.2199 200.108 55.2293 199.346C55.0666 199.216 54.9624 199.026 54.9395 198.819C54.9166 198.612 54.977 198.404 55.1074 198.242C55.2377 198.079 55.4274 197.975 55.6346 197.952C55.8418 197.929 56.0496 197.989 56.2123 198.12C57.1724 198.882 58.1858 199.644 59.2603 200.36C59.3931 200.453 59.4929 200.585 59.5453 200.739C59.5976 200.892 59.5997 201.058 59.5513 201.212C59.5029 201.367 59.4065 201.502 59.276 201.598C59.1456 201.694 58.9879 201.746 58.8259 201.747L58.7573 201.77ZM52.8061 197.03C52.6173 197.029 52.4353 196.959 52.2956 196.832C51.3355 195.956 50.4134 195.049 49.5448 194.119C49.4229 193.97 49.362 193.78 49.3743 193.588C49.3867 193.396 49.4714 193.215 49.6114 193.083C49.7515 192.951 49.9364 192.876 50.129 192.875C50.3216 192.873 50.5077 192.945 50.6497 193.075C51.4955 193.974 52.3946 194.858 53.3243 195.704C53.4385 195.808 53.5184 195.944 53.5537 196.094C53.5889 196.244 53.5777 196.402 53.5215 196.545C53.4653 196.689 53.3669 196.812 53.2391 196.899C53.1114 196.985 52.9604 197.031 52.8061 197.03ZM47.594 191.498C47.4796 191.497 47.3667 191.471 47.2638 191.421C47.1609 191.371 47.0706 191.298 46.9997 191.208C46.192 190.21 45.4223 189.166 44.7137 188.099C44.6576 188.016 44.6185 187.923 44.5985 187.825C44.5785 187.727 44.5781 187.625 44.5972 187.527C44.6163 187.429 44.6546 187.335 44.7099 187.252C44.7652 187.168 44.8364 187.096 44.9194 187.04C45.0025 186.984 45.0958 186.945 45.1939 186.925C45.2921 186.905 45.3933 186.905 45.4916 186.924C45.59 186.943 45.6836 186.981 45.7672 187.036C45.8507 187.092 45.9226 187.163 45.9786 187.246C46.672 188.275 47.4264 189.288 48.2036 190.294C48.3291 190.451 48.3875 190.651 48.3661 190.851C48.3447 191.051 48.2452 191.234 48.0893 191.361C47.9535 191.456 47.7903 191.504 47.6245 191.498H47.594ZM43.3268 185.204C43.1918 185.203 43.0593 185.167 42.9428 185.099C42.8263 185.031 42.7301 184.933 42.6639 184.815C42.0391 183.703 41.4447 182.529 40.9037 181.371C40.8617 181.28 40.838 181.181 40.834 181.081C40.83 180.981 40.8458 180.881 40.8805 180.787C40.9151 180.693 40.968 180.606 41.0361 180.533C41.1041 180.459 41.186 180.399 41.2771 180.357C41.3681 180.315 41.4666 180.292 41.5668 180.288C41.667 180.284 41.767 180.3 41.8611 180.334C42.0512 180.404 42.2056 180.547 42.2905 180.731C42.8087 181.866 43.3878 183.017 43.9898 184.061C44.0399 184.148 44.0721 184.245 44.0846 184.345C44.0972 184.445 44.0898 184.546 44.0628 184.643C44.0359 184.74 43.99 184.831 43.9278 184.91C43.8655 184.989 43.7882 185.056 43.7002 185.105C43.5948 185.163 43.4776 185.197 43.3573 185.204H43.3268ZM40.1722 178.308C40.0165 178.308 39.8644 178.261 39.7363 178.172C39.6082 178.084 39.5104 177.958 39.4559 177.812C39.0139 176.624 38.6101 175.389 38.2519 174.139C38.2182 174.042 38.2048 173.938 38.2125 173.835C38.2201 173.732 38.2487 173.631 38.2965 173.539C38.3443 173.448 38.4103 173.367 38.4904 173.301C38.5705 173.236 38.6631 173.187 38.7625 173.159C38.862 173.13 38.9662 173.122 39.0688 173.135C39.1714 173.149 39.2703 173.182 39.3594 173.235C39.4485 173.287 39.526 173.358 39.5871 173.441C39.6483 173.525 39.6918 173.62 39.715 173.72C40.0655 174.932 40.477 176.128 40.8808 177.287C40.9498 177.476 40.9413 177.684 40.8571 177.867C40.7728 178.05 40.6198 178.192 40.4312 178.262C40.3482 178.292 40.2605 178.308 40.1722 178.308ZM38.0462 171C37.869 171.004 37.6959 170.946 37.5569 170.836C37.4178 170.726 37.3214 170.571 37.2842 170.398C37.0175 169.171 36.7736 167.899 36.5755 166.588C36.5448 166.389 36.5941 166.186 36.7126 166.023C36.8311 165.86 37.0092 165.751 37.208 165.719C37.3071 165.703 37.4084 165.707 37.5062 165.73C37.604 165.753 37.6962 165.795 37.7776 165.853C37.8591 165.912 37.9281 165.986 37.9807 166.072C38.0333 166.158 38.0685 166.253 38.0843 166.352C38.2748 167.609 38.511 168.851 38.7701 170.055C38.8132 170.252 38.7765 170.458 38.6679 170.628C38.5593 170.798 38.3878 170.918 38.191 170.962C38.1438 170.975 38.0952 170.983 38.0462 170.985V171ZM36.8575 163.479C36.6679 163.48 36.4848 163.41 36.3439 163.283C36.203 163.157 36.1144 162.982 36.0955 162.793C35.9659 161.566 35.8592 160.279 35.783 158.983C35.7726 158.782 35.8421 158.586 35.9763 158.436C36.1105 158.286 36.2985 158.195 36.4993 158.183C36.5994 158.177 36.6998 158.191 36.7946 158.223C36.8894 158.256 36.9769 158.307 37.0519 158.374C37.1269 158.44 37.1881 158.521 37.2319 158.611C37.2757 158.701 37.3012 158.799 37.307 158.899C37.3832 160.187 37.4823 161.452 37.6118 162.664C37.631 162.864 37.5706 163.063 37.4436 163.219C37.3166 163.374 37.1333 163.473 36.9337 163.494L36.8575 163.479ZM36.4612 155.859C36.2591 155.859 36.0653 155.779 35.9224 155.636C35.7795 155.493 35.6992 155.299 35.6992 155.097C35.6992 153.817 35.7983 152.514 35.9278 151.234C35.9373 151.133 35.9666 151.036 36.014 150.947C36.0614 150.858 36.1259 150.78 36.2039 150.716C36.2818 150.652 36.3716 150.605 36.4681 150.576C36.5646 150.547 36.6659 150.537 36.766 150.548C36.8656 150.558 36.9622 150.588 37.0501 150.636C37.1381 150.684 37.2159 150.749 37.2788 150.826C37.3418 150.904 37.3888 150.994 37.4172 151.09C37.4456 151.186 37.4548 151.287 37.4442 151.386C37.3223 152.628 37.2461 153.886 37.2232 155.128C37.2153 155.324 37.1316 155.51 36.9895 155.647C36.8475 155.783 36.6581 155.859 36.4612 155.859ZM37.2232 148.285H37.0861C36.8884 148.248 36.7133 148.134 36.5991 147.968C36.4849 147.803 36.4408 147.599 36.4765 147.401C36.7051 146.136 36.9946 144.871 37.3223 143.591C37.3487 143.494 37.394 143.404 37.4554 143.325C37.5168 143.246 37.5933 143.179 37.6803 143.13C37.7674 143.08 37.8633 143.048 37.9627 143.036C38.0621 143.024 38.163 143.031 38.2595 143.057C38.4529 143.111 38.6174 143.239 38.7173 143.413C38.8172 143.587 38.8444 143.793 38.7929 143.987C38.4729 145.191 38.1986 146.426 37.97 147.645C37.9412 147.822 37.8504 147.984 37.7137 148.101C37.577 148.219 37.4032 148.284 37.2232 148.285ZM39.1892 140.97C39.1034 140.969 39.0184 140.953 38.9377 140.924C38.843 140.891 38.7558 140.839 38.6811 140.772C38.6064 140.705 38.5458 140.623 38.5026 140.533C38.4594 140.442 38.4345 140.344 38.4294 140.244C38.4243 140.143 38.4391 140.043 38.4729 139.949C38.8996 138.745 39.3797 137.533 39.9055 136.352C39.9423 136.255 39.9986 136.166 40.071 136.091C40.1434 136.016 40.2303 135.957 40.3264 135.918C40.4225 135.878 40.5257 135.858 40.6297 135.86C40.7338 135.861 40.8363 135.884 40.9312 135.927C41.026 135.969 41.1111 136.031 41.1812 136.108C41.2513 136.185 41.3049 136.275 41.3388 136.374C41.3726 136.472 41.3859 136.576 41.3779 136.68C41.3699 136.784 41.3408 136.885 41.2923 136.977C40.7894 138.112 40.3169 139.263 39.9055 140.459C39.8535 140.608 39.7567 140.737 39.6284 140.828C39.5002 140.92 39.3467 140.969 39.1892 140.97ZM42.2829 134.013C42.1511 134.012 42.0218 133.976 41.9076 133.911C41.7934 133.845 41.6983 133.75 41.6315 133.637C41.5647 133.523 41.5285 133.394 41.5265 133.262C41.5245 133.13 41.5567 133 41.62 132.885C42.2296 131.757 42.9001 130.599 43.6012 129.562C43.7181 129.41 43.8882 129.307 44.0775 129.275C44.2669 129.243 44.4615 129.283 44.6223 129.388C44.7832 129.493 44.8985 129.655 44.9451 129.841C44.9917 130.028 44.9662 130.225 44.8737 130.393C44.1955 131.437 43.5478 132.519 42.9535 133.616C42.8828 133.729 42.7837 133.822 42.666 133.885C42.5484 133.948 42.4162 133.979 42.2829 133.974V134.013ZM46.4815 127.597C46.3394 127.596 46.2001 127.556 46.0795 127.481C45.959 127.405 45.8619 127.298 45.7993 127.17C45.7366 127.043 45.711 126.9 45.7252 126.758C45.7393 126.617 45.7928 126.482 45.8795 126.37C46.6415 125.349 47.5026 124.35 48.3637 123.406C48.4312 123.331 48.5127 123.271 48.6034 123.229C48.6942 123.186 48.7924 123.162 48.8925 123.157C48.9926 123.153 49.0927 123.168 49.1869 123.202C49.2812 123.236 49.3678 123.288 49.4419 123.356C49.5159 123.424 49.576 123.505 49.6185 123.596C49.6611 123.686 49.6854 123.785 49.69 123.885C49.6946 123.985 49.6794 124.085 49.6453 124.179C49.6113 124.274 49.559 124.36 49.4914 124.434C48.6608 125.349 47.8455 126.316 47.0835 127.299C47.0125 127.392 46.9214 127.466 46.817 127.518C46.7127 127.569 46.5979 127.596 46.4815 127.597ZM51.6098 121.973C51.4572 121.972 51.3082 121.926 51.1822 121.84C51.0563 121.754 50.9591 121.632 50.9032 121.49C50.8474 121.348 50.8355 121.192 50.8691 121.043C50.9027 120.894 50.9802 120.759 51.0916 120.655C52.0289 119.771 53.0195 118.925 54.0253 118.132C54.1832 118.008 54.384 117.951 54.5838 117.974C54.7837 117.996 54.9664 118.097 55.0921 118.254C55.155 118.333 55.2017 118.423 55.2296 118.519C55.2576 118.616 55.2661 118.717 55.2548 118.817C55.2434 118.917 55.2125 119.013 55.1636 119.101C55.1148 119.189 55.049 119.266 54.9702 119.329C53.9948 120.091 53.0423 120.914 52.1279 121.767C52.0537 121.837 51.9662 121.891 51.8707 121.926C51.7751 121.962 51.6734 121.978 51.5717 121.973H51.6098ZM57.5839 117.256C57.4076 117.275 57.2302 117.232 57.0825 117.134C56.9347 117.036 56.8257 116.889 56.7742 116.72C56.7228 116.55 56.7321 116.368 56.8006 116.204C56.8691 116.04 56.9925 115.906 57.1495 115.824C58.2163 115.115 59.3288 114.444 60.4566 113.82C60.5442 113.77 60.6407 113.737 60.7408 113.725C60.8408 113.712 60.9424 113.719 61.0397 113.745C61.1369 113.772 61.2281 113.817 61.3078 113.879C61.3875 113.941 61.4543 114.018 61.5044 114.105C61.5544 114.193 61.5867 114.289 61.5994 114.389C61.6121 114.489 61.605 114.591 61.5785 114.688C61.5519 114.786 61.5065 114.877 61.4448 114.956C61.383 115.036 61.3062 115.103 61.2186 115.153C60.1289 115.755 59.0469 116.41 58.0182 117.096C57.8831 117.201 57.7167 117.257 57.5458 117.256H57.5839ZM64.198 113.538C64.0243 113.537 63.8561 113.477 63.7212 113.367C63.5864 113.258 63.4929 113.105 63.4565 112.936C63.42 112.766 63.4427 112.588 63.5207 112.433C63.5988 112.278 63.7275 112.154 63.8856 112.082C65.0515 111.556 66.2554 111.061 67.467 110.627C67.6554 110.565 67.8606 110.578 68.039 110.665C68.2174 110.752 68.3549 110.905 68.4224 111.091C68.4899 111.278 68.4819 111.483 68.4003 111.664C68.3186 111.845 68.1697 111.987 67.9852 112.059C66.8117 112.486 65.6458 112.958 64.5104 113.469C64.4123 113.514 64.3058 113.537 64.198 113.538Z" fill="#E0E0E0"/>
<path d="M255.269 316.519C255.271 316.381 255.235 316.245 255.165 316.125C255.095 316.006 254.994 315.908 254.873 315.841C254.392 315.478 253.797 315.302 253.196 315.346C252.582 315.347 251.976 315.493 251.428 315.773L248.38 317.396C248.629 316.959 248.817 316.489 248.937 316.001C249.023 315.626 249.064 315.243 249.059 314.858C249.059 314.218 249.059 310.667 249.059 310.332C249.051 309.607 248.895 308.891 248.601 308.229C247.973 306.982 247.033 305.919 245.873 305.143C244.936 304.426 243.816 303.619 242.498 302.773C241.179 301.927 239.991 301.188 238.916 300.586C236.051 299.058 233.025 297.852 229.894 296.989C226.494 296.057 222.98 295.608 219.455 295.656C215.448 295.728 211.465 296.296 207.598 297.347C202.984 298.605 198.532 300.395 194.332 302.681C190.354 304.785 187.354 306.971 185.333 309.242C183.521 311.106 182.249 313.426 181.652 315.955C181.518 316.623 181.454 317.302 181.462 317.982C181.462 318.744 181.462 321.937 181.462 322.554C181.471 324.099 181.841 325.621 182.544 326.997C183.681 329.182 185.296 331.083 187.268 332.559C187.718 332.91 188.365 333.375 189.219 333.961C190.072 334.548 190.979 335.158 191.954 335.79C192.93 336.423 193.859 337.032 194.781 337.604C195.703 338.175 196.442 338.625 197.022 338.953C199.887 340.446 202.932 341.568 206.082 342.29C209.578 343.107 213.16 343.501 216.75 343.464C220.649 343.427 224.531 342.936 228.317 342.001C235.387 340.15 242.035 336.958 247.9 332.598C249.535 331.358 251.021 329.934 252.328 328.353C253.258 327.24 253.978 325.967 254.454 324.597C254.803 323.508 255.07 322.395 255.254 321.267C255.257 321.218 255.257 321.17 255.254 321.122C255.269 320.908 255.269 316.565 255.269 316.519ZM243.839 321.99C243.325 322.71 242.738 323.374 242.086 323.972C241.156 324.806 240.166 325.57 239.122 326.258C237.624 327.245 236.075 328.153 234.482 328.978C231.93 330.35 229.223 331.411 226.42 332.14C223.794 332.826 221.1 333.212 218.388 333.291C215.83 333.364 213.273 333.136 210.768 332.613C208.411 332.13 206.126 331.343 203.971 330.273C203.206 329.897 202.463 329.477 201.746 329.016C200.885 328.483 200.009 327.926 199.117 327.34C198.226 326.753 197.38 326.189 196.587 325.64C195.957 325.223 195.356 324.762 194.789 324.261C193.38 323.107 192.252 321.648 191.489 319.994C191.421 319.819 191.352 319.651 191.291 319.476C191.862 317.988 192.749 316.641 193.89 315.529C195.709 313.754 197.791 312.271 200.062 311.132C202.931 309.585 205.939 308.309 209.046 307.322C210.545 306.858 212.072 306.491 213.618 306.225L212.856 306.644C212.646 306.729 212.459 306.863 212.312 307.036C212.165 307.208 212.061 307.413 212.01 307.634C211.986 307.835 212.025 308.039 212.12 308.217C212.216 308.396 212.363 308.541 212.544 308.633L213.062 308.968C211.713 308.8 210.349 308.8 209 308.968C207.281 309.253 205.626 309.844 204.116 310.713C202.669 311.402 201.404 312.42 200.42 313.685C199.774 314.528 199.416 315.556 199.399 316.618C199.399 316.763 199.399 320.52 199.399 321.297C199.391 321.439 199.391 321.582 199.399 321.724C199.566 323.022 200.094 324.247 200.923 325.259C202.058 326.645 203.415 327.832 204.939 328.772C206.663 329.911 208.528 330.82 210.486 331.477C212.407 332.127 214.401 332.534 216.422 332.689C218.391 332.843 220.372 332.736 222.312 332.369C224.203 332.016 226.03 331.379 227.73 330.479C228.886 329.895 229.984 329.201 231.007 328.407C231.646 327.912 232.204 327.321 232.66 326.654C232.961 326.197 233.146 325.674 233.201 325.13C233.239 324.665 233.239 324.208 233.201 323.766C234.756 323.833 236.313 323.723 237.842 323.438C239.98 322.998 242.037 322.226 243.938 321.152L244.288 320.947C244.222 321.317 244.073 321.665 243.839 321.99ZM216.643 317.502C218.663 317.786 220.59 318.532 222.274 319.682C222.876 320.071 223.444 320.51 223.974 320.992C223.688 321.193 223.39 321.376 223.082 321.541C221.476 322.389 219.648 322.722 217.847 322.493C215.824 322.234 213.891 321.497 212.208 320.345C211.586 319.951 211.004 319.496 210.471 318.988C210.724 318.8 210.992 318.632 211.271 318.485C212.92 317.594 214.809 317.25 216.666 317.502H216.643ZM237.88 312.984C237.017 313.356 236.092 313.563 235.152 313.593C234.035 313.661 232.925 313.373 231.982 312.77L221.665 306.011C222.703 306.128 223.734 306.306 224.751 306.545C227.267 307.152 229.701 308.063 231.997 309.257C233.153 309.856 234.277 310.512 235.365 311.223C236.295 311.818 237.118 312.42 237.903 312.984H237.88Z" fill="#373873"/>
<path opacity="0.2" d="M255.269 316.519C255.271 316.381 255.235 316.245 255.165 316.125C255.095 316.006 254.994 315.908 254.873 315.841C254.392 315.478 253.797 315.302 253.196 315.346C252.582 315.347 251.976 315.493 251.428 315.773L248.38 317.396C248.629 316.959 248.817 316.489 248.937 316.001C249.023 315.626 249.064 315.243 249.059 314.858C249.059 314.218 249.059 310.667 249.059 310.332C249.051 309.607 248.895 308.891 248.601 308.229C247.973 306.982 247.033 305.919 245.873 305.143C244.936 304.426 243.816 303.619 242.498 302.773C241.179 301.927 239.991 301.188 238.916 300.586C236.051 299.058 233.025 297.852 229.894 296.989C226.494 296.057 222.98 295.608 219.455 295.656C215.448 295.728 211.465 296.296 207.598 297.347C202.984 298.605 198.532 300.395 194.332 302.681C190.354 304.785 187.354 306.971 185.333 309.242C183.521 311.106 182.249 313.426 181.652 315.955C181.518 316.623 181.454 317.302 181.462 317.982C181.462 318.744 181.462 321.937 181.462 322.554C181.471 324.099 181.841 325.621 182.544 326.997C183.681 329.182 185.296 331.083 187.268 332.559C187.718 332.91 188.365 333.375 189.219 333.961C190.072 334.548 190.979 335.158 191.954 335.79C192.93 336.423 193.859 337.032 194.781 337.604C195.703 338.175 196.442 338.625 197.022 338.953C199.887 340.446 202.932 341.568 206.082 342.29C209.578 343.107 213.16 343.501 216.75 343.464C220.649 343.427 224.531 342.936 228.317 342.001C235.387 340.15 242.035 336.958 247.9 332.598C249.535 331.358 251.021 329.934 252.328 328.353C253.258 327.24 253.978 325.967 254.454 324.597C254.803 323.508 255.07 322.395 255.254 321.267C255.257 321.218 255.257 321.17 255.254 321.122C255.269 320.908 255.269 316.565 255.269 316.519ZM243.839 321.99C243.325 322.71 242.738 323.374 242.086 323.972C241.156 324.806 240.166 325.57 239.122 326.258C237.624 327.245 236.075 328.153 234.482 328.978C231.93 330.35 229.223 331.411 226.42 332.14C223.794 332.826 221.1 333.212 218.388 333.291C215.83 333.364 213.273 333.136 210.768 332.613C208.411 332.13 206.126 331.343 203.971 330.273C203.206 329.897 202.463 329.477 201.746 329.016C200.885 328.483 200.009 327.926 199.117 327.34C198.226 326.753 197.38 326.189 196.587 325.64C195.957 325.223 195.356 324.762 194.789 324.261C193.38 323.107 192.252 321.648 191.489 319.994C191.421 319.819 191.352 319.651 191.291 319.476C191.862 317.988 192.749 316.641 193.89 315.529C195.709 313.754 197.791 312.271 200.062 311.132C202.931 309.585 205.939 308.309 209.046 307.322C210.545 306.858 212.072 306.491 213.618 306.225L212.856 306.644C212.646 306.729 212.459 306.863 212.312 307.036C212.165 307.208 212.061 307.413 212.01 307.634C211.986 307.835 212.025 308.039 212.12 308.217C212.216 308.396 212.363 308.541 212.544 308.633L213.062 308.968C211.713 308.8 210.349 308.8 209 308.968C207.281 309.253 205.626 309.844 204.116 310.713C202.669 311.402 201.404 312.42 200.42 313.685C199.774 314.528 199.416 315.556 199.399 316.618C199.399 316.763 199.399 320.52 199.399 321.297C199.391 321.439 199.391 321.582 199.399 321.724C199.566 323.022 200.094 324.247 200.923 325.259C202.058 326.645 203.415 327.832 204.939 328.772C206.663 329.911 208.528 330.82 210.486 331.477C212.407 332.127 214.401 332.534 216.422 332.689C218.391 332.843 220.372 332.736 222.312 332.369C224.203 332.016 226.03 331.379 227.73 330.479C228.886 329.895 229.984 329.201 231.007 328.407C231.646 327.912 232.204 327.321 232.66 326.654C232.961 326.197 233.146 325.674 233.201 325.13C233.239 324.665 233.239 324.208 233.201 323.766C234.756 323.833 236.313 323.723 237.842 323.438C239.98 322.998 242.037 322.226 243.938 321.152L244.288 320.947C244.222 321.317 244.073 321.665 243.839 321.99ZM216.643 317.502C218.663 317.786 220.59 318.532 222.274 319.682C222.876 320.071 223.444 320.51 223.974 320.992C223.688 321.193 223.39 321.376 223.082 321.541C221.476 322.389 219.648 322.722 217.847 322.493C215.824 322.234 213.891 321.497 212.208 320.345C211.586 319.951 211.004 319.496 210.471 318.988C210.724 318.8 210.992 318.632 211.271 318.485C212.92 317.594 214.809 317.25 216.666 317.502H216.643ZM237.88 312.984C237.017 313.356 236.092 313.563 235.152 313.593C234.035 313.661 232.925 313.373 231.982 312.77L221.665 306.011C222.703 306.128 223.734 306.306 224.751 306.545C227.267 307.152 229.701 308.063 231.997 309.257C233.153 309.856 234.277 310.512 235.365 311.223C236.295 311.818 237.118 312.42 237.903 312.984H237.88Z" fill="black"/>
<path opacity="0.1" d="M191.346 319.507C191.917 318.019 192.803 316.672 193.944 315.559C195.763 313.785 197.845 312.302 200.116 311.163C202.985 309.615 205.993 308.34 209.1 307.353C210.599 306.889 212.126 306.522 213.672 306.255L216.446 304.785C216.99 304.509 217.596 304.375 218.206 304.396C218.778 304.377 219.344 304.523 219.837 304.815L221.666 306.012C222.704 306.128 223.734 306.306 224.752 306.545C227.268 307.152 229.702 308.063 231.998 309.258C233.153 309.856 234.278 310.512 235.366 311.224C236.273 311.818 237.096 312.405 237.881 312.984C238.032 312.927 238.18 312.861 238.323 312.786C238.702 312.631 239.042 312.393 239.318 312.09C239.594 311.787 239.798 311.426 239.915 311.033C240.068 310.347 239.58 309.578 238.452 308.747C237.515 308.031 236.486 307.299 235.404 306.568C234.319 305.851 233.195 305.194 232.036 304.602C229.743 303.401 227.308 302.49 224.79 301.889C222.316 301.299 219.771 301.065 217.231 301.196C214.473 301.363 211.746 301.875 209.115 302.72C206.009 303.707 203.001 304.983 200.131 306.53C197.859 307.664 195.777 309.145 193.959 310.919C192.646 312.173 191.684 313.749 191.17 315.491C190.781 317.015 190.918 318.626 191.559 320.063C191.475 319.85 191.407 319.682 191.346 319.507Z" fill="black"/>
<path opacity="0.1" d="M222.297 315.011C220.614 313.858 218.686 313.11 216.666 312.824C214.828 312.587 212.963 312.934 211.332 313.814C209.732 314.66 209.046 315.651 209.206 316.794C209.399 317.654 209.867 318.427 210.54 318.996C210.794 318.809 211.061 318.641 211.34 318.493C212.971 317.615 214.837 317.271 216.674 317.51C218.694 317.794 220.621 318.539 222.305 319.689C222.906 320.079 223.475 320.518 224.004 321L223.6 321.267C224.942 320.444 225.541 319.537 225.399 318.546C225.223 317.434 224.202 316.23 222.297 315.011Z" fill="black"/>
<path opacity="0.1" d="M216.531 328.072C212.435 327.749 208.487 326.402 205.047 324.155C203.521 323.215 202.163 322.025 201.032 320.634C200.203 319.624 199.675 318.402 199.508 317.106C199.492 316.881 199.492 316.654 199.508 316.428C199.508 316.512 199.508 316.588 199.508 316.672C199.508 316.756 199.508 320.573 199.508 321.351C199.5 321.493 199.5 321.635 199.508 321.777C199.675 323.075 200.203 324.3 201.032 325.313C202.166 326.698 203.523 327.886 205.047 328.826C206.771 329.964 208.636 330.874 210.595 331.531C212.515 332.181 214.509 332.588 216.531 332.743V328.072Z" fill="black"/>
<path opacity="0.1" d="M233.34 319.156C233.34 319.606 233.34 320.055 233.34 320.52V323.835C234.894 323.902 236.451 323.792 237.98 323.507V318.829C236.451 319.117 234.894 319.227 233.34 319.156Z" fill="black"/>
<path opacity="0.1" d="M206.113 337.673C202.962 336.954 199.917 335.832 197.052 334.335C196.473 334.015 195.727 333.573 194.812 332.994C193.898 332.415 192.953 331.813 191.985 331.18C191.017 330.548 190.103 329.931 189.25 329.352C188.396 328.773 187.726 328.3 187.299 327.95C185.326 326.471 183.711 324.567 182.574 322.379C181.871 320.996 181.503 319.466 181.5 317.914C181.5 317.952 181.5 317.983 181.5 318.021C181.5 318.783 181.5 321.976 181.5 322.593C181.509 324.138 181.88 325.659 182.582 327.035C183.719 329.221 185.334 331.122 187.306 332.598C187.756 332.948 188.404 333.413 189.257 334C190.111 334.587 191.017 335.196 191.993 335.829C192.968 336.461 193.898 337.071 194.82 337.642C195.742 338.214 196.481 338.663 197.06 338.991C199.926 340.485 202.97 341.606 206.12 342.329C209.616 343.145 213.198 343.539 216.788 343.502V338.831C213.196 338.874 209.612 338.485 206.113 337.673Z" fill="black"/>
<path d="M245.88 305.143C247.039 305.92 247.979 306.983 248.608 308.229C249.056 309.198 249.174 310.288 248.943 311.33C248.656 312.41 248.091 313.395 247.305 314.188C246.375 315.148 245.294 315.949 244.104 316.558C242.205 317.635 240.148 318.406 238.008 318.844C236.479 319.132 234.922 319.242 233.368 319.171C233.368 319.621 233.368 320.07 233.368 320.535C233.315 321.08 233.129 321.603 232.827 322.059C232.372 322.728 231.814 323.319 231.173 323.812C230.15 324.609 229.053 325.306 227.896 325.892C226.195 326.789 224.369 327.425 222.479 327.782C220.538 328.149 218.557 328.256 216.588 328.102C212.493 327.779 208.544 326.432 205.105 324.185C203.579 323.245 202.221 322.055 201.089 320.665C200.261 319.655 199.733 318.432 199.565 317.137C199.467 315.929 199.823 314.728 200.564 313.769C201.547 312.504 202.813 311.486 204.259 310.797C205.77 309.928 207.424 309.337 209.144 309.052C210.492 308.885 211.856 308.885 213.205 309.052L212.687 308.717C212.507 308.625 212.359 308.48 212.264 308.301C212.168 308.123 212.13 307.919 212.154 307.718C212.204 307.497 212.308 307.292 212.455 307.12C212.602 306.947 212.789 306.813 212.999 306.728L216.558 304.838C217.102 304.562 217.708 304.428 218.318 304.45C218.891 304.431 219.456 304.576 219.949 304.869L232.095 312.824C233.038 313.428 234.148 313.716 235.265 313.647C236.369 313.621 237.453 313.345 238.435 312.839C238.814 312.684 239.154 312.447 239.43 312.144C239.706 311.84 239.91 311.479 240.027 311.087C240.18 310.401 239.692 309.631 238.564 308.801C237.627 308.084 236.598 307.353 235.516 306.621C234.431 305.904 233.307 305.248 232.148 304.655C229.855 303.454 227.42 302.543 224.902 301.943C222.431 301.353 219.888 301.119 217.35 301.249C214.59 301.416 211.861 301.928 209.227 302.773C206.121 303.76 203.113 305.036 200.243 306.583C197.971 307.717 195.889 309.198 194.071 310.972C192.758 312.226 191.796 313.803 191.282 315.544C190.893 317.068 191.03 318.68 191.671 320.116C192.433 321.77 193.561 323.23 194.97 324.383C195.537 324.884 196.138 325.345 196.769 325.763C197.531 326.311 198.407 326.875 199.299 327.462C200.19 328.049 201.066 328.605 201.927 329.138C202.645 329.599 203.388 330.019 204.153 330.396C206.308 331.466 208.592 332.252 210.95 332.735C213.454 333.258 216.012 333.486 218.57 333.413C221.282 333.334 223.976 332.948 226.601 332.263C229.405 331.534 232.111 330.472 234.663 329.1C236.256 328.275 237.805 327.367 239.304 326.38C240.347 325.693 241.338 324.928 242.268 324.094C243.416 323.062 244.347 321.811 245.003 320.413C245.155 320.043 245.339 319.686 245.552 319.347C245.821 319.018 246.163 318.758 246.55 318.585L251.457 315.773C252.005 315.494 252.611 315.347 253.225 315.346C253.826 315.303 254.421 315.479 254.902 315.841C255.044 315.919 255.157 316.04 255.225 316.187C255.294 316.333 255.314 316.498 255.283 316.657C255.099 317.785 254.832 318.898 254.483 319.987C254.006 321.357 253.285 322.629 252.357 323.743C251.047 325.32 249.562 326.741 247.929 327.98C245.522 329.804 242.96 331.412 240.271 332.788C236.503 334.805 232.497 336.341 228.346 337.36C224.56 338.298 220.679 338.791 216.779 338.831C213.188 338.866 209.607 338.469 206.111 337.65C202.96 336.931 199.915 335.809 197.051 334.312C196.472 333.992 195.725 333.55 194.81 332.971C193.896 332.392 192.951 331.79 191.983 331.158C191.016 330.525 190.101 329.908 189.248 329.329C188.394 328.75 187.724 328.277 187.297 327.927C185.324 326.448 183.71 324.544 182.573 322.357C181.563 320.39 181.249 318.139 181.681 315.971C182.278 313.441 183.55 311.121 185.362 309.258C187.394 306.987 190.393 304.8 194.361 302.697C198.561 300.411 203.013 298.621 207.627 297.363C211.484 296.309 215.456 295.735 219.453 295.656C222.97 295.601 226.476 296.039 229.87 296.959C233.001 297.822 236.026 299.028 238.892 300.556C239.964 301.155 241.158 301.884 242.474 302.743C243.837 303.634 244.942 304.427 245.88 305.143ZM212.23 320.345C213.913 321.497 215.845 322.234 217.869 322.494C219.67 322.722 221.498 322.389 223.103 321.541C224.787 320.65 225.549 319.644 225.389 318.539C225.229 317.434 224.201 316.253 222.296 315.011C220.612 313.858 218.685 313.11 216.665 312.824C214.827 312.587 212.961 312.934 211.331 313.814C209.73 314.66 209.045 315.651 209.205 316.794C209.365 317.937 210.37 319.126 212.23 320.345Z" fill="#373873"/>
<path d="M246.949 284.386V284.942C246.975 285.43 247.115 285.905 247.359 286.329C247.602 286.752 247.942 287.113 248.351 287.38L278.511 304.799C278.947 305.021 279.429 305.136 279.917 305.136C280.406 305.136 280.888 305.021 281.323 304.799L331.265 275.965C331.673 275.698 332.014 275.338 332.257 274.914C332.501 274.49 332.641 274.015 332.667 273.527V272.971C332.641 272.483 332.501 272.008 332.257 271.584C332.014 271.16 331.673 270.8 331.265 270.532L301.105 253.121C300.669 252.899 300.187 252.784 299.699 252.784C299.21 252.784 298.728 252.899 298.293 253.121L248.351 281.939C247.941 282.208 247.601 282.569 247.357 282.994C247.113 283.42 246.974 283.896 246.949 284.386Z" fill="#373873"/>
<path d="M246.949 284.386V284.942C246.975 285.43 247.115 285.905 247.359 286.329C247.602 286.752 247.942 287.113 248.351 287.38L278.511 304.799C278.947 305.021 279.429 305.136 279.917 305.136C280.406 305.136 280.888 305.021 281.323 304.799L331.265 275.965C331.673 275.698 332.014 275.338 332.257 274.914C332.501 274.49 332.641 274.015 332.667 273.527V272.971C332.641 272.483 332.501 272.008 332.257 271.584C332.014 271.16 331.673 270.8 331.265 270.532L301.105 253.121C300.669 252.899 300.187 252.784 299.699 252.784C299.21 252.784 298.728 252.899 298.293 253.121L248.351 281.939C247.941 282.208 247.601 282.569 247.357 282.994C247.113 283.42 246.974 283.896 246.949 284.386Z" fill="#373873"/>
<path opacity="0.2" d="M279.913 263.721L248.351 281.94C247.942 282.208 247.602 282.568 247.359 282.992C247.115 283.415 246.975 283.89 246.949 284.379V284.935C246.975 285.423 247.115 285.898 247.359 286.322C247.602 286.745 247.942 287.106 248.351 287.373L278.511 304.8C278.943 305.028 279.425 305.143 279.913 305.135V263.721Z" fill="black"/>
<path opacity="0.15" d="M279.913 263.721L248.351 281.94C247.942 282.208 247.602 282.568 247.359 282.992C247.115 283.415 246.975 283.89 246.949 284.379V284.935C246.975 285.423 247.115 285.898 247.359 286.322C247.602 286.745 247.942 287.106 248.351 287.373L278.511 304.8C278.943 305.028 279.425 305.143 279.913 305.135V263.721Z" fill="black"/>
<path opacity="0.2" d="M331.265 270.51L301.105 253.098C300.67 252.877 300.188 252.761 299.699 252.761C299.211 252.761 298.729 252.877 298.293 253.098L279.914 263.705V305.112C280.405 305.121 280.89 305.006 281.324 304.777L331.265 275.943C331.674 275.675 332.014 275.315 332.258 274.891C332.501 274.468 332.642 273.993 332.667 273.505V272.948C332.642 272.46 332.501 271.985 332.258 271.561C332.014 271.138 331.674 270.778 331.265 270.51Z" fill="black"/>
<path d="M273.68 298.193L248.351 283.57C248.18 283.515 248.03 283.406 247.925 283.26C247.819 283.115 247.762 282.939 247.762 282.759C247.762 282.579 247.819 282.403 247.925 282.257C248.03 282.112 248.18 282.003 248.351 281.947L298.292 253.113C298.728 252.892 299.21 252.776 299.698 252.776C300.187 252.776 300.669 252.892 301.104 253.113L331.264 270.51C331.436 270.566 331.585 270.674 331.691 270.82C331.796 270.966 331.853 271.141 331.853 271.321C331.853 271.501 331.796 271.677 331.691 271.823C331.585 271.969 331.436 272.077 331.264 272.133L322.974 276.918L320.078 278.595L281.323 300.99C280.887 301.211 280.405 301.327 279.917 301.327C279.428 301.327 278.947 301.211 278.511 300.99L276.05 299.572L273.68 298.193Z" fill="#373873"/>
<path opacity="0.15" d="M296.679 273.901L331.266 270.51L296.976 272.453L301.098 253.098C300.629 252.854 300.102 252.743 299.574 252.778L293.105 278.938L247.781 282.702C247.78 282.888 247.833 283.071 247.935 283.226C248.036 283.382 248.182 283.505 248.353 283.578L284.929 281.452L279.884 301.325L286.331 281.376L292.579 281.01C293.345 280.963 294.072 280.66 294.644 280.149C295.179 279.672 295.547 279.037 295.696 278.336L296.679 273.901Z" fill="black"/>
<path opacity="0.3" d="M258.594 281.795L293.105 278.953L294.339 274.008L295.025 271.257L299.597 252.793C299.151 252.796 298.712 252.906 298.317 253.114L273.346 267.531L248.353 281.94C248.203 282.011 248.072 282.117 247.973 282.25C247.873 282.383 247.807 282.538 247.781 282.702L254.708 282.13L258.594 281.795Z" fill="white"/>
</svg>
