<svg width="359" height="359" viewBox="0 0 359 359" fill="none" xmlns="http://www.w3.org/2000/svg">
<path d="M55.7662 319.646C-12.5731 280.192 -12.5731 216.254 55.7662 176.764C124.105 137.274 234.9 137.31 303.232 176.764C371.564 216.218 371.571 280.156 303.232 319.646C234.893 359.136 124.098 359.1 55.7662 319.646Z" fill="#FAFAFA"/>
<path d="M312.26 245.556C304.189 250.216 304.189 257.762 312.26 262.429C320.33 267.096 333.412 267.089 341.482 262.429C349.553 257.769 349.553 250.223 341.482 245.556C333.412 240.889 320.33 240.925 312.26 245.556Z" fill="#EBEBEB"/>
<path d="M47.9639 249.921C54.2464 253.59 54.2464 259.535 47.9639 263.197C41.6814 266.859 31.5073 266.866 25.2248 263.197C18.9423 259.528 18.9495 253.59 25.2248 249.921C31.5001 246.252 41.6886 246.274 47.9639 249.921Z" fill="#EBEBEB"/>
<path d="M138.439 257.683L239.419 315.92C240.532 316.559 240.532 317.6 239.419 318.239L224.585 326.783C223.962 327.098 223.273 327.262 222.575 327.262C221.876 327.262 221.188 327.098 220.564 326.783L119.585 268.532C118.472 267.893 118.472 266.852 119.585 266.213L134.419 257.669C135.043 257.356 135.732 257.194 136.431 257.197C137.129 257.199 137.817 257.366 138.439 257.683Z" fill="#EBEBEB"/>
<path d="M102.434 111.362L103.704 112.123L129.782 97.0663L128.511 96.3052L102.434 111.362Z" fill="#FAFAFA"/>
<path d="M128.514 96.3051L103.707 110.629V33.6237L128.514 19.314V96.3051Z" fill="white"/>
<path d="M132.183 14.4175L101.309 32.2382V116.244L132.183 98.4235V14.4175ZM129.784 97.0665L103.707 112.144V33.624L129.784 18.546V97.0665Z" fill="#F0F0F0"/>
<path d="M129.783 97.0663L128.512 96.3052V19.3141L129.783 18.5674V97.0663Z" fill="#E0E0E0"/>
<path d="M132.182 14.4173L130.89 13.6777L100.016 31.5057L101.308 32.238L132.182 14.4173Z" fill="#FAFAFA"/>
<path d="M100.016 31.5059L101.308 32.2382V116.273L100.016 115.533V31.5059Z" fill="#E0E0E0"/>
<path d="M126.654 94.8261L105.566 106.996V35.8639L126.654 23.6938V94.8261Z" fill="#F0F0F0"/>
<path d="M126.654 94.8261L105.566 106.996V35.8639L126.654 23.6938V94.8261Z" fill="#F0F0F0"/>
<path d="M105.546 86.5474C106.549 86.6229 107.557 86.6229 108.561 86.5474C112.07 86.2807 115.526 85.5292 118.829 84.3144C121.378 83.3738 123.934 82.1604 126.633 82.0742V94.8474L123.761 96.4917C122.645 95.4753 121.304 94.7372 119.848 94.3377C115.784 93.2678 111.62 95.307 107.441 95.7737C106.807 95.8407 106.169 95.8719 105.531 95.867L105.546 86.5474Z" fill="#FAFAFA"/>
<path d="M105.543 61.468C110.26 60.0751 115.1 58.9119 118.467 55.4511C121.181 52.6581 122.459 48.7953 123.349 45.0114C124.24 41.2276 124.857 37.3073 126.573 33.8178C126.59 33.7828 126.609 33.7492 126.631 33.7173V71.7282C126.365 72.1231 126.099 72.518 125.819 72.8985C122.718 77.0988 118.158 80.6027 112.946 80.8755C110.497 80.9976 107.97 80.4232 105.543 80.4375V61.468Z" fill="#FAFAFA"/>
<path d="M105.543 47.4381C107.364 45.8317 108.748 43.7897 109.565 41.5032C110.383 39.2166 110.607 36.7601 110.217 34.3633C110.153 34.0043 110.066 33.6453 109.98 33.3078L118.086 28.6265C118.086 29.1578 118.029 29.6891 118.015 30.2204C117.928 33.3222 118.015 36.4598 117.354 39.4754C116.757 42.0118 115.624 44.3907 114.03 46.4517C112.436 48.5127 110.418 50.2079 108.113 51.423C107.286 51.8473 106.427 52.2051 105.543 52.4928V47.4381Z" fill="#FAFAFA"/>
<path d="M262.155 53.1105L261.049 53.7638L238.504 40.7393L239.595 40.0859L262.155 53.1105Z" fill="#FAFAFA"/>
<path d="M239.598 40.0855L261.051 52.471V30.0048L239.598 17.6265V40.0855Z" fill="white"/>
<path d="M236.43 41.9383L263.125 57.3538V28.8061L236.43 13.3906V41.9383ZM238.498 16.9806L261.05 30.0051V53.7638L238.498 40.7393V16.9806Z" fill="#F0F0F0"/>
<path d="M238.503 40.7391L239.595 40.0857V17.6267L238.496 16.9805L238.503 40.7391Z" fill="#E0E0E0"/>
<path d="M236.43 13.3905L237.543 12.7515L264.245 28.1669L263.125 28.8059L236.43 13.3905Z" fill="#FAFAFA"/>
<path d="M264.245 28.167L263.125 28.806V57.3537L264.245 56.7147V28.167Z" fill="#E0E0E0"/>
<path d="M240.438 39.411L260.218 50.8344V45.1263L255.271 33.7029L252.191 36.5605L253.297 41.3424L246.469 26.7383L240.438 33.7029V39.411Z" fill="#F0F0F0"/>
<path d="M252.378 28.1887C252.799 28.4701 253.147 28.8457 253.397 29.2858C253.646 29.7259 253.789 30.2181 253.814 30.7232C253.814 31.6566 253.154 32.0372 252.378 31.5705C251.957 31.2904 251.607 30.915 251.358 30.4747C251.108 30.0343 250.966 29.5415 250.942 29.0359C250.914 28.1025 251.567 27.722 252.378 28.1887Z" fill="#F0F0F0"/>
<path d="M239.502 76.553L238.404 77.2064L215.852 64.189L216.95 63.5356L239.502 76.553Z" fill="#FAFAFA"/>
<path d="M216.949 63.5352L238.403 75.9135V53.4473L216.949 41.0762V63.5352Z" fill="white"/>
<path d="M213.777 65.388L240.48 80.8035V52.2558L213.777 36.8403V65.388ZM215.852 40.4303L238.376 53.4548V77.2135L215.852 64.189V40.4303Z" fill="#F0F0F0"/>
<path d="M215.852 64.1888L216.95 63.5354V41.0764L215.852 40.4302V64.1888Z" fill="#E0E0E0"/>
<path d="M213.777 36.8402L214.897 36.2012L241.6 51.6166L240.48 52.2557L213.777 36.8402Z" fill="#FAFAFA"/>
<path d="M241.601 51.6167L240.48 52.2557V80.8034L241.601 80.1644V51.6167Z" fill="#E0E0E0"/>
<path d="M217.789 62.8607L237.57 74.2841V68.5688L232.623 57.1526L229.543 60.0102L230.648 64.7921L223.82 50.188L217.789 57.1526V62.8607Z" fill="#F0F0F0"/>
<path d="M229.76 51.6384C230.18 51.9198 230.529 52.2955 230.778 52.7355C231.027 53.1756 231.171 53.6678 231.196 54.173C231.196 55.1064 230.535 55.4869 229.76 55.0202C229.338 54.7401 228.989 54.3647 228.739 53.9244C228.49 53.4841 228.347 52.9912 228.324 52.4857C228.266 51.5523 228.92 51.1717 229.76 51.6384Z" fill="#F0F0F0"/>
<path d="M24.5195 166.131L26.0417 167.043L77.831 137.139L76.3089 136.234L24.5195 166.131Z" fill="#FAFAFA"/>
<path d="M76.3062 136.234L26.0391 165.248V49.4418L76.3062 20.4346V136.234Z" fill="white"/>
<path d="M80.7085 14.5615L23.168 47.7834V171.997L80.7085 138.776V14.5615ZM77.8293 137.138L26.04 167.043V49.442L77.8293 19.5444V137.138Z" fill="#F0F0F0"/>
<path d="M77.8308 137.138L76.3086 136.234V20.4348L77.8308 19.5444V137.138Z" fill="#E0E0E0"/>
<path d="M26.0391 124.961V126.749L77.8284 96.844L76.3062 95.9321L26.0391 124.961Z" fill="#FAFAFA"/>
<path d="M26.0391 84.6456V86.4334L77.8284 56.5287L76.3062 55.624L26.0391 84.6456Z" fill="#FAFAFA"/>
<path d="M80.7086 14.5685L79.1577 13.6782L21.6172 46.9001L23.1681 47.7832L80.7086 14.5685Z" fill="#FAFAFA"/>
<path d="M21.6172 46.8999L23.1681 47.783V172.019L21.6172 171.128V46.8999Z" fill="#E0E0E0"/>
<path d="M48.1914 36.654L49.7423 35.7637V153.365L48.1914 152.482V36.654Z" fill="#E0E0E0"/>
<path d="M52.6142 34.1123L49.7422 35.7637V153.365L52.6142 151.699V34.1123Z" fill="#F0F0F0"/>
<path d="M80.7085 54.8701V58.1873L23.168 91.402V88.092L80.7085 54.8701Z" fill="#F0F0F0"/>
<path d="M80.7085 95.1782V98.4882L23.168 131.71V128.393L80.7085 95.1782Z" fill="#F0F0F0"/>
<path d="M49.7402 72.7482L48.1894 71.8579L26.0391 84.6455V86.4333L49.7402 72.7482Z" fill="#FAFAFA"/>
<path d="M49.7402 113.042L48.1894 112.152L26.0391 124.939V126.727L49.7402 113.042Z" fill="#FAFAFA"/>
<path d="M337.385 62.8826C337.385 45.2916 325.797 24.3403 311.537 16.0905C303.969 11.7179 297.177 11.7825 292.431 15.4299C286.551 17.8711 282.781 24.6347 282.781 34.658V136.693L334.506 166.576L337.378 164.918L337.385 62.8826Z" fill="#E6E6E6"/>
<path d="M334.505 166.576V64.5412C334.505 46.9502 322.923 25.999 308.657 17.7491C294.39 9.49932 282.809 17.067 282.809 34.658V136.693L334.505 166.576Z" fill="#F5F5F5"/>
<path d="M331.714 64.5412V161.672L285.59 135.056V34.6652C285.59 25.8697 288.677 19.8098 293.883 17.8927C295.091 17.4541 296.367 17.2353 297.652 17.2465C300.596 17.2465 303.813 18.2373 307.216 20.2047C320.707 28.0021 331.714 47.8764 331.714 64.5412Z" fill="#E0E0E0"/>
<path d="M285.582 135.056L288.511 133.376L331.678 158.305V161.672L285.582 135.056Z" fill="#EBEBEB"/>
<path d="M331.713 64.5412V158.305L288.547 133.376V32.9707C288.547 25.9846 290.507 20.7216 293.925 17.8927C295.133 17.4541 296.409 17.2353 297.694 17.2465C300.638 17.2465 303.855 18.2373 307.258 20.2047C320.706 28.0021 331.713 47.8764 331.713 64.5412Z" fill="white"/>
<path d="M310.044 149.179L307.215 147.549V19.1777H310.044V149.179Z" fill="#F5F5F5"/>
<path d="M312.88 24.2973V147.549L310.051 149.179V22.0356C311.013 22.7321 311.953 23.4788 312.88 24.2973Z" fill="#E0E0E0"/>
<path d="M285.582 115.088L307.215 127.582V130.899L285.582 118.413V115.088Z" fill="#F5F5F5"/>
<path d="M288.511 113.401L285.582 115.088L307.215 127.581V124.257L288.511 113.401Z" fill="#EBEBEB"/>
<path d="M310.043 129.211L331.676 141.697V145.022L310.043 132.536V129.211Z" fill="#F5F5F5"/>
<path d="M312.965 127.524L310.043 129.211L331.676 141.697V138.38L312.965 127.524Z" fill="#EBEBEB"/>
<path d="M285.582 40.9692L307.215 53.4553V56.7724L285.582 44.2936V40.9692Z" fill="#F5F5F5"/>
<path d="M288.511 39.2817L285.582 40.969L307.215 53.4551V50.1379L288.511 39.2817Z" fill="#EBEBEB"/>
<path d="M310.043 55.085L331.676 67.5782V70.8953L310.043 58.4093V55.085Z" fill="#F5F5F5"/>
<path d="M312.965 53.4048L310.043 55.0849L331.676 67.5781V64.2538L312.965 53.4048Z" fill="#EBEBEB"/>
<path d="M314.762 256.182C308.3 249.498 304.48 234.068 310.798 228.762H342.936C349.254 234.061 345.449 249.49 338.98 256.175L338.8 256.362L338.578 256.577C338.398 256.757 338.204 256.936 337.996 257.108L337.838 257.23C337.68 257.352 337.522 257.482 337.35 257.604C337.08 257.799 336.8 257.979 336.51 258.142C331.189 261.251 322.552 261.251 317.224 258.142C316.931 257.977 316.648 257.795 316.377 257.597L315.925 257.252L315.731 257.101C315.53 256.929 315.343 256.764 315.171 256.591L314.912 256.333L314.762 256.182Z" fill="#37474F"/>
<path d="M340.144 226.629C347.482 230.937 347.482 237.852 340.144 242.131C332.806 246.41 320.923 246.439 313.578 242.131C306.233 237.823 306.247 230.909 313.578 226.629C320.908 222.35 332.813 222.35 340.144 226.629Z" fill="#455A64"/>
<path d="M336.618 228.69C342.003 231.835 342.003 236.933 336.618 240.078C331.233 243.222 322.502 243.222 317.117 240.078C311.732 236.933 311.732 231.835 317.117 228.69C322.502 225.545 331.233 225.545 336.618 228.69Z" fill="#263238"/>
<path d="M317.118 234.068C322.503 230.923 331.234 230.923 336.619 234.068C337.928 234.776 339.037 235.804 339.843 237.054C339.035 238.306 337.927 239.335 336.619 240.049C331.234 243.193 322.503 243.193 317.118 240.049C315.812 239.333 314.705 238.304 313.895 237.054C314.703 235.805 315.811 234.778 317.118 234.068Z" fill="#FAFAFA"/>
<path d="M324.874 197.45C325.111 199.46 326.353 202.052 328.313 203.014C329.047 203.413 329.874 203.607 330.708 203.578C331.543 203.549 332.354 203.298 333.059 202.849C333.92 202.167 331.314 202.368 329.72 201.234C328.126 200.099 328.018 199.36 329.612 200.265C331.206 201.169 333.92 202.153 335.45 201.981C336.979 201.808 338.192 199.985 337.956 199.59C337.719 199.195 336.383 200.121 334.093 200.028C331.802 199.934 330.014 198.929 329.375 197.931C328.736 196.933 329.174 197.105 331.228 198.082C333.281 199.058 337.087 199.791 338.472 198.663C339.858 197.536 339.908 195.791 339.672 195.411C339.435 195.03 337.726 196.646 334.926 196.567C332.125 196.488 329.828 195.282 330.115 194.19C330.402 193.099 331.314 193.594 333.482 193.932C335.651 194.269 339.815 194.341 340.921 193.573C342.027 192.805 342.192 190.27 341.711 190.04C341.23 189.81 339.449 191.476 336.598 191.677C333.748 191.878 332.377 191.081 333.454 190.658C334.531 190.234 340.181 190.227 340.935 189.538C341.689 188.848 341.869 184.296 341.869 184.296C341.869 184.296 338.559 182.903 337.719 183.011C336.879 183.119 334.172 185.969 333.54 187.319C332.908 188.669 332.448 187.319 332.822 186.307C333.195 185.294 335.04 182.717 336.218 182.214C334.667 181.496 332.807 180.979 332.061 182.214C331.105 184.25 330.512 186.436 330.309 188.676C330.194 190.528 328.873 192.266 328.693 189.882C328.514 187.498 329.454 183.076 330.847 181.984C329.368 182.113 325.548 183.593 325.592 186.22C325.635 188.848 326.546 191.347 326.503 192.18C326.46 193.013 325.505 192.23 324.881 190.414C324.256 188.597 323.675 186.106 324.608 184.813C323.086 185.309 321.599 185.948 322.375 188.784C323.15 191.62 324.651 192.51 324.464 193.041C324.278 193.573 322.468 191.699 321.908 190.076C321.448 190.717 321.186 191.48 321.155 192.269C321.125 193.058 321.327 193.838 321.736 194.513C322.434 195.808 323.536 196.839 324.874 197.45Z" fill="#373873"/>
<path opacity="0.25" d="M324.874 197.45C325.111 199.46 326.353 202.052 328.313 203.014C329.047 203.413 329.874 203.607 330.708 203.578C331.543 203.549 332.354 203.298 333.059 202.849C333.92 202.167 331.314 202.368 329.72 201.234C328.126 200.099 328.018 199.36 329.612 200.265C331.206 201.169 333.92 202.153 335.45 201.981C336.979 201.808 338.192 199.985 337.956 199.59C337.719 199.195 336.383 200.121 334.093 200.028C331.802 199.934 330.014 198.929 329.375 197.931C328.736 196.933 329.174 197.105 331.228 198.082C333.281 199.058 337.087 199.791 338.472 198.663C339.858 197.536 339.908 195.791 339.672 195.411C339.435 195.03 337.726 196.646 334.926 196.567C332.125 196.488 329.828 195.282 330.115 194.19C330.402 193.099 331.314 193.594 333.482 193.932C335.651 194.269 339.815 194.341 340.921 193.573C342.027 192.805 342.192 190.27 341.711 190.04C341.23 189.81 339.449 191.476 336.598 191.677C333.748 191.878 332.377 191.081 333.454 190.658C334.531 190.234 340.181 190.227 340.935 189.538C341.689 188.848 341.869 184.296 341.869 184.296C341.869 184.296 338.559 182.903 337.719 183.011C336.879 183.119 334.172 185.969 333.54 187.319C332.908 188.669 332.448 187.319 332.822 186.307C333.195 185.294 335.04 182.717 336.218 182.214C334.667 181.496 332.807 180.979 332.061 182.214C331.105 184.25 330.512 186.436 330.309 188.676C330.194 190.528 328.873 192.266 328.693 189.882C328.514 187.498 329.454 183.076 330.847 181.984C329.368 182.113 325.548 183.593 325.592 186.22C325.635 188.848 326.546 191.347 326.503 192.18C326.46 193.013 325.505 192.23 324.881 190.414C324.256 188.597 323.675 186.106 324.608 184.813C323.086 185.309 321.599 185.948 322.375 188.784C323.15 191.62 324.651 192.51 324.464 193.041C324.278 193.573 322.468 191.699 321.908 190.076C321.448 190.717 321.186 191.48 321.155 192.269C321.125 193.058 321.327 193.838 321.736 194.513C322.434 195.808 323.536 196.839 324.874 197.45Z" fill="white"/>
<path d="M318.359 205.046C320.132 205.155 321.822 205.835 323.177 206.985C325.004 208.497 326.421 210.446 327.298 212.65C328.299 215.232 328.961 217.932 329.265 220.684C329.668 223.511 329.824 226.368 329.732 229.221C329.702 232.454 329.082 235.654 327.901 238.663C327.808 238.879 327.578 238.778 327.628 238.555C328.273 236.008 328.727 233.416 328.985 230.801C329.173 228.14 329.12 225.468 328.827 222.817C328.325 218.006 327.485 212.643 324.218 208.859C322.652 207.093 320.626 205.798 318.366 205.118C318.366 205.118 318.33 205.046 318.359 205.046Z" fill="#455A64"/>
<path d="M319.415 213.77C322.926 216.204 325.016 220.196 326.1 224.239C326.71 226.638 327.04 229.101 327.084 231.577C327.218 234.075 327.044 236.58 326.567 239.037C326.567 239.18 326.15 239.216 326.186 238.95C326.552 236.552 326.679 234.123 326.567 231.699C326.476 229.31 326.164 226.935 325.633 224.605C324.615 220.511 322.451 216.792 319.394 213.885C319.394 213.885 319.358 213.734 319.415 213.77Z" fill="#455A64"/>
<path d="M323.229 221.575C323.229 221.46 323.351 221.575 323.351 221.632C323.36 224.419 323.515 227.204 323.818 229.975C323.976 231.318 324.184 232.66 324.45 233.989C324.716 235.317 325.118 236.717 325.347 238.103C325.347 238.261 325.154 238.57 325.053 238.318C324.012 235.82 323.617 232.912 323.337 230.241C322.975 227.365 322.938 224.458 323.229 221.575Z" fill="#455A64"/>
<path d="M328.44 192.51C326.187 194.891 324.46 197.719 323.371 200.81C322.855 202.237 322.452 203.701 322.165 205.19C321.802 206.689 321.66 208.232 321.741 209.771C321.741 209.965 322.035 210.173 322.093 209.886C322.203 209.12 322.27 208.348 322.294 207.574C322.38 206.813 322.495 206.052 322.638 205.298C322.946 203.716 323.391 202.164 323.967 200.66C325.102 197.785 326.621 195.078 328.483 192.611C328.519 192.561 328.512 192.424 328.44 192.51Z" fill="#455A64"/>
<path d="M322.524 207.832C323.163 211.185 319.394 215.306 314.54 214.675C316.622 213.138 318.906 210.417 317.901 209.606C316.895 208.794 317.262 212.154 313.829 214.021C313.829 214.021 312.243 214.222 310.857 212.054C314.346 211.006 316.974 207.315 315.775 207.559C315.301 207.653 313.93 209.462 311.805 210.187C309.679 210.912 307.963 210.424 306.154 207.459C307.762 207.71 310.146 207.846 311.898 206.741C313.162 205.937 313.679 205.305 311.18 205.908C308.681 206.511 307.834 206.813 305.888 206.08C303.943 205.348 302.93 202.72 302.93 202.72C302.93 202.72 306.039 204.106 307.123 203.323C308.208 202.54 304.302 202.928 302.37 201.27C301.196 200.247 300.203 199.033 299.434 197.68C299.434 197.68 301.351 195.468 302.306 195.095C303.555 196.926 305.063 199.403 305.508 199.13C305.953 198.857 305.73 197.292 303.648 195.231C303.922 194.838 304.313 194.541 304.766 194.384C305.219 194.226 305.71 194.216 306.168 194.355C306.168 194.355 307.382 194.973 308.164 198.943C308.322 199.776 308.997 200.695 308.351 197.507C308.155 196.158 307.665 194.869 306.915 193.731C307.7 193.528 308.531 193.598 309.271 193.928C310.011 194.258 310.619 194.828 310.993 195.547C313.614 199.855 313.248 201.449 313.865 201.399C314.095 201.399 314.074 200.487 313.341 198.096C312.985 196.818 312.425 195.606 311.683 194.506C311.683 194.506 313.837 193.206 315.854 195.763C317.872 198.319 318.188 202.375 318.346 202.497C318.755 202.82 318.999 199.755 318.496 197.888C318.023 196.15 317.721 195.325 317.721 195.325C318.577 195.336 319.407 195.62 320.089 196.137C320.771 196.654 321.27 197.376 321.512 198.197C322.56 201.205 321.103 204.623 321.756 204.659C322.41 204.694 323.192 198.749 323.192 198.749C323.192 198.749 326.911 205.427 322.524 207.832Z" fill="#373873"/>
<path opacity="0.2" d="M322.524 207.832C323.163 211.185 319.394 215.306 314.54 214.675C316.622 213.138 318.906 210.417 317.901 209.606C316.895 208.794 317.262 212.154 313.829 214.021C313.829 214.021 312.243 214.222 310.857 212.054C314.346 211.006 316.974 207.315 315.775 207.559C315.301 207.653 313.93 209.462 311.805 210.187C309.679 210.912 307.963 210.424 306.154 207.459C307.762 207.71 310.146 207.846 311.898 206.741C313.162 205.937 313.679 205.305 311.18 205.908C308.681 206.511 307.834 206.813 305.888 206.08C303.943 205.348 302.93 202.72 302.93 202.72C302.93 202.72 306.039 204.106 307.123 203.323C308.208 202.54 304.302 202.928 302.37 201.27C301.196 200.247 300.203 199.033 299.434 197.68C299.434 197.68 301.351 195.468 302.306 195.095C303.555 196.926 305.063 199.403 305.508 199.13C305.953 198.857 305.73 197.292 303.648 195.231C303.922 194.838 304.313 194.541 304.766 194.384C305.219 194.226 305.71 194.216 306.168 194.355C306.168 194.355 307.382 194.973 308.164 198.943C308.322 199.776 308.997 200.695 308.351 197.507C308.155 196.158 307.665 194.869 306.915 193.731C307.7 193.528 308.531 193.598 309.271 193.928C310.011 194.258 310.619 194.828 310.993 195.547C313.614 199.855 313.248 201.449 313.865 201.399C314.095 201.399 314.074 200.487 313.341 198.096C312.985 196.818 312.425 195.606 311.683 194.506C311.683 194.506 313.837 193.206 315.854 195.763C317.872 198.319 318.188 202.375 318.346 202.497C318.755 202.82 318.999 199.755 318.496 197.888C318.023 196.15 317.721 195.325 317.721 195.325C318.577 195.336 319.407 195.62 320.089 196.137C320.771 196.654 321.27 197.376 321.512 198.197C322.56 201.205 321.103 204.623 321.756 204.659C322.41 204.694 323.192 198.749 323.192 198.749C323.192 198.749 326.911 205.427 322.524 207.832Z" fill="white"/>
<path d="M330.02 215.22C331.047 213.512 335.132 211.889 340.79 213.641C342.824 214.294 344.703 215.357 346.311 216.764C342.585 215.723 337.53 214.718 336.827 216.046C336.123 217.374 338.263 217.08 340.273 216.972C342.521 216.784 344.785 216.939 346.986 217.432C348.629 218.628 349.929 220.235 350.756 222.092C347.216 219.363 342.406 218.552 340.23 218.947C338.054 219.342 337.832 220.196 339.577 220.167C341.321 220.139 344.753 219.952 352.106 224.246C352.106 224.246 353.384 225.854 352.953 229.336C351.883 227.606 349.937 226.407 348.207 225.43C346.464 224.394 344.606 223.565 342.671 222.96C342.327 222.867 341.63 222.688 341.343 222.96C341.056 223.233 341.307 223.75 341.58 223.973C342.184 224.407 342.856 224.737 343.569 224.949C344.49 225.268 345.393 225.634 346.276 226.048C347.77 226.642 349.212 227.362 350.584 228.202C351.302 228.69 352.3 231.325 351.438 233.659C349.664 232.632 346.261 228.941 343.274 228.324C340.287 227.706 343.54 229.343 345.665 230.988C347.489 232.424 350.691 235.253 350.691 235.253C349.824 237.165 348.833 239.019 347.726 240.803C345.61 240.516 343.559 239.873 341.659 238.9C341.659 238.9 341.551 232.661 340.287 231.677C339.024 230.693 339.426 233.292 340.058 235.662C340.689 238.031 340.833 238.893 340.833 238.893C340.833 238.893 334.637 238.089 332.878 235.375C333.186 234.154 334.35 231.067 335.032 229.035C335.75 226.881 336.855 225.201 336.317 224.605C335.778 224.009 334.572 225.552 333.488 227.556C332.482 229.603 331.757 231.776 331.334 234.018C331.334 234.018 327.478 231.928 326.444 230.306C325.956 226.299 329.137 222.932 329.747 222.472C330.357 222.013 330.077 219.808 327.177 221.754C326.282 222.328 325.545 223.117 325.034 224.049C324.522 224.981 324.252 226.026 324.247 227.089C324.247 227.089 321.375 225.84 320.937 222.874C320.27 218.071 323.335 214.366 330.02 215.22Z" fill="#373873"/>
<path opacity="0.25" d="M330.02 215.22C331.047 213.512 335.132 211.889 340.79 213.641C342.824 214.294 344.703 215.357 346.311 216.764C342.585 215.723 337.53 214.718 336.827 216.046C336.123 217.374 338.263 217.08 340.273 216.972C342.521 216.784 344.785 216.939 346.986 217.432C348.629 218.628 349.929 220.235 350.756 222.092C347.216 219.363 342.406 218.552 340.23 218.947C338.054 219.342 337.832 220.196 339.577 220.167C341.321 220.139 344.753 219.952 352.106 224.246C352.106 224.246 353.384 225.854 352.953 229.336C351.883 227.606 349.937 226.407 348.207 225.43C346.464 224.394 344.606 223.565 342.671 222.96C342.327 222.867 341.63 222.688 341.343 222.96C341.056 223.233 341.307 223.75 341.58 223.973C342.184 224.407 342.856 224.737 343.569 224.949C344.49 225.268 345.393 225.634 346.276 226.048C347.77 226.642 349.212 227.362 350.584 228.202C351.302 228.69 352.3 231.325 351.438 233.659C349.664 232.632 346.261 228.941 343.274 228.324C340.287 227.706 343.54 229.343 345.665 230.988C347.489 232.424 350.691 235.253 350.691 235.253C349.824 237.165 348.833 239.019 347.726 240.803C345.61 240.516 343.559 239.873 341.659 238.9C341.659 238.9 341.551 232.661 340.287 231.677C339.024 230.693 339.426 233.292 340.058 235.662C340.689 238.031 340.833 238.893 340.833 238.893C340.833 238.893 334.637 238.089 332.878 235.375C333.186 234.154 334.35 231.067 335.032 229.035C335.75 226.881 336.855 225.201 336.317 224.605C335.778 224.009 334.572 225.552 333.488 227.556C332.482 229.603 331.757 231.776 331.334 234.018C331.334 234.018 327.478 231.928 326.444 230.306C325.956 226.299 329.137 222.932 329.747 222.472C330.357 222.013 330.077 219.808 327.177 221.754C326.282 222.328 325.545 223.117 325.034 224.049C324.522 224.981 324.252 226.026 324.247 227.089C324.247 227.089 321.375 225.84 320.937 222.874C320.27 218.071 323.335 214.366 330.02 215.22Z" fill="white"/>
<path d="M317.536 210.281C320.257 209.75 324.163 210.281 326.245 212.435C328.327 214.589 328.542 217.289 328.011 218.696C327.48 220.103 326.661 216.628 324.5 215.02C322.339 213.411 321.348 213.584 323.193 215.285C325.039 216.987 327.501 220.139 327.889 222.185C328.277 224.232 326.453 226.594 325.821 226.45C325.189 226.307 325.821 224.181 324.773 221.23C323.725 218.279 321.628 216.377 320.056 215.96C318.483 215.544 318.893 216.046 321.032 218.315C323.172 220.584 325.721 225.237 324.83 227.52C323.94 229.803 321.7 230.629 321.09 230.442C320.479 230.256 321.879 227.391 320.609 223.772C319.338 220.153 316.789 217.655 315.489 218.495C314.19 219.335 315.216 220.311 316.566 222.997C317.916 225.682 319.761 231.088 319.216 232.855C318.67 234.621 315.446 235.899 314.944 235.368C314.441 234.836 315.841 231.821 314.944 228.008C314.046 224.196 312.395 222.753 312.294 224.332C312.194 225.912 314.556 233.286 313.974 234.564C313.393 235.842 307.512 237.988 307.512 237.988C307.512 237.988 304.303 234.255 304.087 233.113C303.872 231.972 306.457 227.233 307.922 225.861C309.386 224.49 307.491 224.425 306.313 225.366C305.136 226.307 302.558 229.767 302.4 231.519C300.792 229.789 299.349 227.585 300.663 226.084C301.976 224.583 305.976 222.02 308.345 221.058C310.715 220.096 312.402 217.719 309.243 218.452C306.083 219.184 300.677 222.3 299.794 224.562C299.341 222.573 299.665 216.965 303.111 215.946C306.557 214.926 310.198 215.041 311.275 214.632C312.352 214.223 310.923 213.311 308.288 213.261C305.653 213.21 302.156 213.497 300.864 215.257C300.864 213.067 301.079 210.855 305.107 210.676C309.135 210.496 310.923 212.112 311.569 211.609C312.215 211.107 308.977 209.57 306.622 209.52C307.268 208.646 308.158 207.982 309.18 207.612C310.201 207.241 311.31 207.181 312.366 207.438C314.351 207.801 316.165 208.799 317.536 210.281Z" fill="#373873"/>
<path d="M330.199 203.294C330.098 200.422 333.351 198.031 335.411 198.031C333.753 199.31 332.848 201.485 333.688 200.573C335.447 198.656 336.625 197.629 339.367 197.026C340.161 196.854 340.985 196.891 341.761 197.132C342.536 197.374 343.235 197.812 343.79 198.405C341.891 198.61 340.041 199.137 338.319 199.963C337.501 200.387 335.447 201.708 338.168 200.516C342.476 198.635 344.731 199.475 344.731 199.475C345.933 199.965 346.953 200.816 347.653 201.909C344.365 200.473 340.545 201.7 339.13 202.16C337.716 202.619 336.797 203.862 339.13 203.05C341.464 202.239 346.174 201.995 348.385 203.689C350.597 205.384 351.214 209.254 351.214 209.254C351.214 209.254 343.166 204.529 341.651 206.159C342.074 207.229 348.924 208.414 350.683 209.979C352.442 211.544 352.227 216.441 352.227 216.441C352.227 216.441 347.158 218.25 345.521 217.978C343.884 217.705 342.017 212.111 340.99 211.594C339.963 211.078 339.913 215.989 342.297 219.155C342.297 219.155 339.992 220.591 338.707 218.846C337.422 217.102 336.553 212.693 336.897 210.41C337.242 208.127 335.619 209.268 335.296 211.042C334.973 212.815 335.074 216.391 336.223 218.286C336.223 218.286 332.798 218.207 331.398 217.015C329.997 215.824 330.917 210.625 331.821 209.031C332.726 207.437 331.168 207.129 330.263 208.722C329.358 210.316 328.49 214.366 328.949 216.039C326.271 213.921 324.605 210.474 325.955 206.849C327.327 203.036 330.199 203.294 330.199 203.294Z" fill="#373873"/>
<path d="M26.9545 257.044C21.7992 251.716 18.7693 238.376 23.7953 234.118H49.392C54.418 238.34 51.3952 251.709 46.24 257.037L46.1035 257.18L45.924 257.36C45.7804 257.503 45.6225 257.64 45.4573 257.776L45.3353 257.877C45.206 257.977 45.084 258.078 44.9404 258.171C44.7297 258.329 44.5091 258.473 44.2798 258.602C40.0364 261.079 33.158 261.079 28.9146 258.602C28.6823 258.47 28.457 258.326 28.2397 258.171C28.1105 258.078 27.9956 257.984 27.8807 257.891L27.7299 257.769C27.5648 257.64 27.4212 257.503 27.2776 257.367L27.0694 257.166L26.9545 257.044Z" fill="#37474F"/>
<path d="M47.1748 232.431C53.0122 235.841 53.0122 241.37 47.1748 244.78C41.3375 248.191 31.8599 248.191 26.0225 244.78C20.1852 241.37 20.1852 235.841 26.0225 232.438C31.8599 229.035 41.3303 229.042 47.1748 232.431Z" fill="#455A64"/>
<path d="M44.3575 234.068C48.6655 236.573 48.6655 240.63 44.3575 243.136C40.0495 245.642 33.1208 245.642 28.8272 243.136C24.5335 240.63 24.5192 236.573 28.8272 234.068C33.1352 231.562 40.0711 231.569 44.3575 234.068Z" fill="#263238"/>
<path d="M28.8283 238.376C33.1363 235.877 40.0721 235.877 44.3586 238.376C45.3992 238.946 46.2823 239.765 46.929 240.76C46.2823 241.754 45.3992 242.573 44.3586 243.143C40.0506 245.649 33.1219 245.649 28.8283 243.143C27.7876 242.573 26.9045 241.754 26.2578 240.76C26.9045 239.765 27.7876 238.946 28.8283 238.376Z" fill="#FAFAFA"/>
<path d="M34.874 204.242C32.9139 206.396 27.4571 206.956 25.2026 201.212C23.0486 195.827 20.8012 190.722 20.1766 188.74C20.0847 188.482 20.0459 188.208 20.0622 187.935C20.0786 187.661 20.1499 187.394 20.2719 187.149C20.3938 186.904 20.564 186.685 20.7721 186.507C20.9803 186.329 21.2221 186.195 21.4833 186.112C21.4833 186.112 21.6341 183.154 26.6529 185.157C31.6717 187.161 35.2043 190.183 37.4229 195.13C39.6415 200.077 38.2271 203.581 34.874 204.242Z" fill="#373873"/>
<path opacity="0.45" d="M34.874 204.242C32.9139 206.396 27.4571 206.956 25.2026 201.212C23.0486 195.827 20.8012 190.722 20.1766 188.74C20.0847 188.482 20.0459 188.208 20.0622 187.935C20.0786 187.661 20.1499 187.394 20.2719 187.149C20.3938 186.904 20.564 186.685 20.7721 186.507C20.9803 186.329 21.2221 186.195 21.4833 186.112C21.4833 186.112 21.6341 183.154 26.6529 185.157C31.6717 187.161 35.2043 190.183 37.4229 195.13C39.6415 200.077 38.2271 203.581 34.874 204.242Z" fill="white"/>
<path d="M37.0396 211.81C36.9539 210.804 36.81 209.804 36.6088 208.816C36.1916 206.852 35.635 204.92 34.943 203.036C33.5339 199.199 31.5775 195.586 29.1344 192.309C27.7778 190.442 26.2489 188.706 24.5679 187.125C24.5105 187.082 24.4746 187.197 24.5105 187.232C27.3358 190.189 29.7507 193.512 31.6905 197.112C33.5509 200.652 34.9412 204.42 35.8261 208.32C36.0774 209.411 36.3072 210.51 36.5441 211.609C36.7811 212.707 36.8672 213.856 37.0539 214.976C37.0539 215.091 37.2478 215.155 37.255 214.976C37.2644 213.917 37.1924 212.858 37.0396 211.81Z" fill="#373873"/>
<path opacity="0.3" d="M37.0396 211.81C36.9539 210.804 36.81 209.804 36.6088 208.816C36.1916 206.852 35.635 204.92 34.943 203.036C33.5339 199.199 31.5775 195.586 29.1344 192.309C27.7778 190.442 26.2489 188.706 24.5679 187.125C24.5105 187.082 24.4746 187.197 24.5105 187.232C27.3358 190.189 29.7507 193.512 31.6905 197.112C33.5509 200.652 34.9412 204.42 35.8261 208.32C36.0774 209.411 36.3072 210.51 36.5441 211.609C36.7811 212.707 36.8672 213.856 37.0539 214.976C37.0539 215.091 37.2478 215.155 37.255 214.976C37.2644 213.917 37.1924 212.858 37.0396 211.81Z" fill="black"/>
<path d="M38.7214 202.756C34.2124 204.149 30.8665 200.602 32.0297 195.116C33.1928 189.631 38.9799 183.485 41.1626 185.129C42.5268 183.765 45.5424 184.253 46.9569 188.719C48.3713 193.185 47.0861 204.709 38.7214 202.756Z" fill="#373873"/>
<path opacity="0.25" d="M38.7214 202.756C34.2124 204.149 30.8665 200.602 32.0297 195.116C33.1928 189.631 38.9799 183.485 41.1626 185.129C42.5268 183.765 45.5424 184.253 46.9569 188.719C48.3713 193.185 47.0861 204.709 38.7214 202.756Z" fill="white"/>
<path d="M41.3624 188.482C40.0815 191.693 39.0798 195.008 38.3683 198.391C37.5986 201.813 37.0137 205.274 36.6164 208.758C35.8939 215.509 35.5942 222.297 35.7189 229.085C35.7189 230.966 35.7548 232.84 35.7907 234.714C35.8266 236.588 35.7907 238.599 35.963 240.523C36.0276 241.241 37.0759 241.061 37.0903 240.386C37.1549 237.012 36.9682 233.616 36.9323 230.241C36.8964 226.866 36.9323 223.564 36.9969 220.225C37.112 213.421 37.7215 206.635 38.8207 199.92C39.1438 198.053 39.4956 196.186 39.9336 194.341C40.3715 192.496 40.9531 190.485 41.4629 188.561C41.4916 188.482 41.4055 188.382 41.3624 188.482Z" fill="#373873"/>
<path opacity="0.3" d="M41.3624 188.482C40.0815 191.693 39.0798 195.008 38.3683 198.391C37.5986 201.813 37.0137 205.274 36.6164 208.758C35.8939 215.509 35.5942 222.297 35.7189 229.085C35.7189 230.966 35.7548 232.84 35.7907 234.714C35.8266 236.588 35.7907 238.599 35.963 240.523C36.0276 241.241 37.0759 241.061 37.0903 240.386C37.1549 237.012 36.9682 233.616 36.9323 230.241C36.8964 226.866 36.9323 223.564 36.9969 220.225C37.112 213.421 37.7215 206.635 38.8207 199.92C39.1438 198.053 39.4956 196.186 39.9336 194.341C40.3715 192.496 40.9531 190.485 41.4629 188.561C41.4916 188.482 41.4055 188.382 41.3624 188.482Z" fill="black"/>
<path d="M31.3907 218.925C29.4233 221.151 24.9287 220.95 21.8843 216.979C18.84 213.009 17.045 198.053 21.3028 199.029C22.2074 197.033 33.9683 201.822 35.4761 211.58C36.5746 218.652 31.3907 218.925 31.3907 218.925Z" fill="#373873"/>
<path opacity="0.25" d="M31.3907 218.925C29.4233 221.151 24.9287 220.95 21.8843 216.979C18.84 213.009 17.045 198.053 21.3028 199.029C22.2074 197.033 33.9683 201.822 35.4761 211.58C36.5746 218.652 31.3907 218.925 31.3907 218.925Z" fill="white"/>
<path d="M34.909 225.983C34.776 225.064 34.5817 224.155 34.3275 223.262C33.8488 221.433 33.2648 219.631 32.5755 217.855C31.1802 214.246 29.4191 210.788 27.3198 207.537C26.1903 205.704 24.9457 203.944 23.5934 202.267C23.5934 202.224 23.5216 202.325 23.5431 202.361C24.5914 203.89 25.654 205.405 26.6018 207.006C27.5761 208.669 28.4651 210.38 29.2656 212.133C30.8276 215.495 32.1263 218.973 33.1499 222.537C33.4371 223.549 33.6741 224.576 33.9685 225.588C34.2628 226.6 34.6865 227.663 34.9378 228.718C34.9737 228.876 35.1747 228.934 35.1532 228.718C35.0598 227.814 35.0311 226.888 34.909 225.983Z" fill="#373873"/>
<path opacity="0.3" d="M34.909 225.983C34.776 225.064 34.5817 224.155 34.3275 223.262C33.8488 221.433 33.2648 219.631 32.5755 217.855C31.1802 214.246 29.4191 210.788 27.3198 207.537C26.1903 205.704 24.9457 203.944 23.5934 202.267C23.5934 202.224 23.5216 202.325 23.5431 202.361C24.5914 203.89 25.654 205.405 26.6018 207.006C27.5761 208.669 28.4651 210.38 29.2656 212.133C30.8276 215.495 32.1263 218.973 33.1499 222.537C33.4371 223.549 33.6741 224.576 33.9685 225.588C34.2628 226.6 34.6865 227.663 34.9378 228.718C34.9737 228.876 35.1747 228.934 35.1532 228.718C35.0598 227.814 35.0311 226.888 34.909 225.983Z" fill="black"/>
<path d="M38.5922 216.714C36.0146 216.125 35.8853 213.038 39.102 209.239C42.3186 205.441 50.432 203.79 50.8125 205.391C52.6147 205.391 52.6147 211.034 48.6585 216.218C44.7024 221.402 38.8291 220.196 38.5922 216.714Z" fill="#373873"/>
<path opacity="0.25" d="M38.5922 216.714C36.0146 216.125 35.8853 213.038 39.102 209.239C42.3186 205.441 50.432 203.79 50.8125 205.391C52.6147 205.391 52.6147 211.034 48.6585 216.218C44.7024 221.402 38.8291 220.196 38.5922 216.714Z" fill="white"/>
<path d="M43.6315 211.192C40.2296 213.57 37.6305 216.925 36.1787 220.813C36.0997 221.036 36.4802 221.359 36.5664 221.115C38.0272 217.266 40.4675 213.866 43.6459 211.25C43.6459 211.25 43.6674 211.171 43.6315 211.192Z" fill="#373873"/>
<path opacity="0.3" d="M43.6315 211.192C40.2296 213.57 37.6305 216.925 36.1787 220.813C36.0997 221.036 36.4802 221.359 36.5664 221.115C38.0272 217.266 40.4675 213.866 43.6459 211.25C43.6459 211.25 43.6674 211.171 43.6315 211.192Z" fill="black"/>
<path d="M41.5286 235.547C37.9386 236.983 39.4966 241.233 42.9646 244.464C45.9771 247.081 49.8605 248.475 53.8495 248.37C56.2404 248.198 56.8507 247.868 56.8507 247.868C57.0663 245.906 57.0663 243.927 56.8507 241.966C56.4649 239.809 55.4673 237.809 53.9765 236.204C52.4858 234.599 50.565 233.456 48.4429 232.912C42.8641 231.411 41.5286 233.422 41.5286 235.547Z" fill="#373873"/>
<path opacity="0.45" d="M41.5286 235.547C37.9386 236.983 39.4966 241.233 42.9646 244.464C45.9771 247.081 49.8605 248.475 53.8495 248.37C56.2404 248.198 56.8507 247.868 56.8507 247.868C57.0663 245.906 57.0663 243.927 56.8507 241.966C56.4649 239.809 55.4673 237.809 53.9765 236.204C52.4858 234.599 50.565 233.456 48.4429 232.912C42.8641 231.411 41.5286 233.422 41.5286 235.547Z" fill="white"/>
<path d="M51.4005 241.815C49.8052 239.912 47.9711 238.223 45.9437 236.789C43.9117 235.454 41.2049 234.312 38.7637 235.145C37.8159 235.468 36.3512 236.409 36.5307 237.572C36.5307 237.694 36.7533 237.981 36.8897 237.816C37.2672 237.276 37.6977 236.776 38.1749 236.323C38.7358 235.912 39.3991 235.663 40.092 235.605C41.8427 235.476 43.5922 235.871 45.118 236.739C47.5305 238.017 49.4762 239.999 51.3933 241.901C51.3933 241.894 51.4148 241.837 51.4005 241.815Z" fill="#373873"/>
<path opacity="0.3" d="M51.4005 241.815C49.8052 239.912 47.9711 238.223 45.9437 236.789C43.9117 235.454 41.2049 234.312 38.7637 235.145C37.8159 235.468 36.3512 236.409 36.5307 237.572C36.5307 237.694 36.7533 237.981 36.8897 237.816C37.2672 237.276 37.6977 236.776 38.1749 236.323C38.7358 235.912 39.3991 235.663 40.092 235.605C41.8427 235.476 43.5922 235.871 45.118 236.739C47.5305 238.017 49.4762 239.999 51.3933 241.901C51.3933 241.894 51.4148 241.837 51.4005 241.815Z" fill="black"/>
<path d="M27.9509 217.288C28.2956 215.665 25.9477 211.774 18.6169 211.034C11.2862 210.295 5.85091 213.389 4.74519 214.804C3.63947 216.218 3.08661 217.712 4.40773 218.085C5.72885 218.459 10.3025 218.896 13.3037 220.282C16.305 221.668 22.4008 225.739 26.5652 224.526C30.7296 223.312 30.026 218.904 27.9509 217.288Z" fill="#373873"/>
<path opacity="0.45" d="M27.9509 217.288C28.2956 215.665 25.9477 211.774 18.6169 211.034C11.2862 210.295 5.85091 213.389 4.74519 214.804C3.63947 216.218 3.08661 217.712 4.40773 218.085C5.72885 218.459 10.3025 218.896 13.3037 220.282C16.305 221.668 22.4008 225.739 26.5652 224.526C30.7296 223.312 30.026 218.904 27.9509 217.288Z" fill="white"/>
<path d="M33.5076 222.946C30.4274 216.578 22.4791 214.639 15.9884 214.675C13.8491 214.681 11.7192 214.956 9.64844 215.493C9.64844 215.493 9.64844 215.572 9.64844 215.565C13.149 214.975 16.7207 214.941 20.2318 215.465C23.7044 215.918 27.0182 217.195 29.896 219.191C31.2977 220.239 32.4746 221.557 33.3568 223.068C33.4573 223.226 33.5722 223.075 33.5076 222.946Z" fill="#373873"/>
<path opacity="0.3" d="M33.5076 222.946C30.4274 216.578 22.4791 214.639 15.9884 214.675C13.8491 214.681 11.7192 214.956 9.64844 215.493C9.64844 215.493 9.64844 215.572 9.64844 215.565C13.149 214.975 16.7207 214.941 20.2318 215.465C23.7044 215.918 27.0182 217.195 29.896 219.191C31.2977 220.239 32.4746 221.557 33.3568 223.068C33.4573 223.226 33.5722 223.075 33.5076 222.946Z" fill="black"/>
<path d="M44.9904 208.758C44.8899 211.315 48.4943 212.801 51.9766 210.589C55.4589 208.378 59.1063 206.224 62.3301 205.391C65.5539 204.558 67.0904 201.923 66.0709 200.652C65.0513 199.381 63.4287 196.165 54.9491 197.213C46.4695 198.261 43.4611 202.088 42.2979 204.781C41.1348 207.473 43.7124 209.491 44.9904 208.758Z" fill="#373873"/>
<path opacity="0.45" d="M44.9904 208.758C44.8899 211.315 48.4943 212.801 51.9766 210.589C55.4589 208.378 59.1063 206.224 62.3301 205.391C65.5539 204.558 67.0904 201.923 66.0709 200.652C65.0513 199.381 63.4287 196.165 54.9491 197.213C46.4695 198.261 43.4611 202.088 42.2979 204.781C41.1348 207.473 43.7124 209.491 44.9904 208.758Z" fill="white"/>
<path d="M58.7884 200.638C57.5637 200.522 56.3282 200.654 55.1554 201.025C54.0845 201.299 53.0414 201.672 52.0392 202.138C50.0412 203.068 48.24 204.372 46.7332 205.98C46.3031 206.432 45.9026 206.912 45.5342 207.416C45.1634 207.879 44.8589 208.391 44.6295 208.938C44.572 209.11 44.8233 209.383 44.9669 209.211C45.3906 208.73 45.6849 208.134 46.0942 207.624C46.5205 207.078 46.9784 206.558 47.4656 206.066C48.4445 205.076 49.5417 204.21 50.7325 203.488C51.8682 202.783 53.0707 202.191 54.3225 201.722C55.0405 201.471 55.7585 201.27 56.4334 201.09C57.1817 200.859 57.9626 200.753 58.7454 200.774C58.7454 200.774 58.8315 200.645 58.7884 200.638Z" fill="#373873"/>
<path opacity="0.3" d="M58.7884 200.638C57.5637 200.522 56.3282 200.654 55.1554 201.025C54.0845 201.299 53.0414 201.672 52.0392 202.138C50.0412 203.068 48.24 204.372 46.7332 205.98C46.3031 206.432 45.9026 206.912 45.5342 207.416C45.1634 207.879 44.8589 208.391 44.6295 208.938C44.572 209.11 44.8233 209.383 44.9669 209.211C45.3906 208.73 45.6849 208.134 46.0942 207.624C46.5205 207.078 46.9784 206.558 47.4656 206.066C48.4445 205.076 49.5417 204.21 50.7325 203.488C51.8682 202.783 53.0707 202.191 54.3225 201.722C55.0405 201.471 55.7585 201.27 56.4334 201.09C57.1817 200.859 57.9626 200.753 58.7454 200.774C58.7454 200.774 58.8315 200.645 58.7884 200.638Z" fill="black"/>
<path d="M38.8986 222.58C37.7067 221.388 34.4829 221.668 32.9535 225.179C31.4242 228.69 34.6337 232.538 34.9927 233.615C36.4287 232.768 37.6134 233.271 40.2053 232.768C41.6511 232.427 42.9352 231.598 43.8414 230.421C44.7477 229.244 45.2208 227.791 45.1811 226.306C45.0088 223.068 43.6517 220.942 38.8986 222.58Z" fill="#373873"/>
<path opacity="0.45" d="M38.8986 222.58C37.7067 221.388 34.4829 221.668 32.9535 225.179C31.4242 228.69 34.6337 232.538 34.9927 233.615C36.4287 232.768 37.6134 233.271 40.2053 232.768C41.6511 232.427 42.9352 231.598 43.8414 230.421C44.7477 229.244 45.2208 227.791 45.1811 226.306C45.0088 223.068 43.6517 220.942 38.8986 222.58Z" fill="white"/>
<path d="M38.8572 222.207C38.2087 222.617 37.6672 223.175 37.2776 223.836C36.8577 224.447 36.5152 225.108 36.258 225.804C35.7032 227.226 35.5492 228.773 35.8129 230.277C35.8129 230.334 35.8703 230.277 35.8631 230.277C35.7363 228.766 35.9829 227.247 36.5811 225.854C36.8764 225.2 37.2475 224.583 37.6868 224.016C37.9086 223.726 38.1484 223.45 38.4048 223.19C38.655 222.987 38.8835 222.758 39.0869 222.508C39.1731 222.408 39.0367 222.113 38.8572 222.207Z" fill="#373873"/>
<path opacity="0.3" d="M38.8572 222.207C38.2087 222.617 37.6672 223.175 37.2776 223.836C36.8577 224.447 36.5152 225.108 36.258 225.804C35.7032 227.226 35.5492 228.773 35.8129 230.277C35.8129 230.334 35.8703 230.277 35.8631 230.277C35.7363 228.766 35.9829 227.247 36.5811 225.854C36.8764 225.2 37.2475 224.583 37.6868 224.016C37.9086 223.726 38.1484 223.45 38.4048 223.19C38.655 222.987 38.8835 222.758 39.0869 222.508C39.1731 222.408 39.0367 222.113 38.8572 222.207Z" fill="black"/>
<path d="M33.3076 229.674C33.1927 227.06 30.3638 224.992 26.3286 223.793C24.3489 223.172 22.2336 223.125 20.2281 223.657C18.2227 224.19 16.4094 225.28 14.9986 226.802C12.0548 230.004 10.5326 232.725 11.7317 233.486C12.9308 234.247 18.2655 236.215 21.7837 237.306C25.3019 238.398 29.8468 238.742 33.3363 236.653C36.8258 234.563 36.5745 230.981 33.3076 229.674Z" fill="#373873"/>
<path opacity="0.25" d="M33.3076 229.674C33.1927 227.06 30.3638 224.992 26.3286 223.793C24.3489 223.172 22.2336 223.125 20.2281 223.657C18.2227 224.19 16.4094 225.28 14.9986 226.802C12.0548 230.004 10.5326 232.725 11.7317 233.486C12.9308 234.247 18.2655 236.215 21.7837 237.306C25.3019 238.398 29.8468 238.742 33.3363 236.653C36.8258 234.563 36.5745 230.981 33.3076 229.674Z" fill="white"/>
<path d="M33.5311 229.379C32.1666 228.694 30.6759 228.295 29.1513 228.209C27.6912 228.07 26.2203 228.089 24.7643 228.266C23.2249 228.454 21.7044 228.774 20.2194 229.221C19.4439 229.451 18.6685 229.709 17.9146 229.989C17.187 230.223 16.4788 230.514 15.7965 230.858C15.7965 230.858 15.7534 230.959 15.7965 230.944C16.5145 230.794 17.2325 230.506 17.9505 230.284C18.6685 230.061 19.5157 229.81 20.2984 229.609C21.7688 229.216 23.2663 228.933 24.7787 228.762C26.2912 228.589 27.8183 228.589 29.3308 228.762C30.7406 228.985 32.1306 229.318 33.488 229.76C33.7465 229.867 33.6891 229.472 33.5311 229.379Z" fill="#373873"/>
<path opacity="0.3" d="M33.5311 229.379C32.1666 228.694 30.6759 228.295 29.1513 228.209C27.6912 228.07 26.2203 228.089 24.7643 228.266C23.2249 228.454 21.7044 228.774 20.2194 229.221C19.4439 229.451 18.6685 229.709 17.9146 229.989C17.187 230.223 16.4788 230.514 15.7965 230.858C15.7965 230.858 15.7534 230.959 15.7965 230.944C16.5145 230.794 17.2325 230.506 17.9505 230.284C18.6685 230.061 19.5157 229.81 20.2984 229.609C21.7688 229.216 23.2663 228.933 24.7787 228.762C26.2912 228.589 27.8183 228.589 29.3308 228.762C30.7406 228.985 32.1306 229.318 33.488 229.76C33.7465 229.867 33.6891 229.472 33.5311 229.379Z" fill="black"/>
<path d="M41.6442 225.782C38.7722 223.492 39.7271 217.999 49.8078 217.705C59.8886 217.41 67.0829 220.045 66.7742 223.298C68.3969 224.921 67.5712 229.465 59.4075 230.887C51.2438 232.309 39.5404 231.591 41.6442 225.782Z" fill="#373873"/>
<path opacity="0.25" d="M41.6442 225.782C38.7722 223.492 39.7271 217.999 49.8078 217.705C59.8886 217.41 67.0829 220.045 66.7742 223.298C68.3969 224.921 67.5712 229.465 59.4075 230.887C51.2438 232.309 39.5404 231.591 41.6442 225.782Z" fill="white"/>
<path d="M62.0119 223.298C59.0349 222.808 56.015 222.63 53.001 222.766C50.2009 222.751 47.4093 223.075 44.6866 223.728C43.9881 223.919 43.3081 224.171 42.6547 224.482C42.3514 224.623 42.0566 224.781 41.7715 224.956C41.5418 225.093 41.2833 225.215 41.2043 225.48C41.196 225.523 41.1979 225.566 41.2098 225.608C41.2216 225.649 41.2432 225.687 41.2726 225.719C41.302 225.75 41.3385 225.774 41.3791 225.789C41.4196 225.804 41.4631 225.809 41.5059 225.803C42.1175 225.565 42.7063 225.272 43.2649 224.927C43.8351 224.678 44.4202 224.465 45.0169 224.288C46.1637 223.956 47.3354 223.715 48.5207 223.57C51.3429 223.221 54.1856 223.065 57.029 223.104C58.6876 223.104 60.339 223.255 61.9904 223.384C62.0406 223.441 62.0622 223.334 62.0119 223.298Z" fill="#373873"/>
<path opacity="0.3" d="M62.0119 223.298C59.0349 222.808 56.015 222.63 53.001 222.766C50.2009 222.751 47.4093 223.075 44.6866 223.728C43.9881 223.919 43.3081 224.171 42.6547 224.482C42.3514 224.623 42.0566 224.781 41.7715 224.956C41.5418 225.093 41.2833 225.215 41.2043 225.48C41.196 225.523 41.1979 225.566 41.2098 225.608C41.2216 225.649 41.2432 225.687 41.2726 225.719C41.302 225.75 41.3385 225.774 41.3791 225.789C41.4196 225.804 41.4631 225.809 41.5059 225.803C42.1175 225.565 42.7063 225.272 43.2649 224.927C43.8351 224.678 44.4202 224.465 45.0169 224.288C46.1637 223.956 47.3354 223.715 48.5207 223.57C51.3429 223.221 54.1856 223.065 57.029 223.104C58.6876 223.104 60.339 223.255 61.9904 223.384C62.0406 223.441 62.0622 223.334 62.0119 223.298Z" fill="black"/>
<path d="M218.432 301.273L146.474 259.73C145.158 258.872 144.064 257.717 143.279 256.357C142.494 254.997 142.042 253.471 141.957 251.903V72.949L142.309 73.1573C156.195 81.2132 204.991 109.28 213.851 114.449C214.353 114.739 214.818 115.089 215.236 115.491C217.13 117.27 218.267 119.71 218.41 122.304L218.432 301.273ZM232.368 105.855C232.255 103.779 231.655 101.76 230.616 99.9597C229.577 98.1596 228.128 96.6297 226.387 95.4942L141.807 46.6702C138.497 44.7675 134.67 45.5789 132.343 46.9215C130.017 48.2642 127.404 49.7146 127.404 54.9847V261.352C127.382 262.917 127.657 264.471 128.215 265.933C129.211 268.408 131.043 270.456 133.392 271.72L217.972 320.544C221.275 322.447 225.332 320.982 227.658 319.639C229.984 318.297 232.375 316.049 232.375 312.23L232.368 105.855Z" fill="#373873"/>
<path d="M232.367 105.855V312.237C232.367 316.049 229.969 318.304 227.65 319.646C225.331 320.989 221.267 322.454 217.964 320.551L133.384 271.727C131.035 270.463 129.203 268.415 128.207 265.94L128.544 265.753L129.471 265.215C130.262 267.278 131.688 269.038 133.542 270.241L216.112 317.916C219.659 319.962 222.574 318.289 222.574 314.197V109.445C222.519 107.987 222.096 106.567 221.346 105.316L230.623 99.96C231.698 101.744 232.298 103.773 232.367 105.855Z" fill="#373873"/>
<path opacity="0.4" d="M232.367 105.855V312.237C232.367 316.049 229.969 318.304 227.65 319.646C225.331 320.989 221.267 322.454 217.964 320.551L133.384 271.727C131.035 270.463 129.203 268.415 128.207 265.94L128.544 265.753L129.471 265.215C130.262 267.278 131.688 269.038 133.542 270.241L216.112 317.916C219.659 319.962 222.574 318.289 222.574 314.197V109.445C222.519 107.987 222.096 106.567 221.346 105.316L230.623 99.96C231.698 101.744 232.298 103.773 232.367 105.855Z" fill="black"/>
<path d="M218.431 301.273L146.473 259.729C145.158 258.872 144.064 257.716 143.279 256.357C142.494 254.997 142.041 253.471 141.957 251.903V72.9488L142.309 73.1571C156.195 81.213 204.99 109.28 213.851 114.449C214.353 114.739 214.818 115.089 215.236 115.49C217.13 117.27 218.266 119.71 218.41 122.304L218.431 301.273ZM222.581 109.445C222.502 107.989 222.08 106.572 221.35 105.31C220.62 104.047 219.603 102.974 218.381 102.179L133.549 53.2038C130.929 51.6889 128.789 52.931 128.789 55.9538V261.977C128.821 263.089 129.065 264.186 129.507 265.208C130.299 267.271 131.724 269.031 133.578 270.234L216.148 317.909C219.695 319.955 222.61 318.282 222.61 314.19L222.581 109.445Z" fill="#373873"/>
<path opacity="0.2" d="M218.431 301.273L146.473 259.729C145.158 258.872 144.064 257.716 143.279 256.357C142.494 254.997 142.041 253.471 141.957 251.903V72.9488L142.309 73.1571C156.195 81.213 204.99 109.28 213.851 114.449C214.353 114.739 214.818 115.089 215.236 115.49C217.13 117.27 218.266 119.71 218.41 122.304L218.431 301.273ZM222.581 109.445C222.502 107.989 222.08 106.572 221.35 105.31C220.62 104.047 219.603 102.974 218.381 102.179L133.549 53.2038C130.929 51.6889 128.789 52.931 128.789 55.9538V261.977C128.821 263.089 129.065 264.186 129.507 265.208C130.299 267.271 131.724 269.031 133.578 270.234L216.148 317.909C219.695 319.955 222.61 318.282 222.61 314.19L222.581 109.445Z" fill="black"/>
<path d="M225.34 129.499C225.37 128.705 225.585 127.93 225.969 127.236C226.353 126.541 226.895 125.946 227.551 125.499C227.767 125.339 228.023 125.243 228.291 125.221C228.559 125.2 228.828 125.254 229.066 125.377C229.346 125.542 230.438 126.153 230.725 126.325C230.972 126.501 231.169 126.739 231.295 127.015C231.421 127.291 231.472 127.595 231.443 127.897V155.612C231.417 156.406 231.202 157.183 230.818 157.878C230.434 158.573 229.89 159.167 229.231 159.612C229.025 159.757 228.785 159.847 228.534 159.875C228.283 159.902 228.029 159.866 227.795 159.769C227.487 159.604 226.359 158.958 226.087 158.786C225.84 158.611 225.644 158.374 225.518 158.099C225.392 157.825 225.34 157.522 225.369 157.221L225.34 129.499Z" fill="#373873"/>
<path opacity="0.2" d="M225.34 129.499C225.37 128.705 225.585 127.93 225.969 127.236C226.353 126.541 226.895 125.946 227.551 125.499C227.767 125.339 228.023 125.243 228.291 125.221C228.559 125.2 228.828 125.254 229.066 125.377C229.346 125.542 230.438 126.153 230.725 126.325C230.972 126.501 231.169 126.739 231.295 127.015C231.421 127.291 231.472 127.595 231.443 127.897V155.612C231.417 156.406 231.202 157.183 230.818 157.878C230.434 158.573 229.89 159.167 229.231 159.612C229.025 159.757 228.785 159.847 228.534 159.875C228.283 159.902 228.029 159.866 227.795 159.769C227.487 159.604 226.359 158.958 226.087 158.786C225.84 158.611 225.644 158.374 225.518 158.099C225.392 157.825 225.34 157.522 225.369 157.221L225.34 129.499Z" fill="black"/>
<path d="M226.988 130.447V158.169C226.988 159.669 227.979 160.323 229.2 159.605C229.858 159.16 230.402 158.566 230.786 157.871C231.171 157.176 231.385 156.399 231.411 155.605V127.89C231.411 126.383 230.427 125.736 229.2 126.454C228.544 126.9 228.003 127.494 227.619 128.187C227.234 128.881 227.019 129.654 226.988 130.447Z" fill="#373873"/>
<path opacity="0.35" d="M226.988 130.447V158.169C226.988 159.669 227.979 160.323 229.2 159.605C229.858 159.16 230.402 158.566 230.786 157.871C231.171 157.176 231.385 156.399 231.411 155.605V127.89C231.411 126.383 230.427 125.736 229.2 126.454C228.544 126.9 228.003 127.494 227.619 128.187C227.234 128.881 227.019 129.654 226.988 130.447Z" fill="black"/>
<path d="M166.909 78.7001C166.133 78.2621 165.473 78.6211 165.473 79.5115C165.503 79.9998 165.649 80.4741 165.898 80.8948C166.148 81.3156 166.494 81.6709 166.909 81.9311C167.677 82.3835 168.302 82.0173 168.302 81.127C168.275 80.6419 168.135 80.1698 167.893 79.7484C167.651 79.327 167.314 78.968 166.909 78.7001ZM184.299 89.2834L172.811 82.6491C172.136 82.2614 171.576 82.5414 171.576 83.281C171.606 83.697 171.734 84.1001 171.948 84.458C172.163 84.8158 172.458 85.1185 172.811 85.3416L184.299 91.9759C184.974 92.378 185.534 92.0908 185.534 91.3513C185.501 90.9347 185.373 90.5312 185.159 90.1724C184.944 89.8137 184.65 89.5094 184.299 89.2834Z" fill="#373873"/>
<path opacity="0.6" d="M166.909 78.7001C166.133 78.2621 165.473 78.6211 165.473 79.5115C165.503 79.9998 165.649 80.4741 165.898 80.8948C166.148 81.3156 166.494 81.6709 166.909 81.9311C167.677 82.3835 168.302 82.0173 168.302 81.127C168.275 80.6419 168.135 80.1698 167.893 79.7484C167.651 79.327 167.314 78.968 166.909 78.7001ZM184.299 89.2834L172.811 82.6491C172.136 82.2614 171.576 82.5414 171.576 83.281C171.606 83.697 171.734 84.1001 171.948 84.458C172.163 84.8158 172.458 85.1185 172.811 85.3416L184.299 91.9759C184.974 92.378 185.534 92.0908 185.534 91.3513C185.501 90.9347 185.373 90.5312 185.159 90.1724C184.944 89.8137 184.65 89.5094 184.299 89.2834Z" fill="black"/>
<path opacity="0.4" d="M218.432 301.273V306.507C218.432 309.379 216.407 310.564 213.916 309.114L137.441 264.942C136.124 264.085 135.028 262.928 134.242 261.567C133.456 260.206 133.002 258.679 132.918 257.109V74.3206C132.918 70.6803 135.496 69.2012 138.662 71.0178L140.012 71.8004L140.486 72.0732L141.168 72.4681L141.742 72.8056C141.811 72.852 141.883 72.8928 141.958 72.9277V251.904C142.042 253.471 142.495 254.997 143.279 256.357C144.064 257.717 145.159 258.872 146.474 259.73L218.432 301.273Z" fill="black"/>
<path opacity="0.6" d="M142.496 262.235C141.226 261.41 140.17 260.296 139.412 258.985C138.655 257.673 138.218 256.201 138.137 254.689V71.8793C138.138 71.5183 138.169 71.158 138.231 70.8023C138.028 70.7016 137.819 70.6129 137.606 70.5366C137.517 70.9786 137.474 71.4285 137.477 71.8793V254.689C137.566 256.313 138.037 257.893 138.851 259.3C139.666 260.707 140.802 261.903 142.165 262.788L218.417 306.823C218.417 306.716 218.417 306.608 218.417 306.493V306.069L142.496 262.235Z" fill="#373873"/>
<path opacity="0.2" d="M142.496 262.235C141.226 261.41 140.17 260.296 139.412 258.985C138.655 257.673 138.218 256.201 138.137 254.689V71.8793C138.138 71.5183 138.169 71.158 138.231 70.8023C138.028 70.7016 137.819 70.6129 137.606 70.5366C137.517 70.9786 137.474 71.4285 137.477 71.8793V254.689C137.566 256.313 138.037 257.893 138.851 259.3C139.666 260.707 140.802 261.903 142.165 262.788L218.417 306.823C218.417 306.716 218.417 306.608 218.417 306.493V306.069L142.496 262.235Z" fill="white"/>
<path d="M180.598 217.238L213.116 198.448V175.343L213.798 174.948V165.363L180.598 184.533V217.238Z" fill="#373873"/>
<g opacity="0.45">
<path d="M180.598 217.238L213.116 198.448V175.343L213.798 174.948V165.363L180.598 184.533V217.238Z" fill="white"/>
</g>
<path opacity="0.15" d="M180.598 194.118L193.048 186.931L213.116 175.343V176.721L180.598 195.49V194.118Z" fill="black"/>
<path d="M180.599 217.238L148.267 198.585V175.444L147.398 174.948V165.363L180.599 184.533V217.238Z" fill="#373873"/>
<path opacity="0.3" d="M180.599 217.238L148.267 198.585V175.444L147.398 174.948V165.363L180.599 184.533V217.238Z" fill="white"/>
<path opacity="0.1" d="M148.262 175.443L180.6 194.119V195.49L148.262 176.836V175.443Z" fill="black"/>
<path d="M147.398 165.363L180.599 146.199L213.799 165.363L180.599 184.533L147.398 165.363Z" fill="#373873"/>
<g opacity="0.6">
<path d="M147.398 165.363L180.599 146.199L213.799 165.363L180.599 184.533L147.398 165.363Z" fill="white"/>
</g>
<path d="M167.115 209.462V176.743L161.723 173.634V206.346L167.115 209.462Z" fill="#EBEBEB"/>
<path d="M167.115 209.462V176.743L161.723 173.634V206.346L167.115 209.462Z" fill="#373873"/>
<path opacity="0.4" d="M167.115 209.462V176.743L161.723 173.634V206.346L167.115 209.462Z" fill="black"/>
<path d="M194.082 209.462V176.743L199.474 173.634V206.346L194.082 209.462Z" fill="#373873"/>
<path opacity="0.15" d="M194.082 209.462V176.743L199.474 173.634V206.346L194.082 209.462Z" fill="black"/>
<path d="M161.723 173.634L194.923 154.463L200.315 157.579L167.115 176.743L161.723 173.634Z" fill="#373873"/>
<path opacity="0.25" d="M180.162 169.218L174.77 166.102L180.162 162.986L185.554 166.102L180.162 169.218Z" fill="black"/>
<path d="M194.083 176.743L160.883 157.579L166.275 154.463L199.475 173.634L194.083 176.743Z" fill="#373873"/>
<path d="M196.143 156.352C195.612 158.614 192.323 165.183 181.848 165.894L180.785 164.961C180.785 164.961 192.941 161.916 190.299 151.261L196.143 156.352Z" fill="#373873"/>
<path opacity="0.4" d="M196.143 156.352C195.612 158.614 192.323 165.183 181.848 165.894L180.785 164.961C180.785 164.961 192.941 161.916 190.299 151.261L196.143 156.352Z" fill="black"/>
<path d="M180.664 167.129C180.664 167.129 180.664 160.667 183.105 156.89C185.546 153.114 190.285 151.261 190.285 151.261C192.644 152.42 194.658 154.175 196.13 156.352C193.197 156.437 190.321 157.172 187.708 158.506C183.608 160.66 181.834 165.916 181.834 165.916L180.664 167.129Z" fill="#373873"/>
<path opacity="0.15" d="M180.664 167.129C180.664 167.129 180.664 160.667 183.105 156.89C185.546 153.114 190.285 151.261 190.285 151.261C192.644 152.42 194.658 154.175 196.13 156.352C193.197 156.437 190.321 157.172 187.708 158.506C183.608 160.66 181.834 165.916 181.834 165.916L180.664 167.129Z" fill="black"/>
<path d="M187.829 158.434L183.586 156.208C184.28 155.307 185.085 154.499 185.984 153.803L191.577 157.005C190.279 157.343 189.023 157.822 187.829 158.434Z" fill="#373873"/>
<path d="M196.92 168.184C196.92 168.184 189.74 170.065 180.664 167.129L181.382 165.894C181.382 165.894 186.121 166.691 189.467 165.894C192.813 165.097 195.67 160.336 195.67 160.336L196.92 168.184Z" fill="#373873"/>
<path opacity="0.4" d="M196.92 168.184C196.92 168.184 189.74 170.065 180.664 167.129L181.382 165.894C181.382 165.894 186.121 166.691 189.467 165.894C192.813 165.097 195.67 160.336 195.67 160.336L196.92 168.184Z" fill="black"/>
<path d="M180.664 167.129C180.664 167.129 180.743 165.37 183.235 163.058C186.494 160.028 192.863 160.028 195.642 160.336C196.779 161.198 197.548 162.457 197.796 163.862C198.133 165.585 196.927 168.17 196.927 168.17C196.008 167.067 194.873 166.165 193.59 165.52C192.308 164.875 190.907 164.502 189.474 164.422C186.846 164.197 184.233 164.994 182.179 166.648L180.664 167.129Z" fill="#373873"/>
<path opacity="0.15" d="M180.664 167.129C180.664 167.129 180.743 165.37 183.235 163.058C186.494 160.028 192.863 160.028 195.642 160.336C196.779 161.198 197.548 162.457 197.796 163.862C198.133 165.585 196.927 168.17 196.927 168.17C196.008 167.067 194.873 166.165 193.59 165.52C192.308 164.875 190.907 164.502 189.474 164.422C186.846 164.197 184.233 164.994 182.179 166.648L180.664 167.129Z" fill="black"/>
<path d="M190.312 160.372C191.368 160.252 192.431 160.199 193.493 160.214C194.271 161.013 194.816 162.009 195.069 163.095C195.322 164.18 195.274 165.315 194.929 166.375C193.92 165.669 192.795 165.144 191.605 164.824C191.681 163.238 191.227 161.671 190.312 160.372Z" fill="#373873"/>
<path d="M190.048 176.528C190.048 176.528 186.178 176.054 183.744 173.254C182.21 171.509 181.149 169.401 180.664 167.129L181.849 165.894C182.753 168.002 184.398 169.705 186.473 170.683C189.223 171.897 194.371 171.882 194.371 171.882L190.048 176.528Z" fill="#373873"/>
<path opacity="0.4" d="M190.048 176.528C190.048 176.528 186.178 176.054 183.744 173.254C182.21 171.509 181.149 169.401 180.664 167.129L181.849 165.894C182.753 168.002 184.398 169.705 186.473 170.683C189.223 171.897 194.371 171.882 194.371 171.882L190.048 176.528Z" fill="black"/>
<path d="M180.664 167.129L181.849 165.894C181.849 165.894 186.444 164.96 188.921 165.894C191.398 166.827 194.292 170.697 194.342 171.882C194.02 172.931 193.466 173.893 192.72 174.698C191.974 175.502 191.056 176.128 190.034 176.527C190.034 176.527 190.271 172.298 187.083 169.814C185.23 168.347 183.01 167.418 180.664 167.129Z" fill="#373873"/>
<path opacity="0.15" d="M180.664 167.129L181.849 165.894C181.849 165.894 186.444 164.96 188.921 165.894C191.398 166.827 194.292 170.697 194.342 171.882C194.02 172.931 193.466 173.893 192.72 174.698C191.974 175.502 191.056 176.128 190.034 176.527C190.034 176.527 190.271 172.298 187.083 169.814C185.23 168.347 183.01 167.418 180.664 167.129Z" fill="black"/>
<path d="M185.453 168.73L189.488 166.174C190.397 166.684 191.219 167.336 191.922 168.105L187.952 170.611C187.692 170.318 187.406 170.049 187.097 169.807C186.576 169.409 186.026 169.049 185.453 168.73Z" fill="#373873"/>
<path d="M169.032 155.72C168.781 156.955 169.685 160.358 172.694 162.606C175.702 164.853 180.786 165.693 180.786 165.693L181.504 165.255C181.504 165.255 176.478 162.089 174.826 159.195C173.175 156.302 174.395 151.656 174.395 151.656L169.032 155.72Z" fill="#373873"/>
<path opacity="0.4" d="M169.032 155.72C168.781 156.955 169.685 160.358 172.694 162.606C175.702 164.853 180.786 165.693 180.786 165.693L181.504 165.255C181.504 165.255 176.478 162.089 174.826 159.195C173.175 156.302 174.395 151.656 174.395 151.656L169.032 155.72Z" fill="black"/>
<path d="M180.786 165.693C179.874 162.865 178.121 160.382 175.76 158.577C171.991 155.899 169.047 155.705 169.047 155.705C169.628 154.706 170.403 153.832 171.325 153.135C172.247 152.437 173.298 151.93 174.418 151.642C174.418 151.642 178.726 154.176 180.355 158.046C181.314 160.312 181.715 162.774 181.526 165.226L180.786 165.693Z" fill="#373873"/>
<path opacity="0.15" d="M180.786 165.693C179.874 162.865 178.121 160.382 175.76 158.577C171.991 155.899 169.047 155.705 169.047 155.705C169.628 154.706 170.403 153.832 171.325 153.135C172.247 152.437 173.298 151.93 174.418 151.642C174.418 151.642 178.726 154.176 180.355 158.046C181.314 160.312 181.715 162.774 181.526 165.226L180.786 165.693Z" fill="black"/>
<path d="M173.827 157.393C173.001 156.933 172.136 156.546 171.242 156.237C172.584 154.767 174.23 153.607 176.067 152.841C176.997 153.571 177.849 154.397 178.609 155.304C176.861 155.573 175.213 156.293 173.827 157.393Z" fill="#373873"/>
<path d="M164.711 163.768C166.19 165.765 171.295 169.082 180.234 166.375L180.787 165.327C180.787 165.327 175.704 165.729 171.51 163.589C167.317 161.449 167.016 158.563 167.016 158.563L164.711 163.768Z" fill="#373873"/>
<path opacity="0.4" d="M164.711 163.768C166.19 165.765 171.295 169.082 180.234 166.375L180.787 165.327C180.787 165.327 175.704 165.729 171.51 163.589C167.317 161.449 167.016 158.563 167.016 158.563L164.711 163.768Z" fill="black"/>
<path d="M180.787 165.327C179.416 162.783 177.243 160.763 174.605 159.583C172.224 158.525 169.591 158.172 167.015 158.563C167.015 158.563 164.366 160.638 164.711 163.754C167.016 162.65 169.598 162.257 172.128 162.627C176.385 163.245 179.71 165.169 180.234 166.361L180.787 165.327Z" fill="#373873"/>
<path opacity="0.15" d="M180.787 165.327C179.416 162.783 177.243 160.763 174.605 159.583C172.224 158.525 169.591 158.172 167.015 158.563C167.015 158.563 164.366 160.638 164.711 163.754C167.016 162.65 169.598 162.257 172.128 162.627C176.385 163.245 179.71 165.169 180.234 166.361L180.787 165.327Z" fill="black"/>
<path d="M169.094 162.57C168.055 162.665 167.031 162.882 166.043 163.216C166.513 161.353 167.546 159.681 169.001 158.427C169.641 158.433 170.279 158.485 170.911 158.585C169.975 159.736 169.35 161.108 169.094 162.57Z" fill="#373873"/>
<path d="M170.346 177.533C172.658 177.59 179.881 174.323 180.664 167.129L179.888 165.406C179.888 165.406 178.179 169.391 174.927 171.207C171.674 173.024 166.914 172.995 166.914 172.995L170.346 177.533Z" fill="#373873"/>
<path opacity="0.4" d="M170.346 177.533C172.658 177.59 179.881 174.323 180.664 167.129L179.888 165.406C179.888 165.406 178.179 169.391 174.927 171.207C171.674 173.024 166.914 172.995 166.914 172.995L170.346 177.533Z" fill="black"/>
<path d="M180.786 165.327C180.786 165.327 176.672 165.226 173.836 166.375C168.81 168.4 167.137 170.777 166.914 172.995C167.499 174.859 168.712 176.462 170.346 177.533C170.346 177.533 172.4 172.184 174.927 169.936C178.294 166.935 180.671 167.129 180.671 167.129L180.786 165.327Z" fill="#373873"/>
<path opacity="0.15" d="M180.786 165.327C180.786 165.327 176.672 165.226 173.836 166.375C168.81 168.4 167.137 170.777 166.914 172.995C167.499 174.859 168.712 176.462 170.346 177.533C170.346 177.533 172.4 172.184 174.927 169.936C178.294 166.935 180.671 167.129 180.671 167.129L180.786 165.327Z" fill="black"/>
<path d="M170.972 176.075C169.477 174.857 168.213 173.381 167.238 171.717C167.725 170.517 168.538 169.477 169.586 168.716C170.802 169.849 172.284 170.659 173.894 171.071C172.732 172.622 171.752 174.301 170.972 176.075Z" fill="#373873"/>
<path d="M207.503 262.788L147.909 228.41C147.14 227.965 146.516 228.331 146.516 229.214V251.96C146.541 252.444 146.68 252.915 146.922 253.334C147.164 253.753 147.502 254.109 147.909 254.373L207.503 288.758C208.271 289.196 208.895 288.837 208.895 287.947V265.2C208.869 264.717 208.729 264.247 208.487 263.828C208.245 263.408 207.908 263.052 207.503 262.788Z" fill="#373873"/>
<path d="M208.5 263.829L212.054 261.768C212.305 262.185 212.446 262.66 212.463 263.147V285.893C212.48 286.064 212.451 286.237 212.381 286.395C212.31 286.552 212.2 286.688 212.061 286.79C211.803 286.941 208.766 288.679 208.522 288.837C208.666 288.734 208.781 288.595 208.854 288.434C208.928 288.272 208.956 288.094 208.938 287.918V265.2C208.911 264.713 208.76 264.241 208.5 263.829Z" fill="#373873"/>
<path opacity="0.3" d="M208.5 263.829L212.054 261.768C212.305 262.185 212.446 262.66 212.463 263.147V285.893C212.48 286.064 212.451 286.237 212.381 286.395C212.31 286.552 212.2 286.688 212.061 286.79C211.803 286.941 208.766 288.679 208.522 288.837C208.666 288.734 208.781 288.595 208.854 288.434C208.928 288.272 208.956 288.094 208.938 287.918V265.2C208.911 264.713 208.76 264.241 208.5 263.829Z" fill="black"/>
<path d="M147.004 228.281C147.499 227.979 150.264 226.4 150.486 226.263C150.645 226.187 150.821 226.155 150.997 226.17C151.173 226.185 151.341 226.247 151.484 226.349L211.078 260.734C211.489 260.991 211.83 261.347 212.069 261.768L208.515 263.829C208.272 263.401 207.924 263.042 207.503 262.788L147.909 228.41C147.778 228.321 147.628 228.263 147.471 228.241C147.314 228.218 147.155 228.232 147.004 228.281Z" fill="#373873"/>
<path opacity="0.3" d="M147.004 228.281C147.499 227.979 150.264 226.4 150.486 226.263C150.645 226.187 150.821 226.155 150.997 226.17C151.173 226.185 151.341 226.247 151.484 226.349L211.078 260.734C211.489 260.991 211.83 261.347 212.069 261.768L208.515 263.829C208.272 263.401 207.924 263.042 207.503 262.788L147.909 228.41C147.778 228.321 147.628 228.263 147.471 228.241C147.314 228.218 147.155 228.232 147.004 228.281Z" fill="white"/>
<path d="M158.777 246.367C158.865 246.584 158.906 246.816 158.899 247.049V253.052C158.911 253.184 158.877 253.316 158.804 253.427C158.731 253.538 158.623 253.621 158.497 253.662C158.174 253.756 157.83 253.756 157.506 253.662C157.114 253.566 156.737 253.416 156.386 253.217C155.122 252.462 154.166 251.285 153.687 249.893C153.038 247.965 152.741 245.937 152.811 243.904C152.811 241.482 153.105 239.853 153.694 239.015C154.275 238.168 155.18 238.103 156.408 238.807C156.824 239.05 157.207 239.344 157.549 239.683C157.885 240 158.184 240.354 158.44 240.738C158.628 240.992 158.745 241.292 158.777 241.607C158.77 241.822 158.723 242.033 158.641 242.232C158.567 242.444 158.455 242.641 158.311 242.813C158.174 242.964 158.059 243.007 157.952 242.942C157.851 242.848 157.76 242.745 157.679 242.634C157.523 242.443 157.358 242.261 157.183 242.088C156.987 241.899 156.767 241.735 156.53 241.6C156.433 241.515 156.317 241.456 156.191 241.428C156.065 241.401 155.935 241.406 155.812 241.444C155.689 241.481 155.577 241.549 155.488 241.642C155.399 241.735 155.335 241.849 155.302 241.973C154.973 242.992 154.839 244.064 154.907 245.132C154.862 246.374 154.987 247.616 155.281 248.823C155.424 249.495 155.82 250.086 156.386 250.474C156.552 250.58 156.734 250.657 156.925 250.704V247.767L156.257 247.38C156.183 247.334 156.119 247.275 156.069 247.205C156.018 247.134 155.982 247.055 155.963 246.97C155.897 246.703 155.868 246.427 155.876 246.152V245.513C155.861 245.27 155.891 245.027 155.963 244.795C156.027 244.673 156.121 244.644 156.257 244.723L158.411 245.965C158.572 246.058 158.7 246.199 158.777 246.367Z" fill="#FAFAFA"/>
<path d="M160.23 254.667V241.779C160.23 241.341 160.489 241.262 160.992 241.556L161.544 241.872C161.753 241.971 161.93 242.125 162.056 242.317C162.183 242.51 162.254 242.733 162.262 242.964V255.888C162.262 256.326 162.018 256.405 161.544 256.117L160.992 255.801C160.771 255.703 160.582 255.544 160.448 255.344C160.313 255.143 160.238 254.909 160.23 254.667Z" fill="#FAFAFA"/>
<path d="M163.706 256.685V243.998C163.682 243.808 163.723 243.616 163.821 243.452C163.902 243.371 164.024 243.371 164.187 243.452L167.777 245.527C167.922 245.621 168.025 245.768 168.064 245.936C168.136 246.203 168.168 246.479 168.157 246.755V247.38C168.176 247.623 168.144 247.867 168.064 248.098C168.006 248.227 167.913 248.248 167.777 248.177L165.766 246.992V249.936L167.691 251.049C167.834 251.141 167.936 251.285 167.978 251.451C168.046 251.718 168.077 251.993 168.071 252.269V252.894C168.085 253.137 168.053 253.38 167.978 253.612C167.968 253.639 167.951 253.664 167.929 253.683C167.907 253.702 167.881 253.716 167.853 253.723C167.825 253.73 167.795 253.731 167.767 253.724C167.739 253.717 167.712 253.703 167.691 253.684L165.766 252.571V257.848C165.766 258.279 165.515 258.351 165.005 258.056L164.488 257.755C164.272 257.666 164.084 257.52 163.945 257.331C163.807 257.142 163.724 256.918 163.706 256.685Z" fill="#FAFAFA"/>
<path d="M170.446 260.569V249.713L169.01 248.873C168.865 248.782 168.762 248.638 168.723 248.471C168.652 248.204 168.62 247.928 168.63 247.652V247.028C168.612 246.785 168.644 246.54 168.723 246.31C168.78 246.188 168.881 246.159 169.01 246.238L173.979 249.11C174.054 249.155 174.119 249.214 174.171 249.284C174.223 249.354 174.26 249.434 174.28 249.519C174.352 249.786 174.383 250.062 174.374 250.338V250.962C174.393 251.206 174.361 251.45 174.28 251.68C174.223 251.81 174.122 251.831 173.979 251.752L172.543 250.905V261.761C172.543 262.192 172.292 262.257 171.789 261.969L171.25 261.661C171.027 261.574 170.832 261.425 170.69 261.232C170.547 261.039 170.463 260.809 170.446 260.569Z" fill="#FAFAFA"/>
<path d="M198.235 276.681V265.825L196.799 264.985C196.725 264.939 196.661 264.88 196.61 264.81C196.56 264.739 196.524 264.66 196.504 264.575C196.438 264.308 196.409 264.032 196.418 263.757V263.132C196.403 262.89 196.432 262.646 196.504 262.414C196.569 262.292 196.662 262.264 196.799 262.343L201.767 265.215C201.914 265.31 202.022 265.455 202.069 265.624C202.134 265.892 202.163 266.167 202.155 266.442V267.096C202.172 267.338 202.143 267.582 202.069 267.814C202.004 267.943 201.904 267.964 201.767 267.885L200.331 267.038V277.866C200.331 278.296 200.073 278.361 199.57 278.074L199.032 277.765C198.81 277.678 198.618 277.53 198.477 277.338C198.336 277.146 198.252 276.918 198.235 276.681Z" fill="#FAFAFA"/>
<path d="M177.67 265.208C177.288 264.825 176.977 264.378 176.751 263.887C176.652 263.629 176.597 263.358 176.586 263.082C176.582 262.728 176.648 262.377 176.78 262.048C176.909 261.733 177.053 261.625 177.211 261.711C177.344 261.824 177.457 261.957 177.548 262.106C177.699 262.328 177.807 262.486 177.878 262.58C178.115 262.946 178.422 263.261 178.783 263.506C178.885 263.582 179.003 263.631 179.129 263.65C179.254 263.669 179.382 263.656 179.501 263.614C179.702 263.528 179.803 263.24 179.803 262.759C179.807 262.413 179.753 262.069 179.645 261.74C179.551 261.443 179.424 261.159 179.264 260.892C179.106 260.648 178.891 260.318 178.604 259.909C178.012 259.086 177.53 258.191 177.168 257.245C176.853 256.321 176.702 255.349 176.723 254.373C176.723 253.167 176.974 252.37 177.476 251.968C177.979 251.566 178.64 251.616 179.472 252.097C180.162 252.535 180.746 253.121 181.181 253.813C181.336 254.066 181.418 254.357 181.418 254.653C181.418 254.998 181.368 255.342 181.267 255.673C181.167 256.003 181.045 256.125 180.894 256.039C180.752 255.928 180.624 255.801 180.514 255.658C180.276 255.351 179.99 255.084 179.666 254.868C179.314 254.667 179.078 254.639 178.948 254.797C178.806 254.989 178.737 255.226 178.754 255.464C178.74 255.906 178.826 256.346 179.006 256.75C179.237 257.211 179.506 257.653 179.81 258.071L180.111 258.509C180.654 259.275 181.091 260.111 181.411 260.993C181.692 261.852 181.828 262.753 181.813 263.657C181.83 264.305 181.723 264.951 181.497 265.559C181.423 265.786 181.299 265.993 181.133 266.164C180.968 266.336 180.766 266.468 180.542 266.55C180.271 266.611 179.989 266.614 179.717 266.557C179.444 266.5 179.187 266.385 178.963 266.22C178.484 265.948 178.049 265.607 177.67 265.208Z" fill="#FAFAFA"/>
<path d="M182.827 268.122C182.738 267.906 182.696 267.674 182.705 267.44V254.954C182.683 254.764 182.726 254.572 182.827 254.409C182.908 254.332 183.03 254.332 183.193 254.409L187.049 256.634C187.19 256.732 187.292 256.877 187.336 257.044C187.407 257.31 187.439 257.586 187.429 257.862V258.48C187.449 258.723 187.417 258.967 187.336 259.198C187.278 259.327 187.178 259.348 187.049 259.277L184.744 257.948V260.863L186.79 262.041C186.932 262.138 187.034 262.284 187.077 262.45C187.145 262.717 187.177 262.993 187.171 263.269V263.893C187.186 264.136 187.154 264.38 187.077 264.611C187.013 264.741 186.919 264.762 186.79 264.69L184.744 263.506V266.765L187.063 268.101C187.202 268.2 187.301 268.345 187.343 268.51C187.409 268.775 187.438 269.048 187.429 269.321V269.968C187.444 270.21 187.415 270.453 187.343 270.686C187.286 270.815 187.192 270.836 187.063 270.765L183.193 268.532C183.03 268.438 182.901 268.295 182.827 268.122Z" fill="#FAFAFA"/>
<path d="M188.621 271.059V258.171C188.621 257.74 188.872 257.668 189.375 257.963L189.72 258.156C189.88 258.246 190.021 258.366 190.136 258.508C190.264 258.692 190.355 258.9 190.402 259.119L192.75 267.017C192.872 267.44 193.022 268.043 193.195 268.848H193.252C193.18 268.13 193.144 267.562 193.144 267.196V260.777C193.144 260.346 193.396 260.275 193.906 260.569L194.214 260.748C194.429 260.841 194.614 260.991 194.748 261.183C194.883 261.374 194.961 261.599 194.975 261.833V274.721C194.975 275.152 194.724 275.216 194.214 274.929L193.97 274.785C193.804 274.695 193.658 274.573 193.539 274.426C193.404 274.242 193.309 274.032 193.259 273.809L190.768 265.523C190.689 265.279 190.567 264.805 190.409 264.03H190.344C190.416 264.69 190.452 265.164 190.452 265.466V272.122C190.452 272.552 190.201 272.624 189.691 272.33L189.375 272.15C189.161 272.056 188.976 271.904 188.843 271.711C188.71 271.519 188.633 271.293 188.621 271.059Z" fill="#FAFAFA"/>
</svg>
