<svg width="125" height="22" viewBox="0 0 125 22" fill="none" xmlns="http://www.w3.org/2000/svg">
<g clip-path="url(#clip0_429_8397)">
<path id="s" d="M4.12109 21.2469C3.02734 20.7713 2.12891 20.137 1.42578 19.3244C0.722654 18.5317 0.253906 17.6398 0 16.6884L3.49609 15.1821C3.80859 16.1533 4.35547 16.946 5.13672 17.501C5.89844 18.0758 6.79687 18.3533 7.8125 18.3533C8.84766 18.3533 9.64844 18.1551 10.1953 17.7389C10.7422 17.3425 11.0156 16.728 11.0156 15.9154C11.0156 15.0433 10.7031 14.3299 10.0977 13.7749C9.47266 13.2001 8.4375 12.665 6.95312 12.11C4.76562 11.2578 3.16406 10.346 2.1875 9.33524C1.21094 8.32443 0.703121 7.07578 0.703121 5.56947C0.703121 4.51902 0.976561 3.56767 1.52344 2.73524C2.07031 1.90281 2.85156 1.24876 3.88672 0.773084C4.90234 0.297408 6.11328 0.0595703 7.51953 0.0595703C9.14062 0.0595703 10.5469 0.356872 11.7187 0.931647C12.8906 1.52624 13.8477 2.39832 14.5508 3.60733L11.4453 5.56947C10.9766 4.8956 10.4102 4.40012 9.78516 4.083C9.14062 3.76589 8.41797 3.60733 7.57812 3.60733C6.67969 3.60733 5.99609 3.78571 5.48828 4.16228C4.98047 4.51904 4.72656 5.03436 4.72656 5.68841C4.72656 6.36228 5.05859 6.95686 5.72266 7.45235C6.38672 7.94785 7.42187 8.48298 8.82812 9.03794C10.9961 9.89019 12.5977 10.8614 13.6523 11.9911C14.707 13.1208 15.2344 14.4686 15.2344 16.0344C15.2344 17.1244 14.9414 18.1154 14.3359 19.0271C13.7305 19.919 12.8711 20.6325 11.7578 21.1677C10.625 21.7028 9.29687 21.9605 7.77344 21.9605C6.44531 21.9803 5.21484 21.7226 4.12109 21.2469Z" fill="white"/>
<path id="k" d="M23.5547 0.0991211V21.9802H19.043V0.0991211H23.5547ZM30.4102 4.30092H35.8984L29.9609 12.7243L36.3672 21.9802H30.8789L24.8047 12.7243L30.4102 4.30092Z" fill="white"/>
<path id="i" d="M39.3359 0.0991211V5.29191H44.5508V0.0991211H39.3359ZM39.3359 8.28471L36.3672 12.4865H39.9219V21.9604H44.5508V8.28471H39.3359Z" fill="white"/>
<path id="l1" d="M50.8789 21.1082C50.0586 20.5334 49.4336 19.7604 49.0039 18.7694C48.5742 17.7983 48.3789 16.7082 48.3789 15.4992L48.3398 7.90819C48.3398 4.97486 48.3398 2.61628 48.3398 0.852318C48.3398 -0.911646 48.3398 2.97303 48.3398 0.0793457H53.0859C53.0859 6.79826 53.0859 7.53159 53.0859 14.7064C53.0859 15.301 53.1445 15.8163 53.2617 16.2127C53.3789 16.6091 53.5547 16.9262 53.8281 17.164C54.1016 17.4019 54.4336 17.5208 54.8242 17.5208C55.3125 17.5208 55.7812 17.4613 56.2305 17.3424L56.9727 21.5244C56.2305 21.8217 55.2344 21.9802 53.9648 21.9802C52.7344 21.9802 51.6992 21.6829 50.8789 21.1082Z" fill="white"/>
<path id="l2" d="M63.2812 21.1082C62.4609 20.5334 61.8359 19.7604 61.4062 18.7694C60.9766 17.7983 60.7813 16.7082 60.7813 15.4992L60.7422 7.90819C60.7422 4.97486 60.7422 2.61628 60.7422 0.852318C60.7422 -0.911646 60.7422 2.97303 60.7422 0.0793457H65.4883C65.4883 6.79826 65.4883 7.53159 65.4883 14.7064C65.4883 15.301 65.5469 15.8163 65.6641 16.2127C65.7813 16.6091 65.957 16.9262 66.2305 17.164C66.5039 17.4019 66.8359 17.5208 67.2266 17.5208C67.7148 17.5208 68.1836 17.4613 68.6328 17.3424L69.375 21.5244C68.6328 21.8217 67.6367 21.9802 66.3672 21.9802C65.1367 21.9802 64.1016 21.6829 63.2812 21.1082Z" fill="white"/>
<path id="t" d="M81.8945 21.5243C81.2305 21.8216 80.1953 21.9801 78.8281 21.9801C77.0898 21.9801 75.7227 21.4252 74.707 20.3153C73.6914 19.2054 73.1836 17.7784 73.1445 16.054L73.1055 13.0018C73.1055 11.9711 73.1055 11.1387 73.125 10.4847C73.1445 9.83061 73.1445 8.99818 73.1445 8.00719H70.1367L73.1055 3.80538V0.118896H77.9297V3.76574H81.8945V7.96755H77.9297V14.7063C77.9492 15.5784 78.1055 16.2522 78.3984 16.7279C78.6914 17.2036 79.1211 17.4612 79.707 17.4811C80.2539 17.4811 80.7227 17.4018 81.1133 17.263L81.8945 21.5243Z" fill="white"/>
<path id="e" d="M96.6602 3.90456C97.5977 4.26132 98.2617 4.69736 98.6328 5.19285L98.5547 4.1424V3.80547H103.418V21.9604H98.6719V21.2865L98.7891 20.1965C98.418 20.7316 97.7734 21.1478 96.8359 21.4649C95.918 21.782 94.9609 21.9604 94.0039 21.9604C92.168 21.9604 90.5859 21.5442 89.2188 20.7316C87.8516 19.919 86.7969 18.8091 86.0547 17.382C85.293 15.9748 84.9219 14.3892 84.9219 12.6253C84.9219 10.7424 85.3125 9.09738 86.0742 7.70999C86.8359 6.30278 87.9102 5.23249 89.2969 4.47934C90.6836 3.72619 92.2461 3.34961 94.0039 3.34961C94.8242 3.36943 95.7227 3.54781 96.6602 3.90456ZM96.5234 16.946C97.207 16.5496 97.7344 15.9947 98.1445 15.2415C98.5352 14.4884 98.7305 13.6163 98.7305 12.6451C98.7305 11.6343 98.5352 10.782 98.1445 10.0487C97.7539 9.31538 97.207 8.76042 96.5234 8.38384C95.8398 7.98745 95.0977 7.80909 94.2773 7.80909C93.4961 7.80909 92.7539 7.98745 92.0508 8.36402C91.3672 8.7406 90.8008 9.29556 90.3906 10.0091C89.9609 10.7424 89.7656 11.6145 89.7656 12.6451C89.7656 13.6757 89.9805 14.5478 90.3906 15.301C90.8008 16.0343 91.3672 16.5892 92.0508 16.9658C92.7344 17.3424 93.4766 17.5208 94.2773 17.5208C95.0977 17.5406 95.8398 17.3424 96.5234 16.946Z" fill="white"/>
<path id="x" d="M112.871 13.0217L106.465 4.30103H111.875L115.723 9.94967L119.57 4.30103H124.98L118.535 13.0217L124.98 21.9605H119.492L115.723 16.4704L111.914 21.9605H106.426L112.871 13.0217Z" fill="white"/>
</g>
<defs>
<clipPath id="clip0_429_8397">
<rect width="125" height="22" fill="white"/>
</clipPath>
</defs>
</svg>
