<svg width="267" height="361" viewBox="0 0 267 361" fill="none" xmlns="http://www.w3.org/2000/svg">
<g clip-path="url(#clip0_429_8453)">
<path d="M185.555 48.4822V52.2366C185.555 53.4207 186.385 53.8972 187.41 53.3051L204.608 43.3921C205.154 43.0433 205.609 42.5703 205.936 42.0119C206.264 41.4535 206.454 40.8254 206.493 40.1792V36.4248C206.493 35.2407 205.662 34.757 204.637 35.349L187.432 45.2693C186.888 45.6189 186.434 46.0922 186.108 46.6506C185.782 47.2089 185.592 47.8366 185.555 48.4822Z" fill="#F0F0F0"/>
<path d="M53.7246 153.706L36.5482 163.619C36.311 163.765 36.0927 163.94 35.8984 164.139V171.894C36.1275 171.858 36.3479 171.779 36.5482 171.663L53.7246 161.728C54.2654 161.379 54.7165 160.907 55.0414 160.352C55.3663 159.796 55.5558 159.172 55.5946 158.529V154.775C55.5946 153.591 54.7499 153.114 53.7246 153.706Z" fill="#F0F0F0"/>
<path d="M53.5658 234.455L36.3894 244.368C36.2131 244.476 36.0485 244.601 35.8984 244.743V252.606C36.0713 252.567 36.2369 252.501 36.3894 252.411L53.5658 242.491C54.1058 242.139 54.5553 241.664 54.8777 241.106C55.2001 240.548 55.3863 239.922 55.4213 239.278V235.524C55.4213 234.339 54.591 233.863 53.5658 234.455Z" fill="#F0F0F0"/>
<path d="M53.7246 193.193L36.5482 203.113C36.3077 203.254 36.0888 203.429 35.8984 203.633V211.387C36.1288 211.352 36.3497 211.271 36.5482 211.149L53.7246 201.236C54.2673 200.885 54.7196 200.412 55.0446 199.853C55.3695 199.295 55.558 198.668 55.5946 198.023V194.269C55.5946 193.084 54.7499 192.601 53.7246 193.193Z" fill="#F0F0F0"/>
<path d="M244.037 63.0809L226.824 72.994C226.284 73.346 225.835 73.8204 225.512 74.3786C225.19 74.9368 225.004 75.5632 224.969 76.2069V79.9613C224.969 81.1454 225.799 81.6291 226.824 81.0371L244.037 71.1168C244.577 70.7648 245.026 70.2904 245.349 69.7322C245.671 69.174 245.857 68.5476 245.892 67.9039V64.1495C245.856 62.9654 245.026 62.4889 244.037 63.0809Z" fill="#F0F0F0"/>
<path d="M254.866 46.995L237.668 56.9081C237.128 57.2601 236.679 57.7344 236.356 58.2927C236.034 58.8509 235.848 59.4773 235.812 60.121V63.8754C235.812 65.0595 236.643 65.5432 237.668 64.9511L254.866 55.0309C255.406 54.6789 255.856 54.2045 256.178 53.6463C256.5 53.088 256.687 52.4617 256.722 51.818V48.0636C256.7 46.8795 255.87 46.403 254.866 46.995Z" fill="#F0F0F0"/>
<path d="M132.262 166.97L115.086 176.89C114.546 177.242 114.097 177.716 113.774 178.275C113.452 178.833 113.265 179.459 113.23 180.103V183.857C113.23 185.041 114.061 185.518 115.086 184.926L132.262 175.013C132.802 174.661 133.252 174.186 133.574 173.628C133.897 173.07 134.083 172.443 134.118 171.8V168.045C134.118 166.861 133.288 166.378 132.262 166.97Z" fill="#F0F0F0"/>
<path d="M180.27 121.715V125.469C180.27 126.653 181.1 127.13 182.125 126.545L199.273 116.625C199.813 116.273 200.262 115.798 200.584 115.24C200.907 114.682 201.093 114.055 201.128 113.412V109.657C201.128 108.473 200.298 107.997 199.273 108.589L182.096 118.502C181.562 118.857 181.118 119.333 180.8 119.891C180.483 120.449 180.301 121.074 180.27 121.715Z" fill="#F0F0F0"/>
<path d="M157.924 106.17V109.925C157.924 111.102 158.754 111.585 159.779 110.993L176.956 101.08C177.497 100.729 177.947 100.255 178.269 99.6965C178.592 99.1381 178.777 98.5112 178.811 97.8673V94.1129C178.811 92.9288 177.981 92.4523 176.956 93.0443L159.779 102.95C159.239 103.303 158.789 103.779 158.467 104.338C158.144 104.898 157.958 105.525 157.924 106.17Z" fill="#F0F0F0"/>
<path d="M210.153 53.0092L192.977 62.9222C192.436 63.2754 191.986 63.751 191.664 64.3105C191.342 64.87 191.156 65.4976 191.121 66.1424V69.8967C191.121 71.0736 191.951 71.5574 192.977 70.9653L210.153 61.045C210.693 60.693 211.143 60.2187 211.465 59.6604C211.787 59.1022 211.974 58.4758 212.009 57.8321V54.0777C212.009 52.8937 211.178 52.4171 210.153 53.0092Z" fill="#F0F0F0"/>
<path d="M120.762 124.278L103.586 134.191C103.046 134.543 102.597 135.018 102.275 135.576C101.953 136.134 101.766 136.76 101.73 137.404V141.158C101.73 142.342 102.561 142.826 103.586 142.234L120.762 132.314C121.302 131.962 121.752 131.487 122.074 130.929C122.397 130.371 122.583 129.744 122.618 129.101V125.346C122.618 124.184 121.788 123.686 120.762 124.278Z" fill="#F0F0F0"/>
<path d="M182.125 166.06L199.272 156.118C199.813 155.765 200.262 155.289 200.585 154.73C200.907 154.17 201.093 153.543 201.128 152.898V149.143C201.128 147.966 200.297 147.483 199.272 148.075L182.096 157.995C181.556 158.347 181.106 158.821 180.784 159.38C180.461 159.938 180.275 160.564 180.24 161.208V164.962C180.269 166.146 181.099 166.623 182.125 166.06Z" fill="#F0F0F0"/>
<path d="M58.8946 207.481L76.071 197.568C76.611 197.216 77.0605 196.742 77.3829 196.184C77.7053 195.625 77.8915 194.999 77.9265 194.355V190.608C77.9265 189.424 77.0962 188.948 76.071 189.532L58.8946 199.445C58.3546 199.797 57.9051 200.272 57.5827 200.83C57.2603 201.388 57.0741 202.015 57.0391 202.658V206.413C57.0391 207.597 57.8694 208.073 58.8946 207.481Z" fill="#F0F0F0"/>
<path d="M159.779 257.891L176.956 247.978C177.496 247.626 177.945 247.152 178.268 246.593C178.59 246.035 178.776 245.409 178.811 244.765V241.011C178.811 239.827 177.981 239.343 176.956 239.935L159.779 249.855C159.239 250.207 158.79 250.682 158.467 251.24C158.145 251.798 157.959 252.424 157.924 253.068V256.823C157.924 258.007 158.754 258.476 159.779 257.891Z" fill="#F0F0F0"/>
<path d="M233.863 217.322L251.04 207.401C251.58 207.049 252.029 206.575 252.352 206.017C252.674 205.459 252.86 204.832 252.895 204.189V200.434C252.895 199.25 252.065 198.774 251.04 199.366L233.863 209.279C233.323 209.631 232.874 210.105 232.551 210.663C232.229 211.222 232.043 211.848 232.008 212.492V216.246C232.008 217.43 232.838 217.914 233.863 217.322Z" fill="#F0F0F0"/>
<path d="M77.9265 293.082V289.327C77.9265 288.143 77.0962 287.659 76.071 288.251L58.8946 298.186C58.3565 298.537 57.9082 299.009 57.5859 299.564C57.2636 300.12 57.0763 300.743 57.0391 301.385V305.139C57.0391 306.323 57.8694 306.8 58.8946 306.207L76.071 296.294C76.611 295.942 77.0605 295.468 77.3829 294.91C77.7053 294.352 77.8915 293.725 77.9265 293.082Z" fill="#F0F0F0"/>
<path d="M113.23 41.8759V45.6303C113.23 46.8071 114.061 47.2909 115.086 46.6988L132.262 36.8219C132.802 36.4699 133.252 35.9955 133.574 35.4373C133.897 34.879 134.083 34.2527 134.118 33.609V29.8546C134.118 28.6705 133.288 28.194 132.262 28.786L115.086 38.6702C114.547 39.0219 114.099 39.4953 113.776 40.0521C113.454 40.6089 113.267 41.2336 113.23 41.8759Z" fill="#F0F0F0"/>
<path d="M42.873 179.005L35.8984 183.034V191.077L42.873 187.041C43.4205 186.694 43.8776 186.222 44.2065 185.663C44.5355 185.104 44.7267 184.475 44.7646 183.828V180.074C44.7646 178.89 43.8982 178.413 42.873 179.005Z" fill="#F0F0F0"/>
<path d="M70.3946 289.673L87.571 279.753C88.111 279.401 88.5605 278.927 88.8829 278.368C89.2053 277.81 89.3915 277.184 89.4265 276.54V272.786C89.4265 271.602 88.5962 271.125 87.571 271.717L70.3946 281.63C69.8546 281.982 69.4051 282.457 69.0827 283.015C68.7603 283.573 68.5741 284.199 68.5391 284.843V288.598C68.5391 289.782 69.3694 290.244 70.3946 289.673Z" fill="#F0F0F0"/>
<path d="M53.7246 261.645L36.5482 271.558C36.311 271.704 36.0927 271.879 35.8984 272.078V279.833C36.1275 279.797 36.3479 279.718 36.5482 279.602L53.7246 269.681C54.2673 269.331 54.7196 268.857 55.0446 268.299C55.3695 267.741 55.558 267.113 55.5946 266.468V262.714C55.5946 261.53 54.7499 261.053 53.7246 261.645Z" fill="#F0F0F0"/>
<path d="M135.578 57.7092V61.4636C135.578 62.6477 136.408 63.1242 137.434 62.5322L154.61 52.6191C155.15 52.2671 155.6 51.7928 155.922 51.2345C156.244 50.6763 156.431 50.0499 156.466 49.4062V45.6518C156.466 44.4678 155.635 43.984 154.61 44.5761L137.434 54.4963C136.894 54.8483 136.444 55.3227 136.122 55.8809C135.799 56.4392 135.613 57.0655 135.578 57.7092Z" fill="#F0F0F0"/>
<path d="M42.873 119.772L35.8984 123.801V131.837L42.873 127.794C43.4178 127.447 43.8731 126.977 44.2018 126.421C44.5305 125.865 44.7234 125.24 44.7646 124.595V120.841C44.7646 119.657 43.8982 119.18 42.873 119.772Z" fill="#F0F0F0"/>
<path d="M76.071 90.8059L58.8946 100.719C58.3498 101.075 57.8974 101.555 57.5747 102.12C57.2521 102.684 57.0685 103.318 57.0391 103.968V107.722C57.0391 108.906 57.8694 109.383 58.8946 108.798L76.071 98.8779C76.611 98.5259 77.0605 98.0515 77.3829 97.4933C77.7053 96.9351 77.8915 96.3087 77.9265 95.665V91.9106C77.9265 90.6904 77.0962 90.25 76.071 90.8059Z" fill="#F0F0F0"/>
<path d="M120.762 45.2982L103.586 55.2113C103.046 55.5633 102.597 56.0377 102.274 56.5959C101.952 57.1541 101.765 57.7805 101.73 58.4242V62.1786C101.73 63.3627 102.561 63.8464 103.586 63.2544L120.762 53.3341C121.302 52.9821 121.752 52.5077 122.074 51.9495C122.397 51.3912 122.583 50.7649 122.618 50.1212V46.3668C122.618 45.1827 121.788 44.7062 120.762 45.2982Z" fill="#F0F0F0"/>
<path d="M115.086 263.913L132.262 253.992C132.802 253.64 133.252 253.166 133.574 252.608C133.897 252.049 134.083 251.423 134.118 250.779V247.025C134.118 245.841 133.288 245.364 132.262 245.956L115.086 255.87C114.546 256.222 114.097 256.696 113.774 257.254C113.452 257.812 113.265 258.439 113.23 259.082V262.808C113.23 264.021 114.075 264.505 115.086 263.913Z" fill="#F0F0F0"/>
<path d="M144.962 234.693V230.939C144.962 229.755 144.132 229.278 143.107 229.871L125.938 239.784C125.398 240.136 124.948 240.61 124.626 241.168C124.303 241.726 124.117 242.353 124.082 242.996V246.751C124.082 247.935 124.92 248.419 125.938 247.827L143.114 237.906C143.653 237.554 144.101 237.079 144.422 236.521C144.743 235.962 144.928 235.337 144.962 234.693Z" fill="#F0F0F0"/>
<path d="M120.762 104.531L103.586 114.452C103.042 114.805 102.59 115.282 102.268 115.845C101.945 116.407 101.761 117.038 101.73 117.686V121.441C101.73 122.625 102.561 123.101 103.586 122.509L120.762 112.596C121.303 112.243 121.753 111.767 122.075 111.208C122.398 110.648 122.583 110.021 122.618 109.376V105.622C122.618 104.423 121.788 103.968 120.762 104.531Z" fill="#F0F0F0"/>
<path d="M143.107 61.1175L125.938 71.0377C125.398 71.3898 124.948 71.8641 124.626 72.4224C124.303 72.9806 124.117 73.607 124.082 74.2506V77.9762C124.082 79.1602 124.92 79.6368 125.938 79.0447L143.114 69.1317C143.655 68.7785 144.104 68.3029 144.427 67.7434C144.749 67.1839 144.935 66.5563 144.969 65.9115V62.1571C144.962 61.0092 144.132 60.5254 143.107 61.1175Z" fill="#F0F0F0"/>
<path d="M68.5391 186.117V189.886C68.5391 191.07 69.3694 191.554 70.3946 190.962L87.571 181.042C88.111 180.69 88.5605 180.215 88.8829 179.657C89.2053 179.099 89.3915 178.472 89.4265 177.829V174.074C89.4265 172.89 88.5962 172.414 87.571 173.006L70.3946 182.904C69.8546 183.256 69.4051 183.731 69.0827 184.289C68.7603 184.847 68.5741 185.474 68.5391 186.117Z" fill="#F0F0F0"/>
<path d="M70.3946 269.927L87.571 260.006C88.111 259.654 88.5605 259.18 88.8829 258.622C89.2053 258.064 89.3915 257.437 89.4265 256.794V253.039C89.4265 251.855 88.5962 251.379 87.571 251.971L70.3946 261.884C69.855 262.236 69.4058 262.711 69.0835 263.269C68.7611 263.827 68.5746 264.453 68.5391 265.097V268.858C68.5391 270.028 69.3694 270.519 70.3946 269.927Z" fill="#F0F0F0"/>
<path d="M109.919 199.597L92.7423 209.517C92.2022 209.869 91.7528 210.344 91.4304 210.902C91.108 211.46 90.9217 212.087 90.8867 212.73V216.485C90.8867 217.669 91.717 218.145 92.7423 217.553L109.919 207.64C110.459 207.288 110.908 206.814 111.231 206.256C111.553 205.697 111.739 205.071 111.774 204.427V200.673C111.774 199.489 110.944 199.005 109.919 199.597Z" fill="#F0F0F0"/>
<path d="M135.578 147.475V151.23C135.578 152.414 136.408 152.898 137.434 152.306L154.61 142.385C155.15 142.033 155.6 141.559 155.922 141.001C156.244 140.443 156.431 139.816 156.466 139.172V135.418C156.466 134.234 155.635 133.757 154.61 134.35L137.434 144.263C136.894 144.615 136.444 145.089 136.122 145.647C135.799 146.205 135.613 146.832 135.578 147.475Z" fill="#F0F0F0"/>
<path d="M235.408 91.7664V95.5208C235.408 96.7048 236.239 97.1814 237.264 96.5893L254.44 86.6763C254.982 86.3254 255.434 85.8517 255.759 85.2934C256.084 84.7352 256.273 84.1082 256.31 83.4634V79.709C256.31 78.5249 255.48 78.0411 254.455 78.6332L237.278 88.5535C236.735 88.9039 236.283 89.3775 235.958 89.9359C235.633 90.4942 235.445 91.1214 235.408 91.7664Z" fill="#F0F0F0"/>
<path d="M238.419 121.628V117.874C238.419 116.689 237.588 116.206 236.563 116.798L219.387 126.718C218.847 127.07 218.397 127.544 218.075 128.103C217.752 128.661 217.566 129.287 217.531 129.931V133.685C217.531 134.869 218.362 135.346 219.387 134.754L236.563 124.841C237.103 124.488 237.552 124.014 237.874 123.456C238.197 122.898 238.383 122.271 238.419 121.628Z" fill="#F0F0F0"/>
<path d="M260.764 108.748V104.986C260.764 103.809 259.934 103.325 258.909 103.918L241.732 113.838C241.192 114.19 240.743 114.664 240.421 115.222C240.098 115.781 239.912 116.407 239.877 117.051V120.805C239.877 121.989 240.707 122.466 241.732 121.874L258.909 111.961C259.449 111.608 259.898 111.134 260.22 110.576C260.542 110.017 260.729 109.391 260.764 108.748Z" fill="#F0F0F0"/>
<path d="M187.807 96.6976L170.631 106.611C170.091 106.963 169.641 107.437 169.319 107.995C168.997 108.554 168.81 109.18 168.775 109.824V113.578C168.775 114.762 169.606 115.246 170.631 114.654L187.807 104.734C188.347 104.381 188.797 103.907 189.119 103.349C189.442 102.791 189.628 102.164 189.663 101.521V97.7662C189.663 96.5821 188.833 96.1056 187.807 96.6976Z" fill="#F0F0F0"/>
<path d="M144.962 175.446V171.691C144.962 170.507 144.132 170.024 143.107 170.616L125.938 180.536C125.398 180.888 124.948 181.362 124.626 181.92C124.303 182.479 124.117 183.105 124.082 183.749V187.503C124.082 188.687 124.92 189.164 125.938 188.572L143.114 178.659C143.652 178.305 144.1 177.831 144.421 177.273C144.742 176.714 144.928 176.089 144.962 175.446Z" fill="#F0F0F0"/>
<path d="M180.27 202.918V199.164C180.27 197.979 179.44 197.496 178.415 198.088L161.238 208.008C160.698 208.36 160.249 208.834 159.926 209.393C159.604 209.951 159.418 210.577 159.383 211.221V214.975C159.383 216.159 160.213 216.636 161.238 216.044L178.415 206.131C178.955 205.779 179.404 205.304 179.727 204.746C180.049 204.188 180.235 203.562 180.27 202.918Z" fill="#F0F0F0"/>
<path d="M167.317 261.299V257.545C167.317 256.368 166.487 255.884 165.462 256.476L148.285 266.418C147.745 266.77 147.296 267.244 146.973 267.803C146.651 268.361 146.465 268.987 146.43 269.631V273.385C146.43 274.569 147.26 275.046 148.285 274.454L165.462 264.541C166.005 264.186 166.457 263.707 166.779 263.143C167.102 262.58 167.286 261.948 167.317 261.299Z" fill="#F0F0F0"/>
<path d="M90.8867 54.7708V58.5252C90.8867 59.702 91.717 60.1858 92.7423 59.5937L109.919 49.6735C110.459 49.3214 110.908 48.8471 111.231 48.2888C111.553 47.7306 111.739 47.1042 111.774 46.4605V42.7061C111.774 41.5221 110.944 41.0455 109.919 41.6376L92.7423 51.5506C92.2017 51.9038 91.7519 52.3794 91.4295 52.9389C91.1071 53.4984 90.9212 54.126 90.8867 54.7708Z" fill="#F0F0F0"/>
<path d="M122.618 287.067V283.313C122.618 282.129 121.788 281.645 120.762 282.237L103.586 292.157C103.046 292.509 102.597 292.984 102.274 293.542C101.952 294.1 101.765 294.727 101.73 295.37V299.125C101.73 300.309 102.561 300.785 103.586 300.193L120.762 290.28C121.302 289.928 121.751 289.453 122.074 288.895C122.396 288.337 122.582 287.711 122.618 287.067Z" fill="#F0F0F0"/>
<path d="M42.873 317.218L35.8984 321.29V329.326L42.873 325.297C43.4245 324.946 43.884 324.467 44.213 323.902C44.5421 323.337 44.7312 322.701 44.7646 322.048V318.294C44.7646 317.11 43.8982 316.633 42.873 317.218Z" fill="#F0F0F0"/>
<path d="M53.7246 123.462L36.5482 133.346C36.3077 133.487 36.0888 133.662 35.8984 133.866V141.62C36.1288 141.585 36.3497 141.504 36.5482 141.382L53.7246 131.469C54.2673 131.118 54.7196 130.645 55.0446 130.086C55.3695 129.528 55.558 128.901 55.5946 128.256V124.501C55.5946 123.317 54.7499 122.834 53.7246 123.462Z" fill="#F0F0F0"/>
<path d="M137.434 251.032L154.61 241.148C155.15 240.796 155.6 240.322 155.922 239.763C156.244 239.205 156.431 238.579 156.466 237.935V234.181C156.466 232.997 155.635 232.52 154.61 233.112L137.434 243.025C136.894 243.377 136.444 243.852 136.122 244.41C135.799 244.968 135.613 245.594 135.578 246.238V249.993C135.578 251.141 136.408 251.624 137.434 251.032Z" fill="#F0F0F0"/>
<path d="M165.462 48.2367L148.285 58.157C147.745 58.509 147.296 58.9834 146.973 59.5416C146.651 60.0999 146.465 60.7262 146.43 61.3699V65.1243C146.43 66.3084 147.26 66.7849 148.285 66.1929L165.462 56.3159C166.002 55.9628 166.452 55.4872 166.774 54.9277C167.097 54.3682 167.283 53.7406 167.317 53.0958V49.3414C167.317 48.1284 166.487 47.6519 165.462 48.2367Z" fill="#F0F0F0"/>
<path d="M249.307 24.4469L232.131 34.3672C231.591 34.7192 231.141 35.1936 230.819 35.7518C230.497 36.31 230.31 36.9364 230.275 37.5801V41.3345C230.275 42.5186 231.106 42.9951 232.131 42.4031L249.307 32.49C249.847 32.138 250.297 31.6636 250.619 31.1054C250.942 30.5472 251.128 29.9208 251.163 29.2771V25.5227C251.163 24.3386 250.333 23.8621 249.307 24.4469Z" fill="#F0F0F0"/>
<path d="M81.2384 155.114L98.4147 145.194C98.9548 144.842 99.4042 144.368 99.7266 143.809C100.049 143.251 100.235 142.625 100.27 141.981V138.227C100.27 137.043 99.44 136.566 98.4147 137.158L81.2384 147.071C80.6987 147.424 80.2496 147.898 79.9272 148.456C79.6049 149.014 79.4184 149.64 79.3828 150.284V154.038C79.4189 155.23 80.2131 155.706 81.2384 155.114Z" fill="#F0F0F0"/>
<path d="M167.317 202.066V198.312C167.317 197.128 166.487 196.651 165.462 197.243L148.285 207.156C147.745 207.508 147.296 207.982 146.973 208.541C146.651 209.099 146.465 209.725 146.43 210.369V214.123C146.43 215.308 147.26 215.791 148.285 215.199L165.462 205.279C166.002 204.927 166.451 204.453 166.774 203.894C167.096 203.336 167.282 202.71 167.317 202.066Z" fill="#F0F0F0"/>
<path d="M199.662 219.755L216.839 209.842C217.378 209.489 217.827 209.015 218.15 208.457C218.472 207.899 218.659 207.273 218.694 206.629V202.882C218.694 201.698 217.864 201.214 216.839 201.806L199.662 211.726C199.122 212.078 198.673 212.553 198.35 213.111C198.028 213.669 197.842 214.296 197.807 214.939V218.694C197.828 219.87 198.637 220.347 199.662 219.755Z" fill="#F0F0F0"/>
<path d="M229.546 190.536V186.782C229.546 185.605 228.715 185.121 227.69 185.713L210.514 195.662C209.974 196.014 209.524 196.488 209.202 197.047C208.879 197.605 208.693 198.231 208.658 198.875V202.629C208.658 203.813 209.489 204.29 210.514 203.698L227.69 193.785C228.235 193.429 228.687 192.949 229.009 192.384C229.332 191.819 229.516 191.186 229.546 190.536Z" fill="#F0F0F0"/>
<path d="M256.073 159.562V155.808C256.073 154.624 255.243 154.14 254.217 154.732L237.041 164.652C236.501 165.004 236.052 165.478 235.729 166.037C235.407 166.595 235.221 167.221 235.186 167.865V171.619C235.186 172.803 236.016 173.28 237.041 172.688L254.217 162.775C254.757 162.422 255.206 161.948 255.529 161.39C255.851 160.832 256.037 160.206 256.073 159.562Z" fill="#F0F0F0"/>
<path d="M222.016 206.875L239.192 196.962C239.731 196.608 240.179 196.133 240.501 195.575C240.823 195.017 241.01 194.392 241.048 193.749V189.987C241.048 188.81 240.21 188.326 239.192 188.919L222.016 198.839C221.476 199.191 221.026 199.665 220.704 200.223C220.381 200.782 220.195 201.408 220.16 202.052V205.806C220.16 206.99 220.99 207.467 222.016 206.875Z" fill="#F0F0F0"/>
<path d="M243.112 158.71V154.956C243.112 153.772 242.282 153.295 241.257 153.88L224.08 163.8C223.54 164.152 223.091 164.627 222.768 165.185C222.446 165.743 222.26 166.37 222.225 167.013V170.768C222.225 171.952 223.055 172.428 224.08 171.836L241.257 161.923C241.797 161.571 242.246 161.097 242.568 160.538C242.891 159.98 243.077 159.354 243.112 158.71Z" fill="#F0F0F0"/>
<path d="M230.889 137.96L248.065 128.047C248.604 127.693 249.052 127.218 249.374 126.661C249.696 126.103 249.883 125.477 249.921 124.834V121.08C249.921 119.895 249.083 119.412 248.065 120.004L230.889 129.96C230.349 130.312 229.899 130.787 229.577 131.345C229.254 131.903 229.068 132.529 229.033 133.173V136.927C229.033 138.075 229.864 138.552 230.889 137.96Z" fill="#F0F0F0"/>
<path d="M189.663 149.692V145.938C189.663 144.761 188.833 144.277 187.807 144.869L170.631 154.789C170.091 155.141 169.641 155.616 169.319 156.174C168.997 156.732 168.81 157.359 168.775 158.002V161.728C168.775 162.912 169.606 163.388 170.631 162.796L187.807 152.883C188.344 152.533 188.792 152.062 189.114 151.508C189.436 150.954 189.624 150.332 189.663 149.692Z" fill="#F0F0F0"/>
<path d="M42.0643 231.249L35.8984 234.809V242.852L42.0643 239.285C42.6015 238.935 43.0492 238.464 43.3715 237.91C43.6937 237.356 43.8815 236.734 43.9199 236.094V232.34C43.9199 231.134 43.0896 230.657 42.0643 231.249Z" fill="#F0F0F0"/>
<path d="M54.5344 284.042L37.3581 293.962C36.7273 294.375 36.2266 294.958 35.9141 295.644V302.005C36.1216 302.163 36.3752 302.249 36.6361 302.249C36.8969 302.249 37.1506 302.163 37.3581 302.005L54.5344 292.092C55.0745 291.74 55.5239 291.266 55.8463 290.707C56.1687 290.149 56.355 289.523 56.39 288.879V285.125C56.39 283.933 55.5958 283.45 54.5344 284.042Z" fill="#F0F0F0"/>
<path d="M68.5391 107.138V110.892C68.5391 112.076 69.3694 112.56 70.3946 111.968L87.571 102.047C88.111 101.695 88.5605 101.221 88.8829 100.663C89.2053 100.105 89.3915 99.4783 89.4265 98.8346V95.0802C89.4265 93.8961 88.5962 93.4196 87.571 94.0116L70.3946 103.925C69.8546 104.277 69.4051 104.751 69.0827 105.309C68.7603 105.868 68.5741 106.494 68.5391 107.138Z" fill="#F0F0F0"/>
<path d="M37.4162 341.91C37.3484 341.911 37.2818 341.893 37.2233 341.858C37.1648 341.824 37.1167 341.775 37.0841 341.715C37.0346 341.627 37.0221 341.523 37.0491 341.426C37.0762 341.328 37.1407 341.245 37.2285 341.195L331.501 171.294C331.589 171.244 331.694 171.23 331.792 171.256C331.89 171.283 331.974 171.347 332.025 171.435C332.075 171.523 332.089 171.628 332.063 171.726C332.036 171.824 331.972 171.908 331.884 171.959L37.6112 341.86C37.552 341.894 37.4846 341.911 37.4162 341.91Z" fill="#E0E0E0"/>
<path d="M140.068 344.517C138.827 344.529 137.603 344.22 136.516 343.622L108.625 327.521C107.885 327.149 107.263 326.579 106.829 325.873C106.394 325.168 106.164 324.357 106.164 323.528C106.164 322.7 106.394 321.888 106.829 321.183C107.263 320.478 107.885 319.908 108.625 319.536L140.018 301.413C141.108 300.821 142.329 300.511 143.57 300.511C144.811 300.511 146.032 300.821 147.122 301.413L175.006 317.507C175.744 317.881 176.363 318.452 176.796 319.157C177.229 319.861 177.458 320.672 177.458 321.5C177.458 322.327 177.229 323.138 176.796 323.842C176.363 324.547 175.744 325.118 175.006 325.492L143.613 343.622C142.528 344.219 141.307 344.528 140.068 344.517Z" fill="#E0E0E0"/>
<path opacity="0.1" d="M184.335 28.577C184.335 28.4687 184.335 28.3604 184.284 28.2593C184.233 28.1582 184.284 28.1149 184.233 28.0427C184.236 28.0259 184.236 28.0089 184.233 27.9921C184.221 27.9426 184.204 27.8943 184.183 27.8477C184.187 27.8214 184.187 27.7946 184.183 27.7683C184.163 27.7135 184.139 27.6604 184.111 27.6095C184.058 27.4952 183.99 27.3884 183.909 27.2918C183.879 27.25 183.845 27.2113 183.807 27.1763C183.775 27.1347 183.736 27.0982 183.692 27.068C183.631 27.0165 183.566 26.9706 183.497 26.9308L183.382 26.8658C183.035 26.7351 182.661 26.6918 182.293 26.7396C181.925 26.7874 181.575 26.925 181.273 27.1402L73.2982 89.3983C72.3663 89.9779 71.6002 90.7887 71.0744 91.752C70.9947 91.8814 70.9247 92.0165 70.865 92.1563C70.8073 92.2646 70.7567 92.3729 70.7062 92.4812C70.641 92.6176 70.5832 92.7574 70.5329 92.9C70.4752 93.0443 70.4318 93.1888 70.3885 93.3332C70.3452 93.4776 70.3308 93.5425 70.3091 93.6508C70.3026 93.6745 70.3026 93.6994 70.3091 93.723C70.3091 93.8169 70.2658 93.9108 70.2513 94.0046C70.2479 94.0671 70.2479 94.1298 70.2513 94.1923C70.2513 94.279 70.2513 94.3584 70.2513 94.445C70.2443 94.5797 70.2443 94.7147 70.2513 94.8493V284.735C70.2513 284.851 70.2513 284.952 70.2513 285.06C70.2513 285.169 70.2513 285.248 70.2513 285.342C70.2653 285.442 70.287 285.541 70.3163 285.638L70.3596 285.782C70.3793 285.846 70.4034 285.909 70.4318 285.97C70.5191 286.178 70.6467 286.367 70.8073 286.526L70.9228 286.641L71.0022 286.692L71.1177 286.757C71.2457 286.826 71.3814 286.879 71.5221 286.916H71.6881H71.8975C72.4087 286.902 72.907 286.752 73.3415 286.483L181.223 224.297C182.139 223.7 182.902 222.895 183.449 221.948C183.996 221.001 184.312 219.938 184.371 218.846V28.9596C184.349 28.8152 184.342 28.6925 184.335 28.577Z" fill="black"/>
<path d="M191.107 32.4325C191.107 32.3242 191.107 32.2159 191.056 32.1148C191.006 32.0137 191.056 31.9704 191.006 31.8982C191.008 31.8814 191.008 31.8644 191.006 31.8476C190.993 31.7981 190.976 31.7498 190.955 31.7032C190.959 31.6769 190.959 31.6501 190.955 31.6238C190.935 31.569 190.911 31.5158 190.883 31.465C190.83 31.3507 190.762 31.2439 190.681 31.1473C190.651 31.1055 190.617 31.0668 190.58 31.0318C190.547 30.9902 190.508 30.9537 190.464 30.9235C190.403 30.872 190.338 30.8261 190.269 30.7863L190.154 30.7213C189.482 30.3242 187.793 29.3495 187.302 29.0679C186.948 28.9038 186.557 28.8379 186.17 28.8773C185.782 28.9167 185.413 29.0599 185.1 29.2918L77.1245 91.5498C76.1922 92.1312 75.4242 92.9415 74.8935 93.9035C74.7488 94.1472 74.621 94.4005 74.5108 94.6616C74.4025 94.9216 74.3015 95.1815 74.222 95.4414L74.1137 95.8385C74.0263 96.2199 73.9803 96.6096 73.9766 97.0009V286.887C73.9766 286.981 73.9766 287.075 73.9766 287.161C73.9766 287.248 73.9766 287.335 73.9766 287.414L74.0199 287.652C74.0315 287.729 74.0508 287.804 74.0776 287.876C74.1366 288.056 74.2166 288.228 74.3159 288.389C74.4104 288.538 74.5301 288.67 74.6697 288.779C74.7275 288.828 74.7905 288.872 74.8574 288.909L75.3989 289.219L76.3519 289.775L77.3339 290.338L77.6082 290.497L77.6876 290.547L77.8032 290.612C77.9311 290.681 78.0668 290.735 78.2075 290.771H78.3735H78.5829C79.0941 290.757 79.5924 290.608 80.0269 290.338L187.973 228.152C188.89 227.555 189.652 226.75 190.199 225.803C190.746 224.856 191.062 223.793 191.121 222.701V32.8151C191.121 32.6707 191.114 32.548 191.107 32.4325ZM94.1998 96.2717C94.1958 96.1971 94.1958 96.1224 94.1998 96.0479C94.1998 95.954 94.1998 95.8602 94.1998 95.7591C94.2582 94.6509 94.5777 93.5723 95.1323 92.6112C95.6869 91.65 96.4608 90.8336 97.391 90.2286L97.6148 90.113C97.787 90.0289 97.9657 89.9589 98.1491 89.9037H98.2502C98.3309 90.2051 98.3721 90.5158 98.3729 90.8278C98.3117 91.9343 97.991 93.0108 97.4366 93.9704C96.8822 94.9299 96.1097 95.7455 95.1817 96.3511C94.9098 96.5086 94.6186 96.63 94.3153 96.7121C94.2632 96.5692 94.2245 96.4218 94.1998 96.2717ZM166.111 54.2224C166.17 53.1152 166.489 52.0374 167.042 51.0765C167.595 50.1156 168.367 49.2986 169.295 48.6919C169.386 48.6381 169.48 48.5899 169.577 48.5475L169.735 48.4753L169.952 48.3959L170.161 48.3453C170.24 48.6421 170.279 48.948 170.277 49.2551C170.219 50.3632 169.899 51.4418 169.344 52.4029C168.79 53.3641 168.016 54.1805 167.086 54.7856C166.818 54.9454 166.529 55.0647 166.227 55.1394C166.148 54.8401 166.109 54.5318 166.111 54.2224Z" fill="#37474F"/>
<path d="M76.9227 98.7118V288.598C76.8929 288.95 76.9423 289.305 77.0672 289.636C77.1922 289.967 77.3894 290.266 77.6447 290.511L74.8794 288.916C74.5559 288.693 74.2991 288.387 74.1363 288.029C73.9735 287.672 73.9109 287.277 73.9553 286.887V97.0007C73.994 95.9063 74.3122 94.84 74.8794 93.9033L77.8324 95.6072C77.2673 96.5467 76.9539 97.616 76.9227 98.7118Z" fill="#263238"/>
<path d="M191.108 32.4324C191.108 32.3241 191.108 32.2158 191.057 32.1148C191.007 32.0137 191.057 31.9704 191.007 31.8982C191.009 31.8814 191.009 31.8644 191.007 31.8476C190.994 31.7981 190.978 31.7497 190.956 31.7032C190.96 31.6769 190.96 31.6501 190.956 31.6238C190.937 31.569 190.913 31.5158 190.884 31.465C190.831 31.3507 190.763 31.2439 190.682 31.1473C190.652 31.1055 190.618 31.0668 190.581 31.0318C190.548 30.9902 190.509 30.9537 190.465 30.9235C190.405 30.872 190.339 30.8261 190.27 30.7863L190.155 30.7213C189.808 30.5906 189.434 30.5472 189.067 30.5951C188.699 30.6429 188.349 30.7805 188.047 30.9957L80.0716 93.2537C79.1397 93.8333 78.3737 94.6442 77.8479 95.6074C77.7681 95.7368 77.6982 95.872 77.6385 96.0118C77.5807 96.1201 77.5302 96.2284 77.4796 96.3367C77.4145 96.4731 77.3566 96.6129 77.3064 96.7554C77.2486 96.8998 77.2053 97.0442 77.162 97.1886C77.1186 97.333 77.1042 97.398 77.0825 97.5063C77.0761 97.5299 77.0761 97.5549 77.0825 97.5785C77.0825 97.6724 77.0392 97.7662 77.0248 97.8601C77.0213 97.9226 77.0213 97.9853 77.0248 98.0478C77.0248 98.1344 77.0248 98.2139 77.0248 98.3005C77.0178 98.4352 77.0178 98.5701 77.0248 98.7048V288.591C77.0248 288.706 77.0248 288.807 77.0248 288.916C77.0248 289.024 77.0248 289.103 77.0248 289.197C77.0387 289.298 77.0605 289.397 77.0898 289.493L77.1331 289.638C77.1528 289.702 77.1769 289.765 77.2053 289.826C77.2925 290.034 77.4201 290.223 77.5807 290.381L77.6962 290.497L77.7757 290.547L77.8912 290.612C78.0191 290.681 78.1548 290.735 78.2955 290.771H78.4616H78.6709C79.1821 290.757 79.6804 290.608 80.1149 290.338L187.975 228.152C188.891 227.555 189.654 226.751 190.201 225.803C190.748 224.856 191.063 223.793 191.122 222.701V32.8151C191.122 32.6707 191.115 32.548 191.108 32.4324ZM94.2012 96.2717C94.1972 96.1971 94.1972 96.1224 94.2012 96.0479C94.2012 95.954 94.2012 95.8601 94.2012 95.7591C94.2595 94.6509 94.5791 93.5723 95.1337 92.6112C95.6883 91.65 96.4622 90.8336 97.3924 90.2285L97.6162 90.113C97.7884 90.0289 97.967 89.9589 98.1505 89.9036H98.2516C98.3323 90.2051 98.3735 90.5157 98.3743 90.8278C98.3131 91.9343 97.9923 93.0108 97.4379 93.9704C96.8836 94.9299 96.1111 95.7455 95.1831 96.3511C94.9112 96.5086 94.62 96.63 94.3167 96.7121C94.2645 96.5692 94.2259 96.4218 94.2012 96.2717ZM166.112 54.2224C166.171 53.1152 166.49 52.0374 167.043 51.0765C167.596 50.1156 168.368 49.2986 169.296 48.6919C169.387 48.6381 169.481 48.5898 169.578 48.5475L169.737 48.4753L169.953 48.3959L170.163 48.3453C170.241 48.6421 170.28 48.948 170.278 49.255C170.22 50.3632 169.9 51.4418 169.346 52.4029C168.791 53.3641 168.017 54.1805 167.087 54.7856C166.82 54.9454 166.53 55.0647 166.228 55.1393C166.149 54.8401 166.111 54.5318 166.112 54.2224Z" fill="#455A64"/>
<path d="M78.7656 253.971L189.282 190.168V57.6377L78.7656 121.441V253.971Z" fill="white"/>
<path d="M97.5781 90.1132C97.7488 90.0258 97.9278 89.9557 98.1124 89.9038C97.929 89.959 97.7503 90.0291 97.5781 90.1132Z" fill="#263238"/>
<path d="M100.548 92.0768C100.487 93.1833 100.166 94.2598 99.6118 95.2194C99.0574 96.1789 98.285 96.9945 97.357 97.6001C95.913 98.4448 94.6567 98.0189 94.2812 96.6832C94.5845 96.6011 94.8758 96.4797 95.1476 96.3222C96.0757 95.7165 96.8481 94.9009 97.4025 93.9414C97.9569 92.9819 98.2777 91.9054 98.3389 90.7989C98.3381 90.4868 98.2968 90.1762 98.2161 89.8747H98.1151C99.5085 89.5282 100.548 90.344 100.548 92.0768Z" fill="#263238"/>
<path d="M172.486 50.5402C172.428 51.6483 172.108 52.7269 171.554 53.6881C170.999 54.6492 170.225 55.4656 169.295 56.0707C167.851 56.9154 166.602 56.4822 166.227 55.1465C166.529 55.0719 166.818 54.9526 167.086 54.7928C168.016 54.1877 168.79 53.3713 169.344 52.4101C169.899 51.449 170.219 50.3704 170.277 49.2622C170.279 48.9552 170.24 48.6493 170.161 48.3525C171.504 48.006 172.486 48.8435 172.486 50.5402Z" fill="#263238"/>
<path d="M93.4042 152.342C93.3012 152.343 93.199 152.324 93.1035 152.285C93.0081 152.246 92.9213 152.189 92.8481 152.116C92.7749 152.044 92.7169 151.957 92.6772 151.862C92.6376 151.767 92.6172 151.665 92.6172 151.562V125.13C92.6173 124.992 92.6542 124.856 92.7239 124.737C92.7937 124.618 92.8939 124.519 93.0143 124.451L112.869 112.986C112.958 112.935 113.057 112.902 113.159 112.888C113.261 112.875 113.364 112.882 113.463 112.909C113.563 112.936 113.656 112.982 113.737 113.045C113.818 113.107 113.887 113.186 113.938 113.275C113.989 113.364 114.022 113.462 114.035 113.564C114.049 113.666 114.042 113.77 114.015 113.869C113.988 113.968 113.942 114.061 113.879 114.142C113.816 114.224 113.738 114.292 113.649 114.343L94.1551 125.578V151.57C94.1533 151.77 94.0743 151.962 93.9345 152.106C93.7946 152.25 93.6047 152.335 93.4042 152.342Z" fill="#373873"/>
<path d="M93.4042 234.123C93.2665 234.125 93.1313 234.087 93.0143 234.015C92.8939 233.947 92.7937 233.849 92.7239 233.729C92.6542 233.61 92.6173 233.474 92.6172 233.336V206.918C92.6359 206.723 92.7265 206.543 92.8714 206.411C93.0162 206.279 93.2049 206.207 93.4006 206.207C93.5962 206.207 93.7849 206.279 93.9297 206.411C94.0746 206.543 94.1652 206.723 94.1839 206.918V231.979L112.869 221.199C112.958 221.148 113.056 221.114 113.158 221.1C113.259 221.086 113.363 221.092 113.462 221.118C113.561 221.144 113.654 221.19 113.736 221.252C113.818 221.314 113.886 221.392 113.938 221.481C113.99 221.571 114.023 221.669 114.037 221.772C114.05 221.875 114.043 221.979 114.017 222.079C113.99 222.179 113.943 222.272 113.88 222.354C113.817 222.436 113.739 222.505 113.649 222.557L93.7941 234.015C93.6771 234.087 93.5418 234.125 93.4042 234.123Z" fill="#373873"/>
<path d="M174.638 105.412C174.431 105.412 174.233 105.33 174.087 105.184C173.941 105.037 173.859 104.839 173.859 104.632V79.5862L155.18 90.3656C155 90.469 154.787 90.4967 154.586 90.4425C154.386 90.3884 154.215 90.2568 154.112 90.0768C154.008 89.8968 153.981 89.6831 154.035 89.4827C154.089 89.2824 154.221 89.1117 154.401 89.0083L174.248 77.5501C174.367 77.4824 174.502 77.4468 174.638 77.4468C174.775 77.4468 174.909 77.4824 175.028 77.5501C175.149 77.6179 175.249 77.7165 175.319 77.8358C175.388 77.955 175.425 78.0907 175.425 78.2288V104.647C175.421 104.852 175.337 105.048 175.189 105.191C175.042 105.335 174.844 105.414 174.638 105.412Z" fill="#373873"/>
<path d="M154.79 198.68C154.652 198.681 154.517 198.646 154.397 198.577C154.278 198.509 154.179 198.41 154.111 198.29C154.059 198.201 154.026 198.103 154.013 198.001C153.999 197.899 154.006 197.795 154.033 197.696C154.06 197.597 154.106 197.503 154.169 197.422C154.232 197.341 154.31 197.273 154.4 197.222L173.894 185.987V159.995C173.912 159.801 174.003 159.62 174.148 159.488C174.293 159.357 174.481 159.284 174.677 159.284C174.873 159.284 175.061 159.357 175.206 159.488C175.351 159.62 175.442 159.801 175.46 159.995V186.413C175.46 186.552 175.424 186.687 175.354 186.806C175.284 186.926 175.184 187.024 175.063 187.092L155.18 198.55C155.062 198.625 154.928 198.67 154.79 198.68Z" fill="#373873"/>
<path d="M162.45 170.002L167.778 166.926V152.616C167.728 152.616 167.699 152.616 167.677 152.616L162.688 155.504C162.435 155.649 162.421 155.858 162.421 156.111C162.421 158.205 162.421 160.298 162.421 162.399C162.421 162.739 162.5 162.818 162.76 162.659C163.403 162.262 164.053 161.937 164.702 161.526C164.998 161.338 165.128 161.367 165.121 161.807C165.121 162.681 165.121 163.54 165.121 164.392C165.144 164.539 165.118 164.688 165.048 164.819C164.977 164.949 164.866 165.053 164.731 165.114C164.067 165.475 163.41 165.879 162.746 166.248C162.633 166.302 162.541 166.391 162.482 166.501C162.424 166.612 162.402 166.738 162.421 166.861C162.421 167.908 162.421 168.955 162.421 170.002L159.721 171.562V153.591C158.999 154.003 158.349 154.392 157.692 154.761C156.898 155.216 157.013 155.302 156.97 154.241C156.97 153.367 156.97 152.494 156.97 151.577L154.269 153.136V149.526C153.547 149.894 152.825 150.335 152.103 150.746C151.576 151.05 151.576 151.05 151.576 150.371V148.205C151.576 147.483 151.576 147.483 152.147 147.136L154.255 145.916V142.306C153.468 142.768 152.717 143.18 151.937 143.649C151.663 143.822 151.569 143.75 151.576 143.375C151.576 142.573 151.576 141.786 151.576 140.999C151.576 140.212 151.576 140.277 152.147 139.938L154.277 138.703C154.277 137.592 154.277 136.537 154.277 135.519C154.277 135.122 154.161 135.115 153.901 135.274C153.244 135.678 152.58 135.996 151.923 136.429C151.641 136.602 151.562 136.516 151.569 136.148C151.569 135.259 151.569 134.393 151.569 133.498C151.569 133.122 151.475 133.072 151.201 133.238C150.544 133.642 149.88 134.025 149.223 134.379C149.091 134.442 148.985 134.547 148.921 134.678C148.857 134.809 148.838 134.958 148.869 135.101C148.869 135.989 148.869 136.898 148.869 137.794C148.889 137.907 148.872 138.024 148.821 138.128C148.771 138.232 148.689 138.317 148.587 138.371C147.786 138.819 146.984 139.281 146.183 139.736C146.183 134.09 146.183 128.444 146.183 122.798C146.183 121.78 146.183 121.78 145.403 122.227L143.512 123.318V119.708C144.306 119.253 145.064 118.798 145.829 118.379C145.96 118.315 146.067 118.21 146.132 118.079C146.197 117.949 146.218 117.8 146.19 117.657C146.19 115.585 146.19 113.513 146.19 111.426C146.19 111.036 146.104 110.942 145.808 111.123C145.201 111.498 144.595 111.802 143.988 112.192C143.606 112.437 143.461 112.401 143.468 111.831C143.468 109.845 143.468 107.888 143.468 105.903C143.468 105.434 143.389 105.311 143.013 105.535C140.607 106.94 138.2 108.329 135.793 109.701C135.627 109.775 135.491 109.903 135.406 110.064C135.321 110.225 135.292 110.41 135.324 110.589C135.324 112.567 135.324 114.567 135.324 116.545C135.356 116.726 135.327 116.913 135.24 117.075C135.154 117.237 135.016 117.366 134.848 117.44C134.227 117.765 133.606 118.162 132.985 118.509C132.711 118.675 132.609 118.61 132.617 118.235C132.617 117.383 132.617 116.552 132.617 115.693C132.617 115.267 132.537 115.137 132.198 115.354C131.563 115.751 130.927 116.112 130.299 116.451C130.163 116.512 130.052 116.615 129.981 116.746C129.91 116.877 129.885 117.027 129.909 117.173C129.909 118.04 129.909 118.928 129.909 119.816C129.89 120.018 129.815 120.21 129.693 120.372C128.877 120.87 128.061 121.332 127.202 121.816V114.639C126.335 115.137 125.519 115.599 124.704 116.083C124.595 116.232 124.528 116.406 124.509 116.589C124.509 117.498 124.509 118.401 124.509 119.289C124.538 119.433 124.518 119.583 124.451 119.714C124.384 119.845 124.274 119.95 124.14 120.011C123.483 120.379 122.819 120.783 122.162 121.144C122.03 121.207 121.922 121.312 121.855 121.443C121.789 121.573 121.767 121.722 121.794 121.866C121.794 122.653 121.794 123.448 121.794 124.242C121.794 125.036 121.794 124.964 122.364 124.646C123.808 123.794 125.317 122.935 126.797 122.097C126.927 122.025 127.166 122.047 127.166 122.141C127.166 123.209 127.166 124.307 127.166 125.455C126.364 125.91 125.613 126.364 124.87 126.769C124.726 126.836 124.608 126.949 124.535 127.09C124.462 127.231 124.438 127.392 124.465 127.548C124.465 128.574 124.465 129.613 124.465 130.646L127.151 129.115V132.725L124.559 134.292V137.902C125.332 137.462 126.104 137.028 126.877 136.566C127.166 136.393 127.267 136.436 127.259 136.841C127.259 137.888 127.259 138.906 127.259 139.938L130.061 138.371C130.061 139.57 129.945 140.79 130.017 141.945C131.685 140.985 133.31 140.032 134.97 139.1C135.1 139.021 135.346 139.05 135.353 139.144C135.353 140.212 135.353 141.31 135.353 142.458C132.776 143.952 130.212 145.418 127.642 146.92C127.49 147.006 127.252 147.028 127.252 147.403C127.252 148.494 127.252 149.569 127.252 150.732C128.046 150.27 128.797 149.858 129.541 149.396C129.866 149.201 129.989 149.252 129.974 149.707C129.974 150.566 129.974 151.389 129.974 152.248C129.974 152.71 130.082 152.746 130.407 152.559C131.924 151.663 133.44 150.804 134.956 149.916C135.259 149.736 135.382 149.772 135.375 150.212C135.375 151.064 135.375 151.909 135.375 152.739C135.401 152.898 135.373 153.061 135.296 153.202C135.219 153.344 135.097 153.455 134.949 153.519C134.306 153.873 133.656 154.277 133.014 154.631C132.894 154.688 132.796 154.782 132.734 154.899C132.671 155.016 132.648 155.149 132.667 155.281C132.667 156.104 132.667 156.948 132.667 157.757C132.706 157.947 132.679 158.145 132.592 158.318C132.504 158.491 132.36 158.629 132.183 158.71C131.577 159.02 130.971 159.432 130.364 159.742C130.222 159.81 130.105 159.921 130.032 160.061C129.959 160.2 129.934 160.36 129.96 160.515C129.96 162.768 129.96 164.948 129.96 167.237L127.259 168.796C127.259 169.829 127.259 170.861 127.259 171.901C127.259 172.276 127.353 172.334 127.628 172.168C128.386 171.713 129.151 171.28 129.952 170.818C130.061 172.984 129.952 175.265 129.996 177.46C130.022 177.616 129.996 177.775 129.923 177.915C129.85 178.054 129.734 178.166 129.591 178.233C128.819 178.659 128.039 179.121 127.267 179.576C127.267 180.587 127.267 181.612 127.267 182.615C127.296 182.777 127.269 182.944 127.19 183.089C127.111 183.233 126.985 183.346 126.833 183.41C126.241 183.727 125.649 184.132 125.057 184.42C124.631 184.623 124.545 184.882 124.559 185.395C124.559 186.341 124.559 187.316 124.559 188.283C125.339 187.85 126.111 187.438 126.884 186.976C127.202 186.781 127.281 186.875 127.281 187.287C127.281 189.316 127.281 191.344 127.281 193.359C127.315 193.537 127.288 193.722 127.206 193.884C127.124 194.046 126.99 194.176 126.826 194.254C125.166 195.207 123.534 196.095 121.881 197.142C121.881 198.189 121.881 199.185 121.881 200.189C121.881 200.586 121.967 200.673 122.263 200.492C122.906 200.095 123.556 199.77 124.205 199.359C124.487 199.185 124.602 199.229 124.595 199.64C124.595 200.514 124.595 201.373 124.595 202.225C124.611 202.371 124.582 202.518 124.513 202.647C124.443 202.776 124.336 202.88 124.205 202.947C123.548 203.308 122.884 203.669 122.227 204.095C122.075 204.219 121.963 204.385 121.902 204.571C121.902 205.654 121.902 206.737 121.902 207.828L127.296 204.716C127.296 203.683 127.296 202.694 127.296 201.72C127.266 201.563 127.288 201.401 127.36 201.258C127.432 201.116 127.549 201.001 127.693 200.933C128.35 200.579 129.014 200.211 129.671 199.792C129.952 199.619 130.039 199.705 130.032 200.073C130.032 200.961 130.032 201.828 130.032 202.716C130.032 203.041 130.082 203.171 130.357 203.005C131.945 202.073 133.526 201.164 135.108 200.261C135.219 200.205 135.31 200.114 135.368 200.002C135.425 199.891 135.445 199.764 135.425 199.64C135.425 198.767 135.425 197.871 135.425 197.005C135.409 196.86 135.436 196.713 135.505 196.585C135.573 196.456 135.679 196.35 135.808 196.283C136.458 195.929 137.1 195.561 137.75 195.164C138.053 194.976 138.133 195.106 138.126 195.481C138.126 196.297 138.126 197.092 138.126 197.915C138.126 198.449 138.234 198.499 138.616 198.283C141.165 196.759 143.707 195.395 146.255 193.821C146.255 190.442 146.255 187.077 146.255 183.713C146.255 183.251 146.327 182.991 146.71 182.818C147.317 182.507 147.923 182.096 148.53 181.785C148.684 181.721 148.812 181.606 148.891 181.458C148.97 181.311 148.995 181.141 148.963 180.976C148.963 180.11 148.963 179.215 148.963 178.341C148.943 178.211 148.965 178.078 149.026 177.961C149.087 177.844 149.184 177.75 149.302 177.691C149.981 177.323 150.652 176.933 151.324 176.529C151.591 176.363 151.663 176.464 151.663 176.796C151.663 177.72 151.663 178.623 151.663 179.547C151.663 179.872 151.75 179.937 151.981 179.792C152.789 179.316 153.547 178.89 154.363 178.413C154.363 180.767 154.363 183.02 154.363 185.265C154.372 185.372 154.347 185.48 154.291 185.572C154.235 185.664 154.152 185.736 154.053 185.778C153.367 186.175 152.681 186.558 151.995 186.969C151.728 187.128 151.649 187.041 151.656 186.702C151.656 185.814 151.656 184.947 151.656 184.059C151.656 183.706 151.598 183.576 151.302 183.756C150.645 184.16 149.988 184.543 149.324 184.904C149.196 184.973 149.092 185.078 149.025 185.207C148.958 185.336 148.931 185.482 148.948 185.626C148.948 186.428 148.948 187.229 148.948 188.059C148.948 188.572 149.049 188.673 149.432 188.435C150.154 187.973 150.876 187.583 151.649 187.142V190.608L154.349 189.048C154.349 188.139 154.349 187.28 154.349 186.413C154.349 185.402 154.233 185.568 155.013 185.121C156.457 184.283 157.901 183.438 159.345 182.63C159.504 182.556 159.633 182.431 159.713 182.276C159.792 182.12 159.818 181.942 159.786 181.771C159.677 177.792 160.37 178.666 157.388 180.146C157.273 180.204 157.071 180.146 157.071 180.031C157.071 178.977 157.071 177.901 157.071 176.789C158.703 175.771 160.305 174.912 161.937 173.944C162.486 173.627 162.486 173.627 162.486 172.868C162.392 171.908 162.37 171.013 162.45 170.002ZM127.296 129.115V125.505C128.198 124.993 129.057 124.444 129.952 123.902C129.952 122.863 130.017 121.801 130.017 120.769C129.996 120.646 130.015 120.519 130.071 120.407C130.126 120.296 130.217 120.205 130.328 120.148C131.05 119.765 131.707 119.368 132.393 118.964C132.638 118.82 132.711 118.906 132.711 119.217C132.711 122.528 132.711 125.84 132.711 129.151C132.728 129.283 132.704 129.417 132.642 129.535C132.58 129.653 132.483 129.748 132.364 129.808C131.7 130.169 131.043 130.53 130.378 130.949C130.104 131.115 130.003 131.057 130.01 130.682C130.01 129.628 130.01 128.624 130.01 127.585L127.296 129.115ZM132.299 137.014C131.577 137.418 130.855 137.866 130.097 138.299C130.037 138.172 129.991 138.039 129.96 137.902C129.96 136.992 129.96 136.075 129.96 135.173C129.938 135.042 129.958 134.908 130.018 134.79C130.078 134.672 130.174 134.576 130.292 134.516C130.963 134.155 131.635 133.794 132.306 133.353C132.588 133.187 132.667 133.296 132.66 133.649C132.66 134.516 132.66 135.382 132.66 136.227C132.69 136.384 132.667 136.546 132.595 136.688C132.524 136.83 132.407 136.945 132.263 137.014H132.299ZM151.865 154.508L154.262 153.143V156.71C153.403 157.208 152.58 157.692 151.75 158.154C151.692 158.154 151.584 158.046 151.584 157.93C151.584 156.977 151.584 156.003 151.584 155.042C151.569 154.935 151.588 154.826 151.639 154.73C151.689 154.634 151.768 154.557 151.865 154.508ZM146.457 143.23C147.179 142.819 147.851 142.429 148.551 142.01C148.782 141.873 148.883 141.916 148.883 142.241C148.883 143.165 148.883 144.082 148.883 144.992C148.898 145.116 148.874 145.242 148.814 145.351C148.755 145.461 148.663 145.55 148.551 145.606C147.88 145.981 147.201 146.328 146.53 146.775C146.241 146.949 146.176 146.826 146.176 146.472C146.176 145.469 146.176 144.479 146.176 143.483C146.261 143.392 146.356 143.31 146.457 143.238V143.23ZM146.183 150.985C146.164 150.86 146.186 150.733 146.246 150.622C146.306 150.511 146.4 150.423 146.515 150.371C146.862 150.183 147.201 149.981 147.548 149.779C147.894 149.577 148.234 149.396 148.573 149.187C148.797 149.05 148.883 149.122 148.876 149.418C148.876 150.356 148.876 151.288 148.876 152.212C148.892 152.328 148.87 152.445 148.814 152.548C148.758 152.651 148.671 152.733 148.566 152.782C147.844 153.172 147.194 153.562 146.501 153.974C146.27 154.118 146.176 154.053 146.183 153.728C146.19 152.818 146.19 151.902 146.183 150.992V150.985ZM143.483 130.09C143.502 130.212 143.483 130.337 143.427 130.447C143.372 130.557 143.282 130.647 143.172 130.704C142.45 131.094 141.772 131.498 141.079 131.909C140.891 132.018 140.782 132.018 140.782 131.722C140.782 130.639 140.782 129.556 140.782 128.465C141.555 128.018 142.328 127.585 143.1 127.123C143.374 126.956 143.461 127.029 143.454 127.404C143.468 128.314 143.476 129.238 143.483 130.097V130.09ZM138.068 133.158C138.095 133.302 138.075 133.45 138.01 133.581C137.944 133.711 137.838 133.816 137.707 133.88C137.05 134.241 136.386 134.602 135.728 135.021C135.447 135.187 135.36 135.101 135.367 134.74C135.367 132.653 135.367 130.581 135.367 128.509C135.367 128.278 135.367 128.039 135.613 127.888L140.79 124.906V128.516C140.068 128.956 139.266 129.433 138.508 129.837C138.341 129.913 138.204 130.044 138.12 130.208C138.036 130.372 138.01 130.559 138.046 130.74C138.082 131.498 138.053 132.343 138.068 133.166V133.158ZM135.367 117.686C135.339 117.542 135.36 117.392 135.427 117.261C135.494 117.131 135.602 117.026 135.736 116.964C136.299 116.654 136.869 116.314 137.44 115.989C138.162 115.578 138.061 115.729 138.061 114.769C138.061 114.047 138.061 113.282 138.061 112.553C138.044 112.408 138.072 112.261 138.14 112.132C138.208 112.003 138.314 111.898 138.443 111.831C139.093 111.477 139.736 111.109 140.385 110.711C140.689 110.524 140.804 110.581 140.797 111.015C140.797 112.069 140.797 113.022 140.797 114.076L143.483 112.524C143.483 113.679 143.483 114.755 143.483 115.852C143.417 116.034 143.299 116.192 143.143 116.307C141.476 117.289 139.801 118.22 138.133 119.296C138.133 120.336 138.082 121.397 138.082 122.422C138.105 122.554 138.084 122.689 138.023 122.808C137.961 122.926 137.863 123.022 137.743 123.079C137.079 123.44 136.422 123.801 135.765 124.22C135.49 124.386 135.382 124.336 135.389 123.96C135.384 121.862 135.377 119.77 135.367 117.686ZM130.01 167.15C130.833 166.674 131.656 166.19 132.479 165.706C132.544 165.706 132.66 165.807 132.66 165.916C132.66 166.878 132.66 167.86 132.66 168.861C132.642 169.013 132.576 169.154 132.472 169.266C131.656 169.757 130.848 170.219 130.01 170.71V167.15ZM132.674 197.546C132.692 197.679 132.668 197.814 132.604 197.932C132.541 198.05 132.441 198.145 132.321 198.203C131.649 198.579 130.978 198.969 130.299 199.373C130.068 199.51 129.967 199.46 129.974 199.128C129.974 198.665 129.974 198.218 129.974 197.756C129.974 197.294 129.974 196.817 129.974 196.312C130.013 196.119 130.105 195.941 130.241 195.799C130.963 195.366 131.642 194.983 132.335 194.572C132.588 194.42 132.653 194.536 132.653 194.839C132.667 195.749 132.667 196.644 132.674 197.539V197.546ZM132.674 186.716C132.655 186.915 132.582 187.104 132.465 187.265C131.664 187.756 130.862 188.211 129.996 188.709V186.276C129.996 185.135 129.996 185.128 130.841 184.644L132.768 183.568C132.675 184.62 132.639 185.676 132.66 186.731L132.674 186.716ZM134.905 182.298C134.183 182.673 133.461 183.128 132.739 183.547C132.637 182.508 132.608 181.463 132.653 180.421C132.653 180.081 132.573 179.995 132.313 180.153C131.642 180.558 130.963 180.948 130.292 181.309C130.184 181.374 129.981 181.309 129.974 181.208C129.974 180.153 129.974 179.078 129.974 177.922L132.061 176.724C132.725 176.334 132.667 176.457 132.667 175.54V169.179L134.429 168.161C135.36 167.619 135.36 167.619 135.36 168.883C135.36 173.049 135.36 177.222 135.36 181.388C135.375 181.879 135.281 182.103 134.891 182.312L134.905 182.298ZM140.407 189.937C137.454 191.467 138.162 192.102 138.082 188.124C138.082 187.778 137.996 187.713 137.743 187.872C134.71 189.511 135.512 189.994 135.375 186.132C135.35 185.975 135.377 185.814 135.453 185.674C135.529 185.535 135.648 185.424 135.793 185.359C137.461 184.413 139.129 183.438 140.804 182.471C140.804 184.695 140.804 186.933 140.804 189.15C140.837 189.31 140.813 189.477 140.739 189.622C140.664 189.768 140.542 189.884 140.393 189.951L140.407 189.937ZM143.497 180.904L140.79 182.464C140.79 180.204 140.79 177.944 140.79 175.684C140.776 175.57 140.797 175.453 140.851 175.351C140.906 175.249 140.99 175.166 141.093 175.114C141.815 174.724 142.494 174.32 143.194 173.908C143.374 173.8 143.49 173.793 143.49 174.089C143.476 176.334 143.483 178.587 143.483 180.919L143.497 180.904ZM143.497 169.612C143.514 169.757 143.486 169.904 143.418 170.033C143.35 170.161 143.244 170.267 143.115 170.334C142.472 170.681 141.822 171.056 141.18 171.453C140.891 171.627 140.775 171.59 140.79 171.179C140.79 170.298 140.79 169.453 140.79 168.58C140.79 168.19 140.718 168.096 140.414 168.277C139.757 168.688 139.093 168.998 138.436 169.439C138.169 169.598 138.053 169.554 138.061 169.172C138.061 168.269 138.061 167.374 138.061 166.479C138.041 166.348 138.065 166.214 138.129 166.098C138.193 165.982 138.293 165.89 138.414 165.836C139.1 165.453 139.786 165.042 140.479 164.652C140.584 164.604 140.671 164.523 140.727 164.422C140.783 164.32 140.805 164.204 140.79 164.089C140.79 163.064 140.79 162.017 140.79 160.919C139.122 161.786 137.461 162.811 135.793 163.771C135.469 163.959 135.353 163.901 135.36 163.454C135.36 162.58 135.36 161.721 135.36 160.862C135.332 160.717 135.353 160.568 135.42 160.437C135.487 160.306 135.595 160.201 135.728 160.14C136.371 159.779 137.021 159.418 137.671 159.028C137.806 158.967 137.918 158.864 137.989 158.733C138.059 158.603 138.085 158.452 138.061 158.306C138.061 153.685 138.111 148.992 138.017 144.4C137.252 144.848 136.515 145.252 135.779 145.707C135.447 145.909 135.346 145.822 135.353 145.382C135.353 144.386 135.353 143.411 135.353 142.357L140.775 139.23V136.342C140.775 135.62 140.775 135.62 141.31 135.317C141.844 135.014 142.501 134.653 143.093 134.285C143.396 134.097 143.476 134.198 143.468 134.581C143.468 136.826 143.468 139.014 143.468 141.259L146.161 139.707V143.44C146.075 143.451 145.99 143.473 145.909 143.505C144.212 144.515 142.515 145.396 140.819 146.487V150.039L142.92 148.826C143.49 148.501 143.49 148.501 143.49 149.237V159.345C145.165 158.371 146.811 157.439 148.486 156.457C148.789 156.277 148.905 156.313 148.891 156.753C148.891 157.591 148.891 158.421 148.891 159.237C148.924 159.408 148.898 159.585 148.819 159.74C148.739 159.894 148.609 160.017 148.45 160.089C146.79 161.02 145.158 161.981 143.49 162.941C143.483 165.194 143.476 167.403 143.49 169.627L143.497 169.612ZM154.269 171.114C151.706 172.601 149.165 174.06 146.602 175.554C146.277 175.742 146.176 175.691 146.176 175.244C146.176 172.014 146.176 168.792 146.176 165.576C146.148 165.405 146.177 165.229 146.26 165.077C146.342 164.924 146.472 164.802 146.631 164.731C149.037 163.364 151.444 161.978 153.851 160.573C154.204 160.363 154.298 160.443 154.298 160.905C154.262 164.32 154.277 167.699 154.269 171.114ZM108.718 183.027C108.451 183.186 108.343 183.15 108.343 182.774C108.343 180.673 108.343 178.587 108.343 176.5C108.325 176.357 108.351 176.211 108.416 176.083C108.482 175.954 108.585 175.848 108.711 175.778C110.285 174.883 111.854 173.978 113.419 173.063C113.7 172.897 113.772 172.991 113.772 173.352C113.772 174.406 113.772 175.446 113.772 176.493C115.426 175.54 117.079 174.572 118.733 173.641C118.886 173.577 119.013 173.463 119.092 173.317C119.17 173.171 119.197 173.003 119.166 172.84C119.166 171.843 119.166 170.825 119.166 169.814C117.368 170.674 115.556 171.915 113.772 172.832C113.772 171.764 113.772 170.753 113.772 169.728C113.772 169.381 113.686 169.309 113.433 169.461C112.769 169.858 112.112 170.183 111.455 170.616C111.152 170.796 111.065 170.71 111.065 170.32C111.065 168.074 111.065 165.894 111.065 163.641C109.397 164.609 107.758 165.54 106.09 166.529C105.744 166.739 105.628 166.652 105.643 166.183C105.643 165.345 105.643 164.515 105.643 163.699C105.61 163.536 105.634 163.366 105.712 163.219C105.789 163.071 105.915 162.955 106.069 162.89C108.632 161.403 111.195 160.002 113.758 158.421C113.758 156.111 113.758 153.865 113.758 151.613C113.758 151.317 113.635 151.331 113.455 151.439C112.733 151.844 112.054 152.255 111.354 152.645C111.25 152.698 111.166 152.783 111.113 152.886C111.06 152.99 111.04 153.108 111.058 153.223C111.058 154.306 111.058 155.317 111.058 156.421L109.267 157.461C108.336 157.995 108.336 157.995 108.336 156.739V154.385C107.542 154.847 106.82 155.288 106.098 155.67C105.715 155.865 105.628 156.104 105.628 156.566C105.628 158.732 105.679 160.898 105.628 163.15L100.307 166.226C100.228 167.338 100.307 168.313 100.264 169.396C100.264 169.814 100.379 169.836 100.661 169.663C101.325 169.266 101.982 168.941 102.646 168.515C102.885 168.37 102.971 168.443 102.971 168.76C102.971 169.663 102.971 170.565 102.971 171.453C102.991 171.594 102.964 171.737 102.895 171.861C102.826 171.984 102.719 172.082 102.589 172.139C101.961 172.493 101.325 172.861 100.69 173.222C100.54 173.294 100.417 173.412 100.34 173.559C100.264 173.706 100.237 173.874 100.264 174.038C100.264 176.204 100.228 178.471 100.264 180.644C101.058 180.189 101.809 179.742 102.596 179.316C102.704 179.251 102.906 179.316 102.906 179.374C102.906 180.464 102.906 181.54 102.906 182.745L100.264 184.269V187.879C101.058 187.417 101.809 186.998 102.56 186.543C102.841 186.377 102.928 186.456 102.921 186.817C102.921 187.727 102.921 188.615 102.921 189.518C102.921 189.828 103 189.915 103.246 189.77C103.929 189.361 104.615 188.964 105.303 188.579C105.414 188.52 105.504 188.427 105.561 188.315C105.618 188.203 105.639 188.076 105.621 187.951C105.621 186.911 105.621 185.872 105.621 184.81L108.271 183.28C108.307 184.29 108.271 185.308 108.271 186.341C108.271 186.695 108.336 186.817 108.625 186.644C109.303 186.233 109.975 185.843 110.646 185.475C110.78 185.414 110.889 185.309 110.954 185.177C111.02 185.046 111.039 184.896 111.007 184.753C111.007 183.727 111.007 182.688 111.007 181.648C110.292 182.124 109.505 182.565 108.718 183.027ZM105.65 184.789C104.791 185.287 103.982 185.763 103.166 186.233C103.101 186.233 102.971 186.153 102.971 186.052C102.971 184.991 102.971 183.886 102.971 182.774C103.831 182.276 104.625 181.814 105.412 181.381C105.498 181.33 105.643 181.431 105.65 181.54C105.657 182.572 105.65 183.648 105.65 184.789ZM107.982 172.63C107.441 172.926 106.899 173.244 106.358 173.562C105.571 174.031 105.636 173.843 105.636 174.89C105.636 175.612 105.636 176.37 105.636 177.099C105.656 177.232 105.633 177.369 105.571 177.488C105.508 177.607 105.41 177.704 105.289 177.764C104.618 178.139 103.946 178.486 103.275 178.926C103.015 179.085 102.935 178.991 102.935 178.659C102.935 177.598 102.935 176.543 102.935 175.489C102.935 174.435 102.935 173.482 102.935 172.486C102.905 172.329 102.928 172.167 103 172.025C103.072 171.882 103.189 171.768 103.332 171.699C104.87 170.832 106.415 169.937 107.953 169.035C108.22 168.876 108.336 168.912 108.329 169.295C108.329 170.183 108.329 171.063 108.329 171.93C108.352 172.068 108.331 172.211 108.269 172.336C108.207 172.462 108.106 172.565 107.982 172.63ZM149.396 127.144L167.778 116.531V92.0405C167.778 91.3185 167.778 91.3185 167.222 91.6218L149.396 101.91C148.876 102.206 148.876 102.214 148.876 102.899V126.725C148.876 127.411 148.876 127.411 149.396 127.115V127.144ZM152.031 103.968C156.219 101.561 160.404 99.1546 164.587 96.748C165.006 96.5097 165.092 96.6541 165.085 97.1667C165.085 99.9537 165.085 102.733 165.085 105.513C165.085 108.293 165.085 111.08 165.085 113.852C165.118 114.04 165.088 114.233 164.999 114.402C164.91 114.57 164.768 114.705 164.594 114.784C160.406 117.19 156.221 119.597 152.038 122.004C151.685 122.206 151.562 122.162 151.562 121.664C151.562 116.061 151.562 110.464 151.562 104.87C151.53 104.689 151.559 104.503 151.644 104.34C151.729 104.177 151.865 104.046 152.031 103.968ZM100.769 155.23C106.743 151.774 112.711 148.325 118.675 144.884C119.195 144.588 119.195 144.588 119.195 143.895V120.069C119.195 119.383 119.195 119.383 118.675 119.679C112.552 123.238 106.401 126.697 100.314 130.307C100.257 138.523 100.314 146.66 100.314 154.855C100.257 155.353 100.358 155.432 100.74 155.23H100.769ZM102.986 132.906C102.961 132.74 102.99 132.571 103.068 132.423C103.146 132.275 103.269 132.156 103.419 132.083C107.645 129.676 111.869 127.238 116.09 124.769C116.429 124.567 116.502 124.704 116.502 125.115C116.502 127.96 116.502 130.79 116.502 133.621C116.502 136.451 116.502 139.187 116.502 141.96C116.53 142.132 116.501 142.309 116.419 142.463C116.336 142.617 116.206 142.739 116.047 142.812C111.84 145.218 107.631 147.649 103.419 150.104C103.101 150.291 102.979 150.248 102.979 149.801C102.974 144.15 102.967 138.511 102.957 132.884L102.986 132.906ZM118.718 184.471C112.581 188.028 106.447 191.573 100.314 195.106C100.249 203.337 100.314 211.481 100.314 219.69C100.314 220.196 100.415 220.275 100.798 220.051C106.94 216.494 113.082 212.947 119.224 209.409C119.224 201.226 119.224 193.044 119.224 184.861C119.173 184.305 119.072 184.225 118.689 184.449L118.718 184.471ZM116.047 207.64C111.845 210.047 107.647 212.47 103.455 214.91C103.08 215.127 102.979 215.026 102.986 214.549C102.986 208.961 102.986 203.38 102.986 197.806C102.95 197.618 102.979 197.424 103.066 197.254C103.154 197.084 103.296 196.948 103.47 196.868C105.578 195.669 107.693 194.442 109.801 193.222C111.91 192.001 113.975 190.825 116.061 189.612C116.415 189.402 116.509 189.496 116.502 189.958C116.502 195.575 116.502 201.19 116.502 206.802C116.517 206.972 116.479 207.142 116.392 207.289C116.305 207.435 116.174 207.551 116.018 207.618L116.047 207.64ZM167.778 123.715L165.114 125.253C165.114 124.162 165.114 123.152 165.114 122.126C165.114 121.787 165.034 121.7 164.767 121.859C164.096 122.263 163.424 122.653 162.753 123.022C162.632 123.083 162.534 123.181 162.473 123.302C162.412 123.422 162.391 123.56 162.414 123.693C162.414 124.581 162.414 125.476 162.414 126.386C162.414 126.733 162.5 126.79 162.753 126.639C163.417 126.234 164.074 125.917 164.738 125.476C165.042 125.289 165.121 125.397 165.114 125.78C165.114 126.653 165.114 127.52 165.114 128.364C165.136 128.512 165.109 128.662 165.037 128.793C164.966 128.923 164.853 129.026 164.717 129.086C163.042 130.039 161.41 130.992 159.728 131.974C159.728 133.137 159.728 134.241 159.728 135.332C159.728 135.426 159.923 135.469 160.024 135.411C160.645 135.079 161.266 134.689 161.887 134.35C162.507 134.01 162.399 134.061 162.399 134.761C162.399 136.754 162.399 138.739 162.399 140.732C162.399 141.122 162.493 141.209 162.789 141.028C163.424 140.638 164.06 140.306 164.688 139.916C164.998 139.729 165.114 139.786 165.107 140.212C165.107 141.021 165.107 141.815 165.107 142.588C165.15 142.784 165.124 142.989 165.034 143.168C164.943 143.347 164.792 143.489 164.608 143.57C162.97 144.458 161.352 145.49 159.713 146.357C159.713 144.14 159.713 141.974 159.713 139.758C159.713 139.31 159.612 139.23 159.287 139.44C158.652 139.83 158.017 140.162 157.381 140.537C157.24 140.604 157.125 140.715 157.052 140.853C156.979 140.991 156.953 141.148 156.977 141.303C156.977 143.512 156.934 145.757 156.977 147.945C157.872 147.403 158.731 146.956 159.619 146.501C159.619 147.678 159.684 148.79 159.67 150.017C160.45 149.562 161.165 149.187 161.836 148.725C162.262 148.45 162.356 148.602 162.334 149.129C162.334 149.974 162.334 150.782 162.334 151.62C162.334 151.923 162.399 152.024 162.652 151.873C163.374 151.461 164.024 151.064 164.71 150.689C164.821 150.631 164.913 150.541 164.971 150.43C165.029 150.319 165.051 150.192 165.034 150.068C165.034 149.245 165.034 148.414 165.034 147.584C165.034 146.905 165.034 146.898 165.554 146.602L167.677 145.375C167.8 141.844 167.677 138.429 167.728 134.935C167.728 134.595 167.619 134.581 167.395 134.718C166.731 135.108 166.074 135.44 165.41 135.866C165.114 136.046 165.02 135.953 165.027 135.563C165.027 134.689 165.027 133.83 165.027 132.978C164.999 132.834 165.02 132.684 165.087 132.553C165.154 132.423 165.262 132.318 165.395 132.256C166.016 131.917 166.637 131.534 167.258 131.195C167.425 131.123 167.563 130.997 167.649 130.837C167.736 130.677 167.766 130.493 167.735 130.314C167.742 128.119 167.814 125.881 167.749 123.693L167.778 123.715ZM124.545 166.703C124.545 165.829 124.545 164.955 124.545 164.082C124.545 163.056 124.545 163.056 125.317 162.638L127.216 161.547V154.378L124.631 155.873C124.58 155.923 124.536 155.982 124.501 156.046C124.524 156.099 124.539 156.155 124.545 156.212C124.545 158.378 124.545 160.544 124.545 162.71C124.561 162.825 124.54 162.942 124.484 163.043C124.428 163.145 124.34 163.226 124.234 163.273C123.512 163.663 122.862 164.053 122.177 164.464C121.917 164.616 121.837 164.529 121.837 164.19C121.837 163.302 121.837 162.436 121.837 161.547C121.837 161.186 121.765 161.093 121.483 161.259C119.924 162.168 118.372 163.064 116.812 163.952C116.679 164.014 116.57 164.118 116.503 164.249C116.437 164.38 116.416 164.53 116.444 164.674C116.444 165.547 116.444 166.428 116.444 167.309C116.444 167.684 116.531 167.764 116.805 167.591C117.462 167.193 118.126 166.869 118.783 166.443C119.065 166.269 119.151 166.363 119.144 166.724C119.144 167.778 119.144 168.825 119.144 169.872C120.964 168.702 122.74 167.713 124.545 166.703ZM165.497 175.439C166.146 175.099 166.789 174.717 167.439 174.334C167.558 174.275 167.654 174.179 167.715 174.061C167.776 173.943 167.798 173.808 167.778 173.677C167.778 172.775 167.778 171.858 167.778 170.933C167.778 170.637 167.699 170.572 167.482 170.71C166.76 171.121 166.081 171.525 165.381 171.915C165.271 171.975 165.183 172.068 165.129 172.181C165.074 172.293 165.056 172.42 165.078 172.544C165.078 173.424 165.078 174.312 165.078 175.179C165.094 175.325 165.065 175.472 164.995 175.601C164.926 175.73 164.819 175.834 164.688 175.901C164.038 176.255 163.396 176.623 162.746 177.013C162.617 177.071 162.511 177.169 162.443 177.293C162.376 177.417 162.35 177.559 162.37 177.699C162.37 179.773 162.37 181.85 162.37 183.929C162.37 184.341 162.486 184.37 162.767 184.197C163.533 183.735 164.298 183.309 165.063 182.868L167.439 181.496C167.552 181.447 167.646 181.361 167.706 181.253C167.766 181.145 167.789 181.02 167.771 180.897C167.771 179.987 167.771 179.07 167.771 178.146C167.771 177.792 167.67 177.756 167.424 177.908C166.76 178.305 166.103 178.63 165.439 179.056C165.172 179.222 165.063 179.15 165.071 178.782C165.071 177.93 165.071 177.085 165.071 176.247C165.046 176.086 165.074 175.92 165.15 175.776C165.227 175.631 165.349 175.516 165.497 175.446V175.439ZM124.559 149.042C124.551 148.923 124.534 148.805 124.509 148.689L122.119 150.068C121.859 150.212 121.859 150.429 121.859 150.667C121.859 152.768 121.859 154.855 121.859 156.956C121.859 157.374 121.982 157.389 122.256 157.223C122.965 156.746 123.722 156.347 124.516 156.031C124.543 155.886 124.559 155.739 124.566 155.591L124.559 149.042ZM126.913 176.132L121.859 179.02C121.859 180.052 121.859 181.078 121.859 182.117C121.859 182.522 121.967 182.558 122.249 182.392C123.917 181.417 125.584 180.457 127.245 179.504C127.245 178.449 127.245 177.403 127.245 176.341C127.267 175.995 127.158 175.973 126.913 176.117V176.132ZM118.891 155.519C118.169 155.945 117.447 156.349 116.725 156.753C116.629 156.801 116.549 156.877 116.497 156.971C116.445 157.065 116.424 157.173 116.437 157.28C116.437 158.241 116.437 159.208 116.437 160.168C116.437 160.486 116.552 160.493 116.754 160.371C117.108 160.154 117.476 159.959 117.823 159.75C118.169 159.54 118.545 159.381 118.848 159.143C118.986 159.004 119.081 158.829 119.122 158.638C119.122 157.663 119.122 156.703 119.122 155.75C119.166 155.461 119.13 155.382 118.891 155.504V155.519ZM102.675 157.685C101.953 158.067 101.231 158.479 100.509 158.912C100.379 159.035 100.286 159.193 100.242 159.367C100.242 160.45 100.242 161.533 100.242 162.659C101.101 162.161 101.903 161.706 102.704 161.215C102.821 161.095 102.897 160.941 102.921 160.775C102.921 159.8 102.921 158.833 102.921 157.887C102.942 157.771 102.776 157.641 102.675 157.692V157.685ZM124.559 144.595C124.559 144.898 124.61 145.014 124.862 144.862C125.584 144.451 126.256 144.046 126.956 143.656C127.06 143.605 127.145 143.522 127.199 143.42C127.254 143.317 127.275 143.201 127.259 143.086C127.259 142.032 127.259 140.963 127.259 139.902L124.581 141.454C124.559 142.508 124.566 143.548 124.559 144.602V144.595ZM118.863 148.32L116.769 149.533C116.665 149.586 116.579 149.67 116.525 149.774C116.471 149.877 116.45 149.995 116.466 150.111C116.466 151.057 116.466 152.003 116.466 152.956C116.466 153.237 116.559 153.266 116.754 153.151C117.476 152.732 118.198 152.32 118.884 151.916C118.98 151.869 119.059 151.792 119.11 151.698C119.16 151.603 119.18 151.495 119.166 151.389C119.166 150.92 119.166 150.443 119.166 149.945C119.166 149.447 119.166 148.999 119.166 148.501C119.173 148.248 119.079 148.198 118.863 148.328V148.32ZM111.123 178.06V181.633L113.809 180.088V176.478L111.123 178.06ZM122.155 132.068C122.051 132.122 121.967 132.206 121.913 132.309C121.858 132.413 121.837 132.53 121.852 132.646C121.852 133.556 121.852 134.458 121.852 135.382C121.852 135.772 121.974 135.779 122.227 135.628C123 135.166 123.772 134.732 124.545 134.292V130.682C123.751 131.144 122.949 131.606 122.155 132.047V132.068ZM122.22 139.202C122.086 139.262 121.976 139.367 121.909 139.498C121.843 139.629 121.822 139.779 121.852 139.924C121.852 140.795 121.852 141.676 121.852 142.566C121.852 142.949 121.953 142.999 122.22 142.833C122.992 142.371 123.772 141.931 124.545 141.483V137.873C123.772 138.321 122.992 138.776 122.22 139.202ZM156.674 126.502C155.952 126.913 155.273 127.317 154.573 127.707C154.47 127.76 154.385 127.843 154.331 127.945C154.277 128.047 154.255 128.163 154.269 128.278C154.269 129.224 154.269 130.184 154.269 131.122C154.269 131.245 154.392 131.39 154.457 131.353C155.273 130.913 156.089 130.429 156.948 129.909C156.948 128.761 156.948 127.743 156.948 126.653C156.97 126.386 156.861 126.393 156.674 126.502ZM121.859 190.16C121.859 191.142 121.859 192.131 121.859 193.106C121.859 193.207 121.989 193.315 122.061 193.279C122.877 192.832 123.693 192.348 124.523 191.871V188.261L122.198 189.633C122.091 189.67 121.999 189.742 121.937 189.838C121.875 189.933 121.848 190.047 121.859 190.16ZM151.309 165.612C150.955 165.778 150.587 166.009 150.241 166.212C149.894 166.414 149.519 166.63 149.172 166.825C149.075 166.872 148.994 166.948 148.941 167.042C148.888 167.136 148.865 167.245 148.876 167.352C148.876 168.313 148.876 169.287 148.876 170.24C148.876 170.356 149.035 170.471 149.122 170.428C149.844 170.038 150.566 169.619 151.288 169.172C151.412 169.039 151.497 168.874 151.533 168.695C151.533 167.721 151.533 166.753 151.533 165.807C151.555 165.713 151.403 165.598 151.309 165.641V165.612ZM124.14 174.096C124.291 174.031 124.415 173.918 124.493 173.773C124.57 173.629 124.596 173.463 124.566 173.302C124.566 172.305 124.566 171.287 124.566 170.276L127.245 168.71V165.143L124.566 166.688C124.566 167.879 124.566 169.071 124.566 170.298C123.794 170.739 123.021 171.201 122.249 171.619C122.121 171.688 122.017 171.794 121.95 171.922C121.883 172.051 121.856 172.197 121.873 172.341C121.873 173.359 121.873 174.399 121.873 175.432L113.801 180.103C113.801 181.15 113.801 182.204 113.801 183.258C113.801 183.619 113.902 183.641 114.148 183.496L121.888 179.02C121.888 177.821 121.888 176.63 121.888 175.41C122.624 175.006 123.382 174.543 124.14 174.125V174.096ZM154.732 116.812C157.28 115.325 159.786 113.874 162.356 112.401C162.435 108.957 162.356 105.621 162.399 102.199C162.399 101.679 162.276 101.614 161.901 101.838C159.352 103.361 156.847 104.726 154.269 106.293C154.269 109.693 154.269 113.065 154.269 116.473C154.262 117 154.378 117.051 154.732 116.841V116.812ZM105.636 144.609C105.636 145.021 105.722 145.108 106.04 144.92C107.267 144.198 108.495 143.476 109.722 142.754C110.949 142.032 112.126 141.353 113.332 140.682C113.484 140.618 113.61 140.505 113.688 140.361C113.767 140.216 113.794 140.049 113.765 139.887C113.765 136.638 113.765 133.389 113.765 130.119C113.765 129.729 113.679 129.65 113.383 129.816C110.928 131.26 108.473 132.677 106.018 134.068C105.89 134.137 105.786 134.242 105.719 134.371C105.652 134.5 105.625 134.646 105.643 134.79C105.657 138.126 105.657 141.375 105.65 144.638L105.636 144.609ZM113.354 194.745C110.805 196.24 108.3 197.691 105.715 199.164C105.643 202.608 105.715 205.943 105.679 209.358C105.679 209.864 105.78 209.965 106.17 209.734C108.718 208.21 111.224 206.846 113.801 205.279C113.801 201.878 113.801 198.507 113.801 195.106C113.78 194.622 113.686 194.528 113.354 194.745Z" fill="#263238"/>
<path d="M108.552 253.762C108.575 253.033 108.662 252.309 108.812 251.596C108.959 250.907 109.182 250.236 109.476 249.596C109.767 248.978 110.135 248.4 110.574 247.877C111.015 247.357 111.542 246.918 112.133 246.578C112.593 246.273 113.127 246.1 113.679 246.08C113.882 246.078 114.084 246.117 114.272 246.194C114.46 246.271 114.632 246.384 114.776 246.527C115.094 246.877 115.324 247.298 115.447 247.755C115.609 248.353 115.699 248.969 115.715 249.589C115.715 249.82 115.715 250.08 115.715 250.368C115.715 250.657 115.715 250.946 115.715 251.256C115.715 251.567 115.715 251.856 115.715 252.144C115.715 252.433 115.715 252.7 115.715 252.946C115.687 253.635 115.605 254.32 115.469 254.996C115.335 255.663 115.127 256.312 114.848 256.931L115.765 258.426C115.775 258.476 115.775 258.527 115.765 258.577C115.774 258.695 115.749 258.813 115.693 258.917C115.652 259.007 115.587 259.085 115.505 259.141L114.35 259.805C114.206 259.877 114.097 259.877 114.025 259.805C113.96 259.733 113.902 259.668 113.866 259.617L113.476 258.982C113.274 259.196 113.057 259.397 112.827 259.581C112.6 259.765 112.359 259.929 112.105 260.072C111.639 260.378 111.101 260.555 110.545 260.585C110.135 260.584 109.741 260.423 109.448 260.137C109.126 259.79 108.898 259.368 108.783 258.91C108.626 258.313 108.539 257.7 108.523 257.083C108.523 256.845 108.523 256.585 108.523 256.303C108.523 256.022 108.523 255.726 108.523 255.415C108.523 255.105 108.523 254.809 108.523 254.52C108.523 254.231 108.545 254 108.552 253.762ZM114.068 250.672C114.121 250.031 113.919 249.395 113.505 248.903C113.159 248.614 112.704 248.628 112.133 248.953C111.534 249.316 111.057 249.849 110.762 250.484C110.401 251.24 110.209 252.065 110.198 252.903C110.198 253.386 110.198 253.921 110.198 254.505C110.198 255.09 110.198 255.61 110.198 256.072C110.17 256.387 110.204 256.705 110.301 257.007C110.398 257.308 110.555 257.587 110.762 257.827C111.108 258.115 111.563 258.094 112.133 257.769C112.731 257.407 113.208 256.877 113.505 256.245C113.865 255.492 114.057 254.669 114.068 253.834C114.068 253.35 114.068 252.816 114.068 252.238C114.068 251.661 114.076 251.134 114.076 250.672H114.068Z" fill="#FAFAFA"/>
<path d="M120.805 241.791C121.823 241.206 122.588 241.126 123.115 241.545C123.642 241.964 123.909 242.816 123.909 244.108C123.914 244.981 123.777 245.849 123.505 246.679C123.241 247.456 122.831 248.176 122.299 248.801L123.981 252.462C124.007 252.521 124.02 252.585 124.017 252.65C124.018 252.765 123.991 252.879 123.938 252.982C123.904 253.078 123.837 253.159 123.75 253.213L122.718 253.812C122.552 253.906 122.436 253.92 122.357 253.812C122.287 253.747 122.23 253.668 122.191 253.581L120.573 250.159L118.956 251.097V255.465C118.954 255.608 118.919 255.749 118.855 255.877C118.81 255.993 118.729 256.092 118.624 256.158L117.642 256.729C117.61 256.757 117.569 256.773 117.527 256.773C117.484 256.773 117.443 256.757 117.411 256.729C117.375 256.688 117.347 256.64 117.329 256.588C117.312 256.536 117.305 256.48 117.31 256.426V244.303C117.313 244.16 117.347 244.02 117.411 243.892C117.458 243.775 117.539 243.674 117.642 243.603L120.805 241.791ZM118.978 248.751L120.74 247.733C121.183 247.486 121.564 247.14 121.851 246.722C122.15 246.219 122.293 245.638 122.263 245.054C122.263 244.332 122.126 243.964 121.851 243.892C121.458 243.838 121.06 243.939 120.74 244.173L118.978 245.191V248.751Z" fill="#FAFAFA"/>
<path d="M133.505 243.422C133.514 243.267 133.558 243.117 133.635 242.982C133.686 242.879 133.763 242.792 133.858 242.729L134.848 242.159C134.882 242.132 134.924 242.118 134.967 242.118C135.01 242.118 135.052 242.132 135.086 242.159C135.123 242.201 135.15 242.25 135.165 242.304C135.18 242.358 135.183 242.414 135.173 242.469C135.143 243.036 135.061 243.6 134.927 244.151C134.777 244.761 134.559 245.352 134.277 245.913C133.975 246.507 133.602 247.063 133.165 247.567C132.704 248.096 132.157 248.545 131.548 248.895C131.103 249.183 130.59 249.348 130.061 249.372C129.652 249.371 129.259 249.213 128.963 248.931C128.618 248.591 128.369 248.165 128.241 247.697C128.062 247.076 127.962 246.436 127.945 245.79C127.945 245.321 127.945 244.801 127.945 244.231C127.945 243.661 127.945 243.126 127.945 242.635C127.974 241.877 128.074 241.123 128.241 240.383C128.404 239.676 128.646 238.991 128.963 238.339C129.254 237.726 129.623 237.153 130.061 236.635C130.48 236.132 130.983 235.705 131.548 235.372C132.032 235.057 132.589 234.871 133.165 234.83C133.568 234.822 133.962 234.955 134.277 235.206C134.584 235.479 134.809 235.831 134.927 236.224C135.068 236.673 135.151 237.139 135.173 237.61C135.18 237.755 135.15 237.899 135.086 238.029C135.031 238.139 134.949 238.234 134.848 238.303L133.858 238.874C133.824 238.895 133.784 238.906 133.743 238.906C133.702 238.906 133.662 238.895 133.627 238.874C133.555 238.838 133.512 238.736 133.497 238.585C133.473 238.365 133.415 238.151 133.324 237.95C133.244 237.776 133.117 237.628 132.956 237.524C132.779 237.423 132.574 237.38 132.371 237.401C132.079 237.445 131.799 237.548 131.548 237.704C131.23 237.893 130.949 238.138 130.718 238.426C130.48 238.714 130.281 239.032 130.126 239.372C129.96 239.726 129.839 240.1 129.765 240.484C129.679 240.876 129.628 241.274 129.613 241.675C129.613 242.159 129.613 242.686 129.613 243.263C129.613 243.841 129.613 244.361 129.613 244.823C129.621 245.172 129.672 245.519 129.765 245.855C129.825 246.109 129.949 246.343 130.126 246.534C130.283 246.693 130.495 246.786 130.718 246.794C131.014 246.791 131.303 246.701 131.548 246.534C131.855 246.362 132.133 246.143 132.371 245.884C132.597 245.639 132.796 245.371 132.963 245.083C133.117 244.812 133.242 244.527 133.339 244.231C133.421 243.968 133.477 243.697 133.505 243.422Z" fill="#FAFAFA"/>
<path d="M136.308 237.733C136.337 237.017 136.424 236.305 136.568 235.603C136.716 234.917 136.939 234.248 137.232 233.61C137.522 232.993 137.891 232.415 138.329 231.892C138.768 231.368 139.296 230.925 139.889 230.585C140.351 230.286 140.884 230.114 141.434 230.087C141.638 230.085 141.841 230.124 142.029 230.202C142.218 230.28 142.389 230.396 142.532 230.542C142.856 230.887 143.087 231.31 143.203 231.769C143.369 232.367 143.458 232.983 143.47 233.603C143.47 233.834 143.47 234.094 143.47 234.376C143.47 234.657 143.47 234.961 143.47 235.264C143.47 235.567 143.47 235.87 143.47 236.159C143.47 236.448 143.47 236.715 143.47 236.96C143.448 237.674 143.361 238.385 143.21 239.083C143.063 239.772 142.84 240.443 142.546 241.083C142.255 241.7 141.884 242.275 141.441 242.794C141.003 243.312 140.478 243.75 139.889 244.087C139.423 244.391 138.885 244.565 138.329 244.592C138.126 244.593 137.924 244.554 137.736 244.478C137.548 244.401 137.377 244.288 137.232 244.144C136.908 243.8 136.679 243.377 136.568 242.917C136.414 242.32 136.326 241.707 136.308 241.09C136.308 240.859 136.308 240.599 136.308 240.318C136.308 240.036 136.308 239.733 136.308 239.43C136.308 239.126 136.308 238.823 136.308 238.534C136.308 238.246 136.301 237.978 136.308 237.733ZM141.824 234.643C141.852 234.326 141.817 234.008 141.72 233.705C141.624 233.403 141.467 233.122 141.261 232.881C140.914 232.585 140.459 232.6 139.889 232.932C139.288 233.293 138.81 233.826 138.517 234.462C138.159 235.219 137.967 236.044 137.954 236.881C137.954 237.365 137.954 237.899 137.954 238.477C137.954 239.054 137.954 239.581 137.954 240.051C137.927 240.366 137.962 240.683 138.059 240.985C138.156 241.286 138.312 241.565 138.517 241.805C138.864 242.094 139.319 242.072 139.889 241.74C140.488 241.383 140.965 240.855 141.261 240.224C141.622 239.471 141.814 238.648 141.824 237.812C141.824 237.329 141.824 236.794 141.824 236.217C141.824 235.639 141.838 235.112 141.824 234.65V234.643Z" fill="#FAFAFA"/>
<path d="M148.416 225.849C148.887 225.547 149.425 225.363 149.982 225.315C150.185 225.301 150.387 225.33 150.578 225.399C150.768 225.469 150.942 225.578 151.087 225.719C151.423 226.06 151.658 226.487 151.766 226.954C151.941 227.597 152.038 228.259 152.055 228.925C152.093 229.835 152.093 230.759 152.055 231.697C152.027 232.472 151.931 233.243 151.766 234.001C151.622 234.698 151.396 235.377 151.094 236.022C150.809 236.628 150.442 237.191 150.004 237.697C149.565 238.194 149.048 238.615 148.473 238.946L145.405 240.715C145.372 240.742 145.332 240.757 145.289 240.757C145.247 240.757 145.206 240.742 145.174 240.715C145.139 240.673 145.113 240.625 145.097 240.573C145.08 240.521 145.075 240.466 145.08 240.412V228.282C145.08 228.14 145.112 227.999 145.174 227.871C145.221 227.756 145.301 227.658 145.405 227.589L148.416 225.849ZM150.408 229.878C150.4 229.529 150.349 229.182 150.257 228.845C150.194 228.59 150.064 228.356 149.881 228.167C149.798 228.088 149.699 228.026 149.591 227.985C149.483 227.944 149.368 227.925 149.253 227.929C148.931 227.951 148.621 228.056 148.351 228.232L146.719 229.17V237.611L148.416 236.636C148.742 236.444 149.035 236.2 149.282 235.914C149.522 235.625 149.726 235.307 149.889 234.968C150.052 234.612 150.176 234.239 150.257 233.856C150.344 233.457 150.394 233.051 150.408 232.643C150.447 231.705 150.447 230.783 150.408 229.878Z" fill="#FAFAFA"/>
<path d="M159.325 230.318C159.357 230.29 159.398 230.274 159.44 230.274C159.483 230.274 159.524 230.29 159.556 230.318C159.593 230.358 159.621 230.404 159.638 230.455C159.655 230.506 159.662 230.561 159.657 230.614V231.943C159.654 232.088 159.62 232.231 159.556 232.362C159.511 232.478 159.43 232.576 159.325 232.643L153.982 235.726C153.95 235.754 153.909 235.77 153.866 235.77C153.824 235.77 153.783 235.754 153.751 235.726C153.714 235.685 153.687 235.637 153.669 235.585C153.652 235.533 153.645 235.478 153.65 235.423V223.337C153.653 223.194 153.687 223.053 153.751 222.925C153.798 222.808 153.878 222.708 153.982 222.636L159.231 219.611C159.263 219.583 159.304 219.567 159.346 219.567C159.389 219.567 159.43 219.583 159.462 219.611C159.497 219.653 159.523 219.701 159.539 219.753C159.555 219.805 159.561 219.86 159.556 219.914V221.243C159.556 221.385 159.524 221.526 159.462 221.654C159.415 221.769 159.334 221.867 159.231 221.936L155.296 224.21V227.192L158.964 225.077C158.996 225.048 159.037 225.032 159.079 225.032C159.122 225.032 159.163 225.048 159.195 225.077C159.23 225.118 159.256 225.167 159.272 225.219C159.288 225.271 159.294 225.326 159.289 225.38V226.708C159.289 226.851 159.257 226.991 159.195 227.12C159.148 227.235 159.067 227.333 158.964 227.401L155.296 229.517V232.636L159.325 230.318Z" fill="#FAFAFA"/>
<path d="M138.164 341.232L110.28 325.131C109.735 324.776 109.281 324.298 108.956 323.735C108.631 323.171 108.444 322.539 108.41 321.889V318.099C108.445 317.449 108.633 316.818 108.958 316.254C109.283 315.691 109.736 315.212 110.28 314.857L141.68 296.742C142.26 296.447 142.902 296.292 143.554 296.292C144.205 296.292 144.847 296.447 145.427 296.742L173.282 312.828C173.826 313.183 174.279 313.662 174.604 314.225C174.929 314.789 175.117 315.421 175.152 316.07V319.846C175.118 320.496 174.931 321.128 174.606 321.691C174.281 322.255 173.827 322.733 173.282 323.088L141.882 341.217C141.307 341.51 140.67 341.664 140.025 341.667C139.379 341.669 138.742 341.52 138.164 341.232Z" fill="#37474F"/>
<path d="M141.678 296.742L110.278 314.871C109.246 315.463 109.246 316.438 110.278 317.037L138.162 333.138C138.742 333.433 139.384 333.587 140.035 333.587C140.687 333.587 141.329 333.433 141.909 333.138L173.28 314.987C174.312 314.395 174.312 313.42 173.28 312.821L145.425 296.742C144.845 296.447 144.203 296.292 143.552 296.292C142.9 296.292 142.258 296.447 141.678 296.742Z" fill="#455A64"/>
<path d="M140.069 333.564V341.672C139.418 341.684 138.774 341.53 138.199 341.224L110.315 325.124C109.771 324.769 109.319 324.292 108.994 323.73C108.669 323.168 108.481 322.537 108.445 321.889V318.091C108.477 317.512 108.63 316.945 108.893 316.428C109.157 315.911 109.526 315.454 109.976 315.088C109.297 315.68 109.413 316.481 110.315 317.008L138.199 333.109C138.772 333.421 139.417 333.577 140.069 333.564Z" fill="#263238"/>
<path d="M137.412 316.236C137.665 315.211 139.427 314.193 141.203 314.07L142.856 313.933C143.78 313.853 144.625 313.37 144.755 312.835C144.885 312.301 144.25 311.94 143.311 312.019L141.658 312.157C139.909 312.291 138.212 312.806 136.683 313.666C135.239 314.489 134.322 315.507 134.069 316.554L132.553 322.734C132.026 324.849 134.582 326.344 138.243 326.019L139.896 325.882C141.644 325.746 143.342 325.231 144.871 324.373C146.315 323.542 147.224 322.524 147.477 321.485L148.199 318.539C148.329 318.012 147.694 317.644 146.755 317.723C145.816 317.803 144.986 318.286 144.856 318.813L144.134 321.759C143.881 322.777 142.12 323.795 140.344 323.925L138.683 324.062C136.856 324.214 135.578 323.47 135.838 322.416L137.383 316.193L137.412 316.236ZM149.499 313.348L151.036 307.124C151.155 306.618 151.093 306.086 150.861 305.621C150.629 305.155 150.241 304.786 149.766 304.576C148.395 303.907 146.859 303.656 145.347 303.854L143.679 303.962C141.933 304.097 140.238 304.612 138.712 305.471C137.268 306.294 136.351 307.319 136.098 308.359L135.434 311.052C135.304 311.579 135.939 311.947 136.878 311.868C137.817 311.788 138.647 311.305 138.777 310.778L139.441 308.084C139.553 307.769 139.726 307.48 139.95 307.232C140.175 306.984 140.446 306.783 140.748 306.64C141.51 306.208 142.358 305.949 143.232 305.882L144.892 305.745C145.646 305.649 146.412 305.777 147.094 306.113C147.333 306.218 147.528 306.403 147.644 306.637C147.76 306.871 147.791 307.138 147.73 307.391L146.192 313.615C145.939 314.64 144.17 315.658 142.401 315.781C141.484 315.86 140.64 316.344 140.502 316.878C140.365 317.413 141.008 317.774 141.946 317.694C143.691 317.559 145.386 317.046 146.914 316.193C148.358 315.362 149.275 314.344 149.535 313.305L149.499 313.348Z" fill="white"/>
<path d="M164.805 289.269V285.479C164.839 284.829 165.026 284.197 165.351 283.634C165.676 283.07 166.129 282.592 166.675 282.237L214.435 254.642C215.015 254.347 215.657 254.193 216.309 254.193C216.96 254.193 217.602 254.347 218.182 254.642L246.073 270.75C246.62 271.104 247.075 271.582 247.401 272.146C247.727 272.709 247.916 273.342 247.95 273.992V277.782C247.916 278.433 247.727 279.065 247.401 279.629C247.075 280.192 246.62 280.671 246.073 281.024L198.305 308.619C197.725 308.915 197.083 309.069 196.432 309.069C195.781 309.069 195.139 308.915 194.558 308.619L166.675 292.518C166.129 292.162 165.676 291.683 165.351 291.118C165.026 290.553 164.839 289.92 164.805 289.269Z" fill="#E0E0E0"/>
<path d="M247.943 273.984V277.775C247.909 278.424 247.722 279.057 247.397 279.62C247.072 280.183 246.618 280.662 246.073 281.016L198.306 308.611C197.732 308.92 197.087 309.075 196.436 309.059V300.944C197.087 300.956 197.73 300.802 198.306 300.496L246.073 272.916C246.976 272.396 247.091 271.587 246.412 270.995C246.861 271.36 247.229 271.814 247.492 272.329C247.756 272.843 247.909 273.407 247.943 273.984Z" fill="#F0F0F0"/>
<path d="M175.368 297.529L168.148 298.929V307.066C168.151 307.209 168.187 307.349 168.252 307.477C168.317 307.604 168.41 307.715 168.524 307.801C168.638 307.887 168.77 307.946 168.91 307.974C169.05 308.002 169.194 307.998 169.333 307.962L185.939 303.63V295.493L175.368 297.529Z" fill="#F0F0F0"/>
<path d="M196.436 300.605C195.844 300.621 195.257 300.484 194.732 300.208L185.938 295.154L169.202 299.551H169.036C168.923 299.548 168.813 299.513 168.718 299.451C168.623 299.39 168.547 299.303 168.498 299.2C168.449 299.098 168.43 298.984 168.442 298.871C168.454 298.758 168.498 298.651 168.567 298.561L175.852 289.305L166.849 284.107C166.673 284.062 166.517 283.96 166.406 283.817C166.295 283.674 166.234 283.498 166.234 283.316C166.234 283.135 166.295 282.959 166.406 282.816C166.517 282.673 166.673 282.571 166.849 282.526L214.616 254.931C215.145 254.665 215.728 254.526 216.32 254.526C216.912 254.526 217.496 254.665 218.024 254.931L245.908 271.032C246.083 271.076 246.239 271.178 246.35 271.322C246.462 271.465 246.522 271.641 246.522 271.822C246.522 272.003 246.462 272.18 246.35 272.323C246.239 272.466 246.083 272.568 245.908 272.613L198.14 300.208C197.616 300.484 197.029 300.621 196.436 300.605Z" fill="#FAFAFA"/>
<path d="M216.319 254.866C216.853 254.856 217.381 254.977 217.857 255.22L245.74 271.32C246.007 271.479 246.181 271.667 246.181 271.818C246.181 271.97 246.007 272.165 245.74 272.324L197.973 299.911C197.495 300.149 196.968 300.272 196.435 300.272C195.901 300.272 195.375 300.149 194.897 299.911L186.233 294.908L185.995 294.771L185.728 294.843L169.122 299.175H169.042C168.991 299.174 168.942 299.158 168.9 299.13C168.858 299.102 168.824 299.062 168.804 299.016C168.781 298.971 168.772 298.92 168.779 298.87C168.785 298.82 168.806 298.772 168.84 298.735L175.879 289.782L176.363 289.175L175.692 288.785L167.028 283.782C166.753 283.623 166.587 283.428 166.587 283.276C166.587 283.125 166.753 282.937 167.028 282.778L214.795 255.183C215.27 254.939 215.799 254.818 216.333 254.83M216.333 254.158C215.679 254.143 215.033 254.298 214.456 254.606L166.688 282.201C165.656 282.793 165.656 283.76 166.688 284.367L175.352 289.37L168.313 298.323C168.204 298.461 168.136 298.627 168.116 298.801C168.096 298.976 168.126 299.153 168.201 299.312C168.276 299.47 168.393 299.605 168.541 299.701C168.688 299.797 168.859 299.85 169.035 299.854C169.119 299.864 169.204 299.864 169.288 299.854L185.894 295.522L194.558 300.525C195.136 300.83 195.781 300.984 196.435 300.973C197.086 300.985 197.73 300.831 198.305 300.525L246.072 272.916C247.112 272.317 247.112 271.349 246.072 270.75L218.189 254.649C217.615 254.34 216.97 254.186 216.319 254.202L216.333 254.158Z" fill="#E0E0E0"/>
<path d="M197.49 289.565C197.21 289.549 196.939 289.462 196.703 289.312L184.111 282.035C183.678 281.789 183.851 281.442 184.631 280.995L185.432 280.533C186.202 280.085 186.802 279.984 187.23 280.23L198.017 286.46L200.999 284.742C201.216 284.615 201.472 284.569 201.721 284.612C202.041 284.675 202.347 284.798 202.623 284.973L203.244 285.327C203.492 285.444 203.706 285.623 203.865 285.847C203.93 285.991 203.865 286.128 203.641 286.251L198.277 289.348C198.039 289.492 197.767 289.567 197.49 289.565Z" fill="#373873"/>
<path d="M193.496 277.97L192.298 277.248C191.872 277.002 192.103 276.62 193.02 276.107C193.937 275.594 194.63 275.385 195.063 275.666L196.262 276.388C196.688 276.634 196.457 277.017 195.54 277.536C194.623 278.056 193.944 278.222 193.496 277.97ZM204.962 284.756L195.72 279.414C195.297 279.168 195.484 278.814 196.283 278.352L196.839 278.027C197.643 277.546 198.257 277.438 198.68 277.703L207.936 283.024C208.365 283.269 208.177 283.623 207.373 284.085L206.817 284.41C206.03 284.901 205.417 285.009 204.984 284.764L204.962 284.756Z" fill="#373873"/>
<path d="M210.008 281.862L203.626 278.179C202.941 277.767 202.232 277.395 201.503 277.067C201.034 276.872 200.781 276.75 200.665 276.699C200.42 276.555 200.528 276.295 200.976 275.905C201.373 275.552 201.804 275.238 202.261 274.966C202.474 274.826 202.73 274.767 202.983 274.8C203.231 274.851 203.474 274.928 203.705 275.031C203.972 275.147 204.182 275.241 204.34 275.299C204.189 274.888 204.189 274.438 204.34 274.028C204.56 273.54 204.943 273.144 205.423 272.909C206.144 272.489 206.974 272.295 207.806 272.353C208.743 272.43 209.648 272.727 210.449 273.219L217.669 277.4C218.095 277.652 217.921 277.992 217.149 278.439L216.47 278.836C215.698 279.284 215.098 279.385 214.665 279.132L208.102 275.342C207.818 275.166 207.501 275.048 207.171 274.995C206.881 274.964 206.589 275.03 206.34 275.183C206.168 275.262 206.034 275.405 205.966 275.582C205.899 275.759 205.904 275.955 205.979 276.129L212.99 280.136C213.207 280.259 213.272 280.403 213.192 280.576C213.009 280.833 212.76 281.036 212.47 281.161L211.748 281.565C211.033 282.013 210.434 282.107 210.008 281.862Z" fill="#373873"/>
<path d="M227.921 271.891C228.138 272.013 227.921 272.273 227.199 272.678L226.08 273.32C225.896 273.444 225.69 273.532 225.474 273.58C225.29 273.619 225.101 273.619 224.918 273.58L218.557 271.963L218.333 272.093L222.665 274.591C223.094 274.836 222.92 275.183 222.145 275.631L221.503 275.999C220.728 276.447 220.129 276.548 219.705 276.302L205.857 268.302C205.424 268.057 205.597 267.71 206.377 267.263L207.012 266.894C207.792 266.447 208.391 266.346 208.817 266.591L217.142 271.4L217.243 271.342L214.94 268.05C214.846 267.905 214.824 267.79 214.868 267.718C215.006 267.578 215.167 267.463 215.344 267.378L216.384 266.779C217.106 266.36 217.575 266.216 217.828 266.353C217.941 266.438 218.035 266.546 218.102 266.671L220.485 270.223L227.43 271.761C227.599 271.783 227.764 271.827 227.921 271.891Z" fill="#373873"/>
<path d="M37.7805 80.6764C38.914 78.9291 40.293 77.9689 41.5204 77.875L47.7224 56.4027C47.3129 56.1607 46.9723 55.8177 46.7333 55.4064C45.3542 53.1826 45.8524 48.9084 47.8379 45.8471C49.8234 42.7858 52.5526 42.1216 53.9244 44.3526C55.2962 46.5835 54.8052 50.8506 52.8197 53.9118C51.6862 55.6591 50.3072 56.6193 49.0798 56.7132L42.8778 78.1855C43.2857 78.4295 43.6259 78.7721 43.8669 79.1818C44.158 79.6704 44.3631 80.2052 44.4734 80.763L58.2419 71.5431C58.3468 69.4666 58.9913 67.4534 60.1119 65.7021C62.0902 62.6625 64.8266 61.991 66.1984 64.2581C67.5702 66.5252 67.0792 70.7561 65.0937 73.8174C63.1082 76.8787 60.3791 77.5429 59.0073 75.3119C58.7131 74.8249 58.5078 74.2895 58.4008 73.7307L44.6322 82.9146C44.5213 84.9854 43.8771 86.9925 42.7623 88.7411C40.7768 91.7952 38.0476 92.4666 36.6686 90.2357C35.2896 88.0047 35.795 83.7521 37.7805 80.6764Z" fill="#E0E0E0"/>
<path d="M44.8856 337.174L51.1526 333.564C51.1526 333.564 54.8709 318.07 53.4269 304.121C51.3403 284.511 38.4309 277.132 33.5213 278.851C28.6117 280.569 27.1966 286.251 35.3119 297.926C40.0699 304.792 45.9542 319.124 44.8856 337.174Z" fill="#373873"/>
<g opacity="0.65">
<path d="M44.8856 337.174L51.1526 333.564C51.1526 333.564 54.8709 318.07 53.4269 304.121C51.3403 284.511 38.4309 277.132 33.5213 278.851C28.6117 280.569 27.1966 286.251 35.3119 297.926C40.0699 304.792 45.9542 319.124 44.8856 337.174Z" fill="white"/>
</g>
<path d="M47.4781 329.578H47.4203C47.3067 329.556 47.2067 329.489 47.1418 329.393C47.077 329.297 47.0525 329.18 47.0737 329.066C50.5104 310.98 44.1857 290.655 36.3665 282.201C36.3044 282.113 36.2764 282.006 36.2876 281.9C36.2987 281.793 36.3484 281.694 36.4272 281.622C36.5059 281.549 36.6085 281.508 36.7156 281.505C36.8227 281.503 36.9271 281.54 37.0091 281.609C44.9511 290.222 51.4129 310.879 47.9257 329.261C47.8992 329.357 47.8402 329.442 47.7586 329.5C47.677 329.557 47.5779 329.585 47.4781 329.578Z" fill="white"/>
<path d="M29.1115 346.3C28.1729 346.776 25.682 344.646 24.9889 344.134C23.8013 343.232 22.8643 342.042 22.267 340.675C21.6028 339.123 21.4363 337.402 21.7904 335.751C21.9729 334.879 22.2142 334.021 22.5124 333.181L23.3933 330.676C23.7286 329.878 23.8981 329.021 23.8915 328.156C23.7543 326.416 22.2886 325.131 20.9457 324.019C19.4656 322.784 17.935 321.181 18.0577 319.109C18.2518 317.502 18.9729 316.004 20.1082 314.849C21.1623 313.644 22.3969 312.59 23.3644 311.312C24.1178 310.422 24.5434 309.3 24.5701 308.135C24.5129 307.418 24.3089 306.72 23.9709 306.084C23.3066 304.691 22.4041 303.406 21.9709 301.926C21.5377 300.446 21.6966 298.641 22.8879 297.659C23.8626 296.857 25.2488 296.807 26.4979 296.937C27.669 297.142 28.7821 297.598 29.7613 298.272C32.967 300.272 34.6565 304.279 38.0788 305.861C39.4468 306.365 40.8455 306.782 42.2664 307.11C43.6526 307.557 45.0533 308.344 45.6381 309.68C46.7933 312.308 44.2519 315.355 45.0172 318.12C45.6886 320.575 47.9846 321.615 49.1903 323.853C49.6786 324.838 49.8405 325.953 49.6524 327.037C49.4436 328.874 48.9004 330.658 48.0496 332.3C47.0966 333.988 46.0405 335.616 44.8872 337.174C44.8872 337.174 29.2559 346.228 29.1115 346.3Z" fill="#373873"/>
<g opacity="0.3">
<path d="M29.1115 346.3C28.1729 346.776 25.682 344.646 24.9889 344.134C23.8013 343.232 22.8643 342.042 22.267 340.675C21.6028 339.123 21.4363 337.402 21.7904 335.751C21.9729 334.879 22.2142 334.021 22.5124 333.181L23.3933 330.676C23.7286 329.878 23.8981 329.021 23.8915 328.156C23.7543 326.416 22.2886 325.131 20.9457 324.019C19.4656 322.784 17.935 321.181 18.0577 319.109C18.2518 317.502 18.9729 316.004 20.1082 314.849C21.1623 313.644 22.3969 312.59 23.3644 311.312C24.1178 310.422 24.5434 309.3 24.5701 308.135C24.5129 307.418 24.3089 306.72 23.9709 306.084C23.3066 304.691 22.4041 303.406 21.9709 301.926C21.5377 300.446 21.6966 298.641 22.8879 297.659C23.8626 296.857 25.2488 296.807 26.4979 296.937C27.669 297.142 28.7821 297.598 29.7613 298.272C32.967 300.272 34.6565 304.279 38.0788 305.861C39.4468 306.365 40.8455 306.782 42.2664 307.11C43.6526 307.557 45.0533 308.344 45.6381 309.68C46.7933 312.308 44.2519 315.355 45.0172 318.12C45.6886 320.575 47.9846 321.615 49.1903 323.853C49.6786 324.838 49.8405 325.953 49.6524 327.037C49.4436 328.874 48.9004 330.658 48.0496 332.3C47.0966 333.988 46.0405 335.616 44.8872 337.174C44.8872 337.174 29.2559 346.228 29.1115 346.3Z" fill="white"/>
</g>
<path d="M38.1781 341.571C38.0689 341.56 37.9682 341.507 37.8969 341.424C37.8257 341.34 37.7893 341.233 37.7954 341.123C39.2972 324.856 32.5248 306.467 27.2037 300.958C27.1631 300.92 27.1307 300.874 27.1084 300.823C27.0862 300.772 27.0745 300.717 27.0742 300.661C27.0739 300.605 27.0849 300.55 27.1066 300.499C27.1282 300.447 27.1601 300.401 27.2002 300.362C27.2404 300.324 27.2879 300.293 27.3401 300.274C27.3922 300.254 27.4478 300.245 27.5035 300.247C27.5592 300.25 27.6138 300.264 27.664 300.288C27.7143 300.312 27.7591 300.346 27.7957 300.388C33.2252 306.005 40.1419 324.698 38.6257 341.195C38.6212 341.249 38.606 341.302 38.581 341.35C38.556 341.399 38.5217 341.441 38.4801 341.476C38.4385 341.511 38.3904 341.538 38.3385 341.554C38.2867 341.57 38.2322 341.576 38.1781 341.571Z" fill="white"/>
<path d="M36.5611 321.514H36.4456C32.6384 320.253 28.7038 319.415 24.7131 319.016C24.659 319.011 24.6063 318.996 24.5581 318.971C24.5099 318.946 24.4671 318.912 24.4322 318.87C24.3973 318.829 24.3709 318.78 24.3547 318.729C24.3385 318.677 24.3327 318.622 24.3377 318.568C24.3402 318.513 24.3541 318.46 24.3784 318.41C24.4028 318.361 24.4371 318.318 24.4791 318.282C24.5212 318.247 24.5701 318.221 24.6228 318.205C24.6755 318.19 24.7308 318.186 24.7853 318.193C28.8467 318.606 32.851 319.46 36.7272 320.741C36.8284 320.78 36.9105 320.857 36.9563 320.955C37.0021 321.054 37.0079 321.166 36.9727 321.268C36.9374 321.347 36.8791 321.412 36.8055 321.456C36.7319 321.5 36.6466 321.52 36.5611 321.514Z" fill="white"/>
</g>
<defs>
<clipPath id="clip0_429_8453">
<rect width="267" height="361" fill="white"/>
</clipPath>
</defs>
</svg>
