<svg width="225" height="50" viewBox="0 0 225 50" fill="none" xmlns="http://www.w3.org/2000/svg">
<g clip-path="url(#clip0_108_3884)">
<path d="M53.5068 40.0558C51.9551 39.3891 50.6805 38.5002 49.6829 37.3613C48.6854 36.2502 48.0204 35.0002 47.6602 33.6669L52.6201 31.5558C53.0635 32.9169 53.8393 34.028 54.9477 34.8058C56.0284 35.6113 57.303 36.0002 58.7439 36.0002C60.2125 36.0002 61.3486 35.7224 62.1244 35.1391C62.9003 34.5836 63.2882 33.7224 63.2882 32.5836C63.2882 31.3613 62.8449 30.3613 61.9859 29.5835C61.0992 28.778 59.6306 28.028 57.5247 27.2502C54.4212 26.0558 52.1491 24.778 50.7636 23.3613C49.3781 21.9447 48.6577 20.1947 48.6577 18.0836C48.6577 16.6113 49.0456 15.278 49.8215 14.1113C50.5973 12.9447 51.7057 12.028 53.1743 11.3614C54.6152 10.6947 56.3332 10.3613 58.3283 10.3613C60.6281 10.3613 62.6232 10.778 64.2858 11.5836C65.9483 12.4169 67.3061 13.6391 68.3036 15.3336L63.8978 18.0836C63.2328 17.1391 62.4292 16.4447 61.5425 16.0002C60.6281 15.5558 59.6029 15.3336 58.4114 15.3336C57.1368 15.3336 56.1669 15.5836 55.4465 16.1114C54.726 16.6114 54.3658 17.3336 54.3658 18.2502C54.3658 19.1947 54.8369 20.028 55.779 20.7224C56.7211 21.4169 58.1897 22.1669 60.1848 22.9447C63.2605 24.1391 65.5327 25.5002 67.029 27.0836C68.5253 28.6669 69.2735 30.5558 69.2735 32.7502C69.2735 34.278 68.8578 35.6669 67.9988 36.9447C67.1398 38.1947 65.9206 39.1947 64.3412 39.9447C62.734 40.6947 60.8498 41.0558 58.6885 41.0558C56.8042 41.0836 55.0586 40.7224 53.5068 40.0558Z" fill="#373873"/>
<path d="M81.0776 10.417V41.0837H74.6768V10.417H81.0776ZM90.8036 16.3059H98.5899L90.1663 28.1114L99.255 41.0837H91.4686L82.851 28.1114L90.8036 16.3059Z" fill="#373873"/>
<path d="M103.467 10.417V17.6948H110.865V10.417H103.467ZM103.467 21.8892L99.2549 27.7781H104.298V41.0559H110.865V21.8892H103.467Z" fill="#373873"/>
<path d="M119.843 39.8609C118.68 39.0553 117.793 37.972 117.183 36.5831C116.574 35.222 116.297 33.6942 116.297 31.9998L116.241 21.3609C116.241 17.2498 116.241 13.9442 116.241 11.472C116.241 8.99978 116.241 14.4442 116.241 10.3887H122.975C122.975 19.8053 122.975 20.8331 122.975 30.8887C122.975 31.722 123.058 32.4442 123.224 32.9998C123.39 33.5553 123.64 33.9998 124.028 34.3331C124.415 34.6664 124.887 34.8331 125.441 34.8331C126.133 34.8331 126.798 34.7498 127.436 34.5831L128.489 40.4442C127.436 40.8609 126.023 41.0831 124.222 41.0831C122.476 41.0831 121.007 40.6664 119.843 39.8609Z" fill="#373873"/>
<path d="M137.438 39.8609C136.274 39.0553 135.388 37.972 134.778 36.5831C134.168 35.222 133.891 33.6942 133.891 31.9998L133.836 21.3609C133.836 17.2498 133.836 13.9442 133.836 11.472C133.836 8.99978 133.836 14.4442 133.836 10.3887H140.569C140.569 19.8053 140.569 20.8331 140.569 30.8887C140.569 31.722 140.652 32.4442 140.819 32.9998C140.985 33.5553 141.234 33.9998 141.622 34.3331C142.01 34.6664 142.481 34.8331 143.035 34.8331C143.728 34.8331 144.393 34.7498 145.031 34.5831L146.083 40.4442C145.031 40.8609 143.617 41.0831 141.816 41.0831C140.071 41.0831 138.602 40.6664 137.438 39.8609Z" fill="#373873"/>
<path d="M163.845 40.4443C162.903 40.861 161.434 41.0832 159.495 41.0832C157.029 41.0832 155.089 40.3054 153.648 38.7499C152.207 37.1943 151.487 35.1943 151.431 32.7776L151.376 28.4999C151.376 27.0554 151.376 25.8888 151.404 24.9721C151.431 24.0554 151.431 22.8888 151.431 21.4999H147.164L151.376 15.611V10.4443H158.22V15.5554H163.845V21.4443H158.22V30.8888C158.248 32.111 158.469 33.0554 158.885 33.7221C159.301 34.3888 159.91 34.7499 160.742 34.7776C161.518 34.7776 162.183 34.6665 162.737 34.4721L163.845 40.4443Z" fill="#373873"/>
<path d="M184.794 15.7504C186.124 16.2504 187.066 16.8615 187.593 17.556L187.482 16.0838V15.6115H194.381V41.056H187.648V40.1115L187.814 38.5838C187.288 39.3338 186.373 39.9171 185.043 40.3615C183.741 40.806 182.383 41.056 181.025 41.056C178.421 41.056 176.176 40.4727 174.237 39.3338C172.297 38.1949 170.801 36.6393 169.748 34.6393C168.667 32.6671 168.141 30.4449 168.141 27.9727C168.141 25.3338 168.695 23.0282 169.775 21.0838C170.856 19.1116 172.38 17.6115 174.348 16.556C176.315 15.5004 178.532 14.9727 181.025 14.9727C182.189 15.0004 183.464 15.2504 184.794 15.7504ZM184.6 34.0282C185.57 33.4727 186.318 32.6949 186.9 31.6393C187.454 30.5838 187.731 29.3615 187.731 28.0004C187.731 26.5838 187.454 25.3893 186.9 24.3615C186.346 23.3338 185.57 22.556 184.6 22.0282C183.63 21.4727 182.577 21.2227 181.413 21.2227C180.305 21.2227 179.252 21.4727 178.255 22.0004C177.285 22.5282 176.481 23.306 175.899 24.306C175.29 25.3338 175.013 26.556 175.013 28.0004C175.013 29.4449 175.317 30.6671 175.899 31.7227C176.481 32.7504 177.285 33.5282 178.255 34.056C179.224 34.5838 180.277 34.8338 181.413 34.8338C182.577 34.8615 183.63 34.5838 184.6 34.0282Z" fill="#373873"/>
<path d="M207.793 28.5279L198.704 16.3057H206.379L211.838 24.2223L217.297 16.3057H224.972L215.828 28.5279L224.972 41.0556H217.186L211.838 33.3612L206.435 41.0556H198.648L207.793 28.5279Z" fill="#373873"/>
<path d="M31.5614 27.3336L25.77 21.3058L23.4425 18.8892L12.4141 7.41695C13.7996 6.08361 15.573 5.41695 17.3464 5.41695C19.2029 5.41695 21.0595 6.13917 22.4449 7.58361L28.4303 13.8058C28.9013 14.3058 29.5663 14.5836 30.2591 14.6114H30.3145C32.6144 14.6114 33.8059 11.8336 32.1987 10.1669L26.2134 3.94472C21.4751 -0.971931 13.6888 -1.11082 8.78421 3.63917L4.98802 7.30584L2.88211 9.33361C-0.858644 12.9447 -0.969495 18.9169 2.66043 22.6669L5.5145 25.6392L15.0742 35.5558L21.8076 42.5558C20.4221 43.8892 18.6487 44.5558 16.8753 44.5558C15.0188 44.5558 13.1623 43.8336 11.7768 42.3892L5.79159 36.1669C5.32054 35.6669 4.65551 35.3892 3.96278 35.3614H3.90736C1.60748 35.3614 0.415976 38.1392 2.02312 39.8058L8.00834 46.0281C12.7466 50.9447 20.533 51.0836 25.4375 46.3336L31.312 40.6669C35.0528 37.0558 35.1636 31.0836 31.5614 27.3336ZM28.1532 36.4447C27.4603 37.1114 26.5736 37.4447 25.6869 37.4447C24.7448 37.4447 23.8304 37.0836 23.1377 36.3614L6.01327 18.5836C4.65551 17.167 4.68322 14.9169 6.0964 13.5558C7.50957 12.1947 9.75403 12.2225 11.1118 13.6392L28.2363 31.4169C29.594 32.8336 29.5663 35.0836 28.1532 36.4447Z" fill="#373873"/>
</g>
<defs>
<clipPath id="clip0_108_3884">
<rect width="225" height="50" fill="white"/>
</clipPath>
</defs>
</svg>
